<?xml version="1.0" standalone="no"?>
<!DOCTYPE svg PUBLIC "-//W3C//DTD SVG 1.1//EN" "http://www.w3.org/Graphics/SVG/1.1/DTD/svg11.dtd" >
<svg>
<metadata>
Created by FontForge 20130207 at Wed Mar 15 22:12:22 2017
 By Вова
(c) 2013 Microsoft Corporation. All Rights Reserved.
</metadata>
<defs>
<font id="Calibri-Bold" horiz-adv-x="0" >
  <font-face 
    font-family="Calibri-Bold"
    font-weight="700"
    font-stretch="normal"
    units-per-em="2048"
    panose-1="2 15 7 2 3 4 4 3 2 4"
    ascent="1536"
    descent="-512"
    x-height="960"
    cap-height="1294"
    bbox="-1060.68 -590 2540 2128"
    underline-thickness="134"
    underline-position="-165"
    unicode-range="U+000D-FEFF"
  />
<missing-glyph horiz-adv-x="1038" 
d="M552 209.5q-22 -21.5 -65 -21.5q-71 0 -93.5 21.5t-22.5 61.5q0 68 22 90t65 22t62.5 -5t36.5 -22t17 -71t-22 -75.5zM275 931q-21 0 -21 59t10 69q20 19 81 35t134 16q150 0 225.5 -73.5t75.5 -191.5q0 -167 -87.5 -205t-136.5 -44l-5 -121q-2 -24 -75 -24t-80 8t-7 16
l-8 157q-5 70 58 70h13q103 0 119 53t16 97t-37.5 82t-112.5 38t-116 -20.5t-46 -20.5zM879 101v1092h-732v-1092h732zM987 1294v-1294h-945v1294h945z" />
    <glyph glyph-name="uniFB00" unicode="ff" horiz-adv-x="1230" 
d="M636 1166q-7 0 -10 1l-31 11q-29 9 -74 9q-95 0 -95 -156v-71h331v79q0 274 116 318.5t194 44.5t142 -23q23 -8 30.5 -31.5t7.5 -95.5t-28 -72q-7 0 -35.5 10t-78.5 10q-97 0 -97 -155v-85h163q40 0 40 -102t-39 -102h-164v-722q0 -40 -114 -40t-125.5 15t-11.5 25v722
h-331v-722q0 -21 -20.5 -28t-45 -9.5t-77.5 -2.5t-80.5 9.5t-27.5 30.5v722h-112q-38 0 -38 92t14.5 102t24.5 10h111v66q0 363 311 363q72 0 112 -14q39 -14 46 -20.5t13.5 -24.5t6.5 -91t-28 -73z" />
    <glyph glyph-name="uniFB01" unicode="fi" horiz-adv-x="1135" 
d="M932 960q76 0 76 -69v-857q0 -40 -114 -40t-125.5 15t-11.5 25v722h-331v-722q0 -40 -114 -40t-125.5 15t-11.5 25v722h-112q-38 0 -38 92t14.5 102t24.5 10h111v79q0 274 114.5 318.5t164.5 44.5t73 -2t43 -6t35 -9t27.5 -17t12.5 -78t-5.5 -85.5t-21.5 -19.5
q-7 0 -33.5 7.5t-68.5 7.5q-90 0 -90 -155v-85h506zM1027 1226q0 -36 -6.5 -62t-22.5 -41.5t-43.5 -22t-89.5 -6.5t-92 28t-30 84t6.5 81t23 41t44.5 23t69 7t68.5 -7t43.5 -23t22.5 -41t6.5 -61z" />
    <glyph glyph-name="uniFB02" unicode="fl" horiz-adv-x="1135" 
d="M496 1400q246 0 262 -50q5 42 127 42q123 0 123 -43v-1315q0 -40 -114 -40t-125.5 15t-11.5 25v1158q-5 -12 -19 -12t-32 4t-49.5 9t-76.5 5q-88 0 -121 -35t-33 -121v-82h148q40 0 40 -102t-39 -102h-149v-722q0 -40 -114 -40t-125.5 15t-11.5 25v722h-112q-38 0 -38 92
t14.5 102t24.5 10h111v77q0 275 130.5 319t190.5 44z" />
    <glyph glyph-name="uniFB03" unicode="ffi" horiz-adv-x="1718" 
d="M1438 -6q-98 0 -98 40v722h-332v-722q0 -40 -114 -40t-125.5 15t-11.5 25v722h-331v-722q0 -40 -114.5 -40t-125.5 15t-11 25v722h-112q-38 0 -38 92t14.5 102t24.5 10h111v66q0 363 311 363q75 0 113 -14t45 -20.5t13.5 -24.5t6.5 -91t-28 -73q-7 0 -38.5 10.5
t-77.5 10.5q-94 0 -94 -156v-71h331v79q0 274 115 318.5t165 44.5t73.5 -2t43 -6t34.5 -9t27.5 -17t12.5 -78t-5.5 -85.5t-21.5 -19.5q-7 0 -33 7.5t-69 7.5q-91 0 -91 -155v-85h507q77 0 77 -69v-857q0 -21 -28 -30.5t-126 -9.5zM1581 1122q-30 -28 -92 -28
q-103 0 -133.5 28.5t-30.5 84.5q0 92 30.5 121.5t92.5 29.5t89.5 -7t50.5 -29.5t23 -96.5q0 -75 -30 -103z" />
    <glyph glyph-name="uniFB04" unicode="ffl" horiz-adv-x="1718" 
d="M1438 -6q-98 0 -98 40v1161q-9 -13 -21 -13t-30 4t-49.5 9t-76.5 5q-89 0 -122 -35.5t-33 -119.5v-85h149q40 0 40 -102t-39 -102h-150v-722q0 -40 -114 -40t-125.5 15t-11.5 25v722h-331v-722q0 -40 -114.5 -40t-125.5 15t-11 25v722h-112q-38 0 -38 92t14.5 102
t24.5 10h111v66q0 363 311 363q71 0 111 -14t47 -20.5t13.5 -24.5t6.5 -91t-28 -73q-7 0 -10 1l-31 11q-29 9 -74 9q-95 0 -95 -156v-71h331v79q0 275 130.5 319t190.5 44t91.5 -2t72.5 -7t66 -13.5t33 -29.5q5 42 128 42t123 -43v-1315q0 -21 -28 -30.5t-126 -9.5z" />
    <glyph glyph-name="f_b.liga" unicode="fb" horiz-adv-x="1730" 
d="M1394 444q0 159 -41 241.5t-135 82.5q-53 0 -102.5 -33.5t-107.5 -108.5v-296q110 -139 202 -139t138 83t46 170zM496 1400q246 0 262 -50q5 42 127 42q123 0 123 -43v-493q106 100 175 113.5t109 13.5q185 0 274 -137.5t89 -365.5t-101.5 -365.5t-282.5 -137.5
q-90 0 -158 36t-140 118v-97q0 -40 -98 -40t-108 14.5t-10 25.5v1158q-9 -12 -21 -12t-30.5 4t-48 9t-75.5 5q-90 0 -123 -35t-33 -121v-82h148q40 0 40 -102t-39 -102h-149v-722q0 -21 -20.5 -28t-45 -9.5t-77.5 -2.5t-80.5 9.5t-27.5 30.5v722h-112q-38 0 -38 92t14.5 102
t24.5 10h111v77q0 275 130.5 319t190.5 44z" />
    <glyph glyph-name="f_f_b.liga" unicode="ffb" horiz-adv-x="2313" 
d="M636 1166q-7 0 -10 1l-31 11q-29 9 -74 9q-95 0 -95 -156v-71h331v79q0 275 130.5 319t190.5 44t91.5 -2t73 -7t66 -13.5t32.5 -29.5q5 42 128 42t123 -43v-493q127 127 282 127q186 0 275 -137.5t89 -364.5t-101.5 -365.5t-282.5 -138.5q-91 0 -159.5 36.5t-139.5 117.5
v-98q0 -22 -33.5 -34t-90 -6.5t-74 12t-17.5 28.5v1162q-9 -13 -21 -13t-31 4t-47.5 9t-75.5 5q-91 0 -124 -35.5t-33 -119.5v-85h149q40 0 40 -102t-39 -102h-150v-722q0 -40 -114 -40t-125.5 15t-11.5 25v722h-331v-722q0 -40 -114 -40t-125.5 15t-11.5 25v722h-112
q-38 0 -38 92t14.5 102t24.5 10h111v66q0 363 311 363q72 0 112 -14q39 -14 46 -20.5t13.5 -24.5t6.5 -91t-28 -73zM1976 444q0 159 -41 241.5t-139 82.5t-204 -142v-296q106 -139 199 -139t139 83t46 170z" />
    <glyph glyph-name="f_h.liga" unicode="fh" horiz-adv-x="1730" 
d="M496 1400q246 0 262 -50q5 42 127 42q123 0 123 -43v-493q131 127 274 127q327 0 327 -402v-547q-1 -40 -115 -40t-125 15t-11 25v509q0 221 -149 221q-89 0 -201 -137v-593q0 -40 -114 -40t-125.5 15t-11.5 25v1158q-9 -12 -21 -12t-30.5 4t-48 9t-75.5 5
q-90 0 -123 -35t-33 -121v-82h148q40 0 40 -102t-39 -102h-149v-722q0 -40 -114 -40t-125.5 15t-11.5 25v722h-112q-38 0 -38 92t14.5 102t24.5 10h111v77q0 275 130.5 319t190.5 44z" />
    <glyph glyph-name="f_f_h.liga" unicode="ffh" horiz-adv-x="2313" 
d="M1438 -6q-98 0 -98 40v1161q-9 -13 -20 -13q-12 0 -29.5 4t-49 9t-77.5 5q-90 0 -123 -35.5t-33 -119.5v-85h149q40 0 40 -102t-39 -102h-150v-722q0 -40 -114 -40t-125.5 15t-11.5 25v722h-331v-722q0 -40 -114.5 -40t-125.5 15t-11 25v722h-112q-38 0 -38 92t14.5 102
t24.5 10h111v66q0 363 311 363q72 0 112 -14q39 -14 46 -20.5t13.5 -24.5t6.5 -91t-28 -73q-7 0 -10 1l-31 11q-29 9 -74 9q-95 0 -95 -156v-71h331v79q0 275 130.5 319t190.5 44t91.5 -2t73 -7t66 -13.5t32.5 -29.5q5 42 128 42t123 -43v-493q129 127 273 127
q327 0 327 -402v-547q0 -40 -109 -40q-88 0 -115 9.5t-27 30.5v509q0 221 -150 221q-91 0 -199 -137v-593q0 -21 -28 -30.5t-126 -9.5z" />
    <glyph glyph-name="f_igrave.liga" unicode="f&#xec;" horiz-adv-x="1135" 
d="M1006 1097.5q0 -19.5 -86 -19.5t-98.5 12.5t-18.5 22.5l-141 232q-24 38 26.5 46.5t90.5 8.5q71 0 95.5 -8t32.5 -33l94 -228q5 -14 5 -33.5zM932 960q76 0 76 -69v-857q0 -40 -114 -40t-125.5 15t-11.5 25v722h-331v-722q0 -40 -114.5 -40t-125.5 15t-11 25v722h-112
q-38 0 -38 92t14.5 102t24.5 10h111v86q0 354 302 354q123 0 134 -35.5t11 -107.5q0 -73 -27 -73q-6 0 -28.5 7t-49.5 7q-91 0 -91 -146v-92h506z" />
    <glyph glyph-name="f_iacute.liga" unicode="f&#xed;" horiz-adv-x="1135" 
d="M932 960q76 0 76 -69v-857q0 -40 -114 -40t-131 22q-6 8 -6 18v722h-331v-722q0 -40 -114 -40t-132 22q-6 8 -5 18v722h-112q-38 0 -38 92q-1 92 21 107q8 5 18 5h111v77q0 363 310 363q148 0 165 -54q7 -22 7 -75q1 -53 -5 -73t-22 -20q-6 0 -15 3q-51 17 -99 17
q-90 0 -90 -156v-82h506zM1049 1401q124 0 121 -33q-1 -10 -10 -21l-194 -232q-23 -28 -55 -32q-32 -3 -64 -3q-66 0 -81 12t4 40l143 229q21 33 80 38q23 2 56 2z" />
    <glyph glyph-name="f_icircumflex.liga" unicode="f&#xee;" horiz-adv-x="1135" 
d="M625.5 1091q-10.5 14 16.5 61l132 214q13 26 54.5 29t73.5 3q100 0 128 -32l138 -223q25 -41 12.5 -53.5t-62.5 -12.5q-83 0 -100.5 5t-29.5 30l-88 149l-88 -149q-12 -24 -30.5 -29.5t-81.5 -5.5q-64 0 -74.5 14zM932 960q76 0 76 -69v-857q0 -40 -114 -40t-125.5 15
t-11.5 25v722h-331v-722q0 -40 -114 -40t-125.5 15t-11.5 25v722h-112q-38 0 -38 92t14.5 102t24.5 10h111v86q0 354 302 354q120 0 131.5 -33t11.5 -105q0 -73 -27 -73q-7 0 -28 7t-58 7q-81 0 -81 -146v-97h506z" />
    <glyph glyph-name="f_itilde.liga" unicode="f&#x129;" horiz-adv-x="1153" 
d="M1010 1235q47 0 47 85q0 17 16.5 23t54.5 6t55.5 -8t17.5 -51q0 -101 -50 -166.5t-133 -65.5t-126.5 39t-62.5 56.5t-39 17.5q-47 0 -47 -84q0 -18 -15.5 -23.5t-53.5 -5.5t-56 7.5t-18 33.5q0 117 49 183.5t132 66.5t123 -35.5t64 -57t42 -21.5zM951 960q76 0 76 -69
v-857q1 -40 -125 -40t-126 40v722h-350v-722q0 -40 -114.5 -40t-125.5 15t-11 25v722h-112q-38 0 -38 92t14.5 102t24.5 10h111v102q0 338 292 338q117 0 125.5 -32t8.5 -108t-23 -76q-6 0 -24 5.5t-53 5.5q-75 0 -75 -143v-92h525z" />
    <glyph glyph-name="f_idieresis.liga" unicode="f&#xef;" horiz-adv-x="1153" 
d="M950 1226q0 37 6 61t20 37.5t36.5 18.5t54.5 5t54.5 -5t36 -18.5t19.5 -37.5t6 -61t-6 -61.5t-19.5 -38.5t-36 -19.5t-54.5 -5.5t-54.5 5.5t-36.5 19.5t-20 38.5t-6 61.5zM642 1226q0 37 6 61t20 37.5t36.5 18.5t54.5 5t54 -5t36 -18.5t20 -37.5t6 -61t-6 -61.5
t-20 -38.5t-36 -19.5t-54 -5.5t-54.5 5.5t-36.5 19.5t-20 38.5t-6 61.5zM951 960q76 0 76 -69v-857q1 -40 -113 -40t-126 15t-12 25v722h-350v-722q0 -40 -114.5 -40t-125.5 15t-11 25v722h-112q-38 0 -38 92t14.5 102t24.5 10h111v102q0 338 292 338q117 0 125.5 -32
t8.5 -108t-23 -76q-6 0 -24 5.5t-53 5.5q-75 0 -75 -143v-92h525z" />
    <glyph glyph-name="f_imacron.liga" unicode="f&#x12b;" horiz-adv-x="1153" 
d="M1128 1323q23 0 30 -15.5t9 -33t2 -56t-9 -58.5t-32 -20h-450q-25 0 -34 20t-9 58q0 66 9.5 85.5t33.5 19.5h450zM951 960q76 0 76 -69v-857q1 -40 -125 -40t-126 40v722h-350v-722q0 -40 -114.5 -40t-125.5 15t-11 25v722h-112q-38 0 -38 92t14.5 102t24.5 10h111v102
q0 338 292 338q117 0 125.5 -32t8.5 -108t-23 -76q-6 0 -24 5.5t-45 5.5q-85 0 -83 -143v-92h525z" />
    <glyph glyph-name="f_ibreve.liga" unicode="f&#x12d;" horiz-adv-x="1153" 
d="M633 1348q1 38 67 38q60 0 77 -8.5t19 -33.5q4 -55 28.5 -85t64.5 -30q65 0 91.5 28.5t30.5 88.5q4 40 67 40t79.5 -7.5t16.5 -28.5q0 -279 -270 -279q-211 0 -241 105.5t-30 171.5zM951 960q76 0 76 -69v-857q1 -40 -113 -40t-126 15t-12 25v722h-350v-722
q0 -40 -114 -40t-125.5 15t-11.5 25v722h-112q-38 0 -38 92t14.5 102t24.5 10h111v102q0 338 292 338q117 0 125.5 -32t8.5 -108t-23 -76q-6 0 -24 5.5t-53 5.5q-75 0 -75 -143v-92h525z" />
    <glyph glyph-name="f_iogonek.liga" unicode="f&#x12f;" horiz-adv-x="1135" 
d="M932 960q76 0 76 -69v-856q0 -34 -26 -60l-58 -59q-43 -40 -43 -75q0 -41 62 -41h83q21 0 28.5 -12.5t7.5 -40.5q0 -48 -8 -65t-56 -32t-121 -15q-238 0 -238 163q0 84 75 159l43 43v756h-331v-722q0 -40 -114 -40t-125.5 15t-11.5 25v722h-112q-38 0 -38 92t14.5 102
t24.5 10h111v79q0 274 114.5 318.5t164.5 44.5t73 -2t43 -6t35 -9t27.5 -17t12.5 -78t-5.5 -85.5t-21.5 -19.5q-7 0 -33.5 7.5t-68.5 7.5q-92 0 -90 -155v-85h506zM1027 1226q0 -36 -6.5 -62t-22.5 -41.5t-43.5 -22t-89.5 -6.5t-92 28t-30 84t6.5 81t23 41t44.5 23t69 7
t68.5 -7t43.5 -23t22.5 -41t6.5 -61z" />
    <glyph glyph-name="f_dotlessi.liga" unicode="f&#x131;" horiz-adv-x="1135" 
d="M932 960q76 0 76 -69v-857q0 -40 -114 -40t-125.5 15t-11.5 25v722h-331v-722q0 -40 -114 -40t-125.5 15t-11.5 25v722h-112q-38 0 -38 92t14.5 102t24.5 10h111v77q0 363 310 363q148 0 160 -37.5t12 -91.5t-5.5 -73.5t-21.5 -19.5q-6 0 -36 10t-78 10q-90 0 -90 -156
v-82h506z" />
    <glyph glyph-name="f_f_igrave.liga" unicode="ff&#xec;" horiz-adv-x="1718" 
d="M1589 1097.5q0 -19.5 -86 -19.5t-98.5 12.5t-17.5 22.5l-142 232q-16 25 11 40t86 15q91 0 115.5 -8t32.5 -33l94 -228q5 -14 5 -33.5zM1438 -6q-98 0 -98 40v722h-332v-722q0 -40 -114 -40t-125.5 15t-11.5 25v722h-331v-722q0 -40 -114.5 -40t-125.5 15t-11 25v722
h-112q-38 0 -38 92t14.5 102t24.5 10h111v66q0 363 311 363q77 0 114 -14t44 -20.5t13.5 -24.5t6.5 -91t-28 -73q-7 0 -10 1l-31 11q-29 9 -74 9q-95 0 -95 -156v-71h331v89q0 353 303 353q99 0 122 -23t23 -107t-27 -85q-6 0 -27 6.5t-51 6.5q-92 0 -92 -146v-94h507
q77 0 77 -69v-857q0 -21 -28 -30.5t-126 -9.5z" />
    <glyph glyph-name="f_f_iacute.liga" unicode="ff&#xed;" horiz-adv-x="1718" 
d="M1466 -6q-126 0 -126 40v722h-332v-722q0 -40 -114 -40t-131 22q-6 8 -6 18v722h-331v-722q0 -40 -114 -40t-132 22q-6 8 -5 18v722h-112q-38 0 -38 92q-1 92 21 107q8 5 18 5h111v66q0 363 311 363q77 0 114 -14q37 -15 44 -21q8 -6 14 -24t6 -91t-28 -73q-7 0 -16 3
l-21 7q-33 11 -78 11q-95 0 -95 -156v-71h331v79q-1 275 173 341q58 22 120 22q60 0 96 -7t52 -13q28 -11 35 -34q7 -22 7 -75t-6 -73t-21 -19q-7 0 -15 3q-45 16 -97 16q-93 0 -93 -155v-85h507q77 0 77 -69v-857q0 -21 -20 -28q-36 -12 -106 -12zM1632 1401q124 0 121 -33
q-1 -10 -10 -21l-194 -232q-23 -28 -55 -32q-32 -3 -64 -3q-66 0 -81 12t4 40l143 229q21 33 80 38q23 2 56 2z" />
    <glyph glyph-name="f_f_icircumflex.liga" unicode="ff&#xee;" horiz-adv-x="1718" 
d="M1209.5 1091q-11.5 14 15.5 61l131 214q13 26 54.5 29t73.5 3q103 0 128 -32l139 -223q23 -42 11.5 -54t-62.5 -12q-83 0 -100 5t-29 30l-88 149l-88 -149q-12 -24 -31 -29.5t-81 -5.5t-73.5 14zM1438 -6q-98 0 -98 40v722h-332v-722q0 -40 -114 -40t-125.5 15t-11.5 25
v722h-331v-722q0 -40 -114.5 -40t-125.5 15t-11 25v722h-112q-38 0 -38 92t14.5 102t24.5 10h111v66q0 363 311 363q71 0 111 -14t47 -20.5t13.5 -24.5t6.5 -91t-28 -73q-7 0 -10 1l-31 11q-29 9 -74 9q-95 0 -95 -156v-71h331v89q0 353 303 353q121 0 132 -32.5t11 -85.5
t-5.5 -72.5t-21.5 -19.5q-6 0 -29 7t-49 7q-90 0 -90 -146v-100h507q77 0 77 -69v-857q0 -21 -28 -30.5t-126 -9.5z" />
    <glyph glyph-name="f_f_itilde.liga" unicode="ff&#x129;" horiz-adv-x="1736" 
d="M1593 1235q47 0 47 85q0 17 16 23t54 6t56 -8t18 -51q0 -101 -50 -166.5t-133 -65.5q-82 0 -126.5 39t-63 56.5t-38.5 17.5q-46 0 -46 -84q0 -18 -16 -23.5t-55 -5.5t-56 7.5t-17 33.5q0 117 49 183.5t132 66.5t123 -35.5t63 -57t43 -21.5zM1456.5 -6q-97.5 0 -97.5 40
v722h-351v-722q0 -40 -114 -40t-125.5 15t-11.5 25v722h-331v-722q0 -40 -114 -40t-125.5 15t-11.5 25v722h-112q-38 0 -38 92t14.5 102t24.5 10h111v66q0 363 311 363q71 0 111 -14t47 -20.5t13.5 -24.5t6.5 -91t-28 -73q-7 0 -10 1l-31 11q-29 9 -74 9q-95 0 -95 -156v-71
h331v105q0 337 293 337q117 0 125 -29.5t8 -107.5t-22 -78q-6 0 -24 5.5t-53 5.5q-76 0 -76 -144v-94h525q77 0 77 -69v-857q0 -21 -28 -30.5t-125.5 -9.5z" />
    <glyph glyph-name="f_f_idieresis.liga" unicode="ff&#xef;" horiz-adv-x="1736" 
d="M1533 1226q0 37 6.5 61t20 37.5t36 18.5t54.5 5t54 -5t36 -18.5t20.5 -37.5t6.5 -61t-6.5 -61.5t-20.5 -38.5t-36 -19.5t-54 -5.5t-54.5 5.5t-36 19.5t-20 38.5t-6.5 61.5zM1225 1226q0 37 6 61t20 37.5t36.5 18.5t54.5 5t54.5 -5t36 -18.5t19.5 -37.5t6 -61t-6 -61.5
t-19.5 -38.5t-36 -19.5t-54.5 -5.5t-54.5 5.5t-36.5 19.5t-20 38.5t-6 61.5zM1456.5 -6q-97.5 0 -97.5 40v722h-351v-722q0 -40 -114 -40t-125.5 15t-11.5 25v722h-331v-722q0 -40 -114 -40t-125.5 15t-11.5 25v722h-112q-38 0 -38 92t14.5 102t24.5 10h111v66
q0 363 311 363q71 0 111 -14t47 -20.5t13.5 -24.5t6.5 -91t-28 -73q-7 0 -10 1l-31 11q-29 9 -74 9q-95 0 -95 -156v-71h331v105q0 337 293 337q117 0 125 -29.5t8 -107.5t-22 -78q-6 0 -24 5.5t-45 5.5q-84 0 -84 -144v-94h525q77 0 77 -69v-857q0 -21 -28 -30.5
t-125.5 -9.5z" />
    <glyph glyph-name="f_f_imacron.liga" unicode="ff&#x12b;" horiz-adv-x="1736" 
d="M1712 1323q40 0 40 -83t-14.5 -91.5t-25.5 -8.5h-450q-26 0 -35 20t-9 70q0 51 9.5 72t34.5 21h450zM1456.5 -6q-97.5 0 -97.5 40v722h-351v-722q0 -40 -114 -40t-125.5 15t-11.5 25v722h-331v-722q0 -40 -114 -40t-125.5 15t-11.5 25v722h-112q-38 0 -38 92t14.5 102
t24.5 10h111v66q0 363 311 363q71 0 111 -14t47 -20.5t13.5 -24.5t6.5 -91t-28 -73q-7 0 -10 1l-31 11q-29 9 -74 9q-95 0 -95 -156v-71h331v105q0 337 293 337q117 0 125 -29.5t8 -107.5t-22 -78q-6 0 -24 5.5t-53 5.5q-76 0 -76 -144v-94h525q77 0 77 -69v-857
q0 -21 -28 -30.5t-125.5 -9.5z" />
    <glyph glyph-name="f_f_ibreve.liga" unicode="ff&#x12d;" horiz-adv-x="1736" 
d="M1756 1350q0 -279 -270 -279q-212 0 -241 105.5t-29 143.5t3.5 45.5t17 14t59.5 6.5t64 -9t20 -33q7 -115 106 -115q100 0 108 117q4 40 76 40t79 -13t7 -23zM1456.5 -6q-97.5 0 -97.5 40v722h-351v-722q0 -40 -114 -40t-125.5 15t-11.5 25v722h-331v-722q0 -40 -114 -40
t-125.5 15t-11.5 25v722h-112q-38 0 -38 92t14.5 102t24.5 10h111v66q0 363 311 363q71 0 111 -14t47 -20.5t13.5 -24.5t6.5 -91t-28 -73q-7 0 -10 1l-31 11q-29 9 -74 9q-95 0 -95 -156v-71h331v105q0 337 293 337q117 0 125 -29.5t8 -107.5t-22 -78q-6 0 -24 5.5t-53 5.5
q-76 0 -76 -144v-94h525q77 0 77 -69v-857q0 -21 -28 -30.5t-125.5 -9.5z" />
    <glyph glyph-name="f_f_iogonek.liga" unicode="ff&#x12f;" horiz-adv-x="1718" 
d="M1515 960q77 0 77 -69v-856q0 -33 -27 -60l-59 -59q-42 -42 -42 -75q0 -41 62 -41h83q21 0 28 -11.5t7 -40.5q0 -48 -7.5 -65.5t-55.5 -32.5t-121 -15q-239 0 -239 163q0 82 77 159l42 43v756h-332v-722q0 -40 -114 -40t-125.5 15t-11.5 25v722h-331v-722q0 -40 -114 -40
t-125.5 15t-11.5 25v722h-112q-38 0 -38 92t14.5 102t24.5 10h111v66q0 363 311 363q71 0 111 -14t47 -20.5t13.5 -24.5t6.5 -91t-28 -73q-7 0 -10 1l-31 11q-29 9 -74 9q-95 0 -95 -156v-71h331v79q0 274 115 318.5t165 44.5t73.5 -2t43 -6t34.5 -9t27.5 -17t12.5 -78
t-5.5 -85.5t-21.5 -19.5q-7 0 -33 7.5t-69 7.5q-91 0 -91 -155v-85h507zM1581 1122q-30 -28 -92 -28q-103 0 -133.5 28.5t-30.5 84.5q0 92 30.5 121.5t92.5 29.5t89.5 -7t50.5 -29.5t23 -96.5q0 -75 -30 -103z" />
    <glyph glyph-name="f_f_dotlessi.liga" unicode="ff&#x131;" horiz-adv-x="1718" 
d="M1438 -6q-98 0 -98 40v722h-332v-722q0 -40 -114 -40t-125.5 15t-11.5 25v722h-331v-722q0 -40 -114 -40t-125.5 15t-11.5 25v722h-112q-38 0 -38 92t14.5 102t24.5 10h111v66q0 363 311 363q77 0 114 -14t44 -20.5t13.5 -24.5t6.5 -91t-28 -73q-7 0 -10 1l-31 11
q-29 9 -74 9q-95 0 -95 -156v-71h331v79q0 274 116 318.5t177 44.5t96.5 -7t57.5 -16t29 -30.5t7 -75.5q0 -53 -5.5 -72.5t-21.5 -19.5q-6 0 -33 9.5t-79 9.5q-93 0 -93 -155v-85h507q77 0 77 -69v-857q0 -21 -28 -30.5t-126 -9.5z" />
    <glyph glyph-name="f_j.liga" unicode="fj" horiz-adv-x="1135" 
d="M932 960q76 0 76 -69v-891q0 -187 -68.5 -276t-214.5 -89q-147 0 -162 32.5t-15 111.5t29 79q8 0 29.5 -7.5t49.5 -7.5q53 0 77 33.5t24 132.5v747h-331v-722q0 -40 -114 -40t-125.5 15t-11.5 25v722h-112q-38 0 -38 92t14.5 102t24.5 10h111v79q0 274 114.5 318.5
t164.5 44.5t73 -2t43 -6t35 -9t27.5 -17t12.5 -78t-5.5 -85.5t-21.5 -19.5q-7 0 -33.5 7.5t-68.5 7.5q-90 0 -90 -155v-85h506zM1027 1226q0 -36 -6.5 -62t-22.5 -41.5t-43.5 -22t-89.5 -6.5t-92 28t-30 84t6.5 81t23 41t44.5 23t69 7t68.5 -7t43.5 -23t22.5 -41t6.5 -61z
" />
    <glyph glyph-name="f_jcircumflex.liga" unicode="f&#x135;" horiz-adv-x="1135" 
d="M625.5 1091q-10.5 14 16.5 61l132 214q13 26 54.5 29t73.5 3q100 0 128 -32l138 -223q25 -41 12.5 -53.5t-62.5 -12.5q-83 0 -100.5 5t-29.5 30l-88 149l-88 -149q-12 -24 -30.5 -29.5t-81.5 -5.5q-64 0 -74.5 14zM932 960q76 0 76 -69v-911q0 -254 -107 -299.5
t-161 -45.5t-76 2t-41.5 6.5t-34 10t-27.5 17.5t-13 99q0 88 29 88q8 0 31.5 -7.5t86 -7.5t62.5 146v767h-331v-722q0 -40 -114.5 -40t-125.5 15t-11 25v722h-112q-38 0 -38 92t14.5 102t24.5 10h111v86q0 354 302 354q120 0 131.5 -33t11.5 -105q0 -73 -27 -73q-7 0 -28 7
t-58 7q-81 0 -81 -146v-97h506z" />
    <glyph glyph-name="f_f_j.liga" unicode="ffj" horiz-adv-x="1718" 
d="M636 1166q-7 0 -10 1l-31 11q-29 9 -74 9q-95 0 -95 -156v-71h331v79q0 274 115.5 318.5t165.5 44.5t73.5 -2t43 -6t34 -9t22.5 -13t12.5 -28t4.5 -89q0 -70 -27 -70q-7 0 -33 7.5t-69 7.5q-91 0 -91 -155v-85h507q77 0 77 -69v-911q0 -253 -108 -299t-162 -46t-75.5 2
t-41.5 6.5t-34.5 10t-27 17t-12.5 99.5t18 88t39 -7.5t58 -7.5q94 0 94 146v767h-332v-722q0 -40 -114 -40t-125.5 15t-11.5 25v722h-331v-722q0 -40 -115 -40t-125.5 14.5t-10.5 24.5v723h-112q-38 0 -38 92t14.5 102t24.5 10h111v66q0 363 311 363q71 0 111 -14t47 -20.5
t13.5 -24.5t6.5 -91t-28 -73zM1581 1122q-30 -28 -92 -28q-103 0 -133.5 28.5t-30.5 84.5q0 92 30.5 121.5t92.5 29.5t89.5 -7t50.5 -29.5t23 -96.5q0 -75 -30 -103z" />
    <glyph glyph-name="f_k.liga" unicode="fk" horiz-adv-x="1613" 
d="M496 1400q246 0 262 -50q5 42 127 42q123 0 123 -43v-783l266 355q15 26 45.5 35.5t84.5 9.5q90 0 119.5 -9.5t29.5 -33.5t-31 -66l-262 -296l303 -467q23 -42 23 -57t-5.5 -22t-20 -12t-39.5 -7t-83.5 -2t-88 8t-43.5 34l-298 470v-472q0 -40 -114 -40t-125.5 15
t-11.5 25v1158q-5 -12 -19 -12t-32 4t-49.5 9t-76.5 5q-88 0 -121 -35t-33 -121v-82h148q40 0 40 -102t-39 -102h-149v-722q0 -40 -114.5 -40t-125.5 15t-11 25v722h-112q-38 0 -38 92t14.5 102t24.5 10h111v77q0 275 130.5 319t190.5 44z" />
    <glyph glyph-name="f_f_k.liga" unicode="ffk" horiz-adv-x="2197" 
d="M1438 -6q-98 0 -98 40v1161q-6 -13 -19 -13t-31.5 4t-50 9t-76.5 5q-89 0 -122 -35.5t-33 -119.5v-85h149q40 0 40 -102t-39 -102h-150v-722q0 -40 -114 -40t-125.5 15t-11.5 25v722h-331v-722q0 -40 -114.5 -40t-125.5 15t-11 25v722h-112q-38 0 -38 92t14.5 102
t24.5 10h111v66q0 363 311 363q71 0 111 -14t47 -20.5t13.5 -24.5t6.5 -91t-28 -73q-7 0 -10 1l-31 11q-29 9 -74 9q-95 0 -95 -156v-71h331v77q0 275 130.5 320t190.5 45t91.5 -2t72 -7t67.5 -14t32 -29q5 42 128 42t123 -43v-783l264 355q18 27 47 36t83 9
q90 0 119.5 -9.5t29.5 -35.5t-30 -64l-262 -296l303 -467q23 -38 23 -55q0 -58 -111 -49.5t-134 15t-35 31.5l-297 470v-472q0 -21 -28 -30.5t-126 -9.5z" />
    <glyph glyph-name="f_lacute.liga" unicode="f&#x13a;" horiz-adv-x="1135" 
d="M496 1400q246 0 262 -50q5 42 127 42q123 0 123 -43v-1315q0 -40 -114 -40t-131 22q-6 8 -6 18v1158q-5 -12 -19 -12t-32 4t-49 9t-77 5q-88 0 -121 -35t-33 -121v-82h148q40 0 40 -102t-39 -102h-149v-722q0 -40 -114 -40t-132 22q-6 8 -5 18v722h-112q-38 0 -38 92
q-1 92 21 107q8 5 18 5h111v77q-1 275 193 341q68 22 128 22zM1242 1739q19 -19 -12 -49l-222 -200q-31 -28 -67 -32q-37 -3 -69 -3q-66 1 -82 13q-16 13 8 40l180 204q26 29 49 36q34 10 115 10t100 -19z" />
    <glyph glyph-name="f_lcaron.liga" unicode="f&#x13e;" horiz-adv-x="1258" 
d="M496 1400q246 0 262 -50q5 42 127 42q123 0 123 -43v-1315q0 -40 -114 -40t-131 22q-6 8 -6 18v1158q-5 -12 -19 -12t-32 4t-49 9t-77 5q-88 0 -121 -35t-33 -121v-82h148q40 0 40 -102t-39 -102h-149v-722q0 -40 -114 -40t-132 22q-6 8 -5 18v722h-112q-38 0 -38 92
q-1 92 21 107q8 5 18 5h111v77q-1 275 193 341q68 22 128 22zM1266 1402q66 0 84 -11q19 -11 10 -39l-124 -314q-12 -34 -95 -34q-60 0 -72 10t-6 36l78 305q12 47 125 47z" />
    <glyph glyph-name="f_uni013C.liga" unicode="f&#x13c;" horiz-adv-x="1135" 
d="M496 1400q246 0 262 -50q5 42 127 42q123 0 123 -43v-1315q0 -40 -114 -40t-131 22q-6 8 -6 18v1158q-5 -12 -19 -12t-32 4t-49 9t-77 5q-88 0 -121 -35t-33 -121v-82h148q40 0 40 -102t-39 -102h-149v-722q0 -40 -114 -40t-132 22q-6 8 -5 18v722h-112q-38 0 -38 92
q-1 92 21 107q8 5 18 5h111v77q-1 275 193 341q68 22 128 22zM779 -365q-86 0 -86 28q0 10 4 24l57 190q7 24 34 33q28 9 122 9t92 -34q0 -11 -8 -25l-98 -190q-15 -30 -50 -32q-35 -3 -67 -3z" />
    <glyph glyph-name="f_t.liga" unicode="ft" horiz-adv-x="1302" 
d="M1219 214q28 0 28 -87t-20 -105.5t-108 -39t-222.5 26t-134.5 290.5v457h-336v-722q0 -40 -114.5 -40t-125.5 15t-11 25v722h-112q-38 0 -38 92t14.5 102t24.5 10h111v75q0 275 115 320t175 45t97.5 -7t60.5 -16.5t30 -30.5t7 -95.5t-17 -74.5t-25.5 3.5t-32 11
t-53.5 7.5q-58 0 -83 -36.5t-25 -119.5v-82h338v199q0 42 126 42t125 -42v-199h194q40 0 40 -102t-39 -102h-195v-419q0 -73 22.5 -109.5t69.5 -36.5t77 11.5t37 11.5z" />
    <glyph glyph-name="f_uni021B.liga" unicode="f&#x21b;" horiz-adv-x="1302" 
d="M1219 214q28 0 28 -87t-15 -101q-24 -24 -72 -34q-128 -30 -237 7q-161 56 -161 300v457h-336v-722q0 -40 -114 -40t-132 22q-6 8 -5 18v722h-112q-38 0 -38 92q-1 92 21 107q8 5 18 5h111v75q0 275 171 342q59 23 119 23q59 0 97 -7t56 -14q29 -12 35 -33q7 -21 7 -96
q0 -74 -28 -74q-6 0 -14 4t-32 10q-23 8 -54 8q-58 0 -83 -37t-25 -119v-82h338v199q0 42 126 42t125 -42v-199h194q40 0 40 -102t-39 -102h-195v-419q1 -73 23 -109t69 -37t77 11t37 12zM896 -365q-86 0 -86 28q0 10 4 24l57 190q7 24 34 33q28 9 122 9q93 0 91 -34
q0 -11 -7 -25l-98 -190q-15 -30 -50 -32q-35 -3 -67 -3z" />
    <glyph glyph-name="f_tcaron.liga" unicode="f&#x165;" horiz-adv-x="1349" 
d="M1219 214q28 0 28 -87t-15 -101q-24 -24 -72 -34q-128 -30 -237 7q-161 56 -161 300v457h-336v-722q0 -40 -114 -40t-132 22q-6 8 -5 18v722h-112q-38 0 -38 92q-1 92 21 107q8 5 18 5h111v75q0 275 171 342q59 23 119 23q59 0 97 -7t56 -14q29 -12 35 -33q7 -21 7 -96
q0 -74 -28 -74q-6 0 -14 4t-32 10q-23 8 -54 8q-58 0 -83 -37t-25 -119v-82h338v199q0 42 126 42t125 -42v-199h194q40 0 40 -102t-39 -102h-195v-419q1 -73 23 -109t69 -37t77 11t37 12zM1316 1522q66 0 84 -11q19 -11 10 -39l-124 -314q-12 -34 -95 -34q-60 0 -72 10
t-6 36l78 305q12 47 125 47z" />
    <glyph glyph-name="f_f_t.liga" unicode="fft" horiz-adv-x="1886" 
d="M1802 214q28 0 28 -87t-20 -105.5t-108 -39t-222.5 26t-134.5 290.5v457h-337v-722q0 -40 -114 -40t-125.5 15t-11.5 25v722h-331v-722q0 -40 -114.5 -40t-125.5 15t-11 25v722h-112q-38 0 -38 92t14.5 102t24.5 10h111v64q0 275 116 320t177 45t97 -7.5t59.5 -16
t31.5 -31t8 -96t-28 -73.5q-7 0 -15.5 3.5t-32 11t-54.5 7.5q-58 0 -83 -35.5t-25 -120.5v-71h331v77q0 277 115.5 321t175.5 44t95 -6.5t60 -15.5t32 -30.5t7 -65.5t-2 -61.5t-5.5 -27t-9 -12.5t-11.5 -3t-14.5 3t-30 10t-53.5 7q-60 0 -84.5 -35t-24.5 -120v-85h338v199
q-1 42 125 42t126 -42v-199h194q40 0 40 -102t-39 -102h-195v-419q0 -73 22.5 -109.5t71.5 -36.5t77 11.5t35 11.5z" />
    <glyph glyph-name="t_f.liga" unicode="tf" horiz-adv-x="1296" 
d="M23 858q0 102 40 102h106v199q-1 42 125 42t126 -42v-199h403v75q0 275 116 320t176 45t95.5 -6.5t61 -16.5t33 -32.5t7.5 -95.5t-27 -73q-7 0 -36.5 11t-63.5 11q-62 0 -86.5 -36.5t-24.5 -119.5v-82h163q40 0 40 -102t-39 -102h-164v-722q0 -40 -114 -40t-125.5 15
t-11.5 25v722h-403v-419q0 -73 23 -109.5t72 -36.5t76.5 11.5t34.5 11.5q28 0 28 -86t-29.5 -117t-173.5 -31q-142 0 -212 77t-70 242v457h-107q-39 0 -39 102z" />
    <glyph glyph-name="t_i.liga" unicode="ti" horiz-adv-x="1199" 
d="M23 858q0 102 40 102h106v199q-1 42 125 42t126 -42v-199h577q75 0 75 -70v-856q0 -40 -114 -40t-131 22q-6 8 -6 18v722h-401v-419q0 -73 23 -109t72 -37t76 11q28 12 35 12q28 0 28 -85t-14 -101q-41 -48 -189 -48q-142 0 -212 77t-70 242v457h-107q-39 0 -39 102z
M1092 1226q0 -74 -31 -103t-115 -29t-114 28t-30 102t30 104t116 30q84 0 114 -28q30 -30 30 -104z" />
    <glyph glyph-name="t_igrave.liga" unicode="t&#xec;" horiz-adv-x="1199" 
d="M23 858q0 102 40 102h106v199q-1 42 125 42t126 -42v-199h577q75 0 75 -70v-856q0 -40 -114 -40t-131 22q-6 8 -6 18v722h-401v-419q0 -73 23 -109t72 -37t76 11q28 12 35 12q28 0 28 -85t-14 -101q-41 -48 -189 -48q-142 0 -212 77t-70 242v457h-107q-39 0 -39 102z
M885 1090q-24 7 -40 28l-193 232q-50 54 104 54q71 0 98 -8q26 -8 44 -32l143 -229q19 -28 8 -37q-20 -15 -80 -15t-84 7z" />
    <glyph glyph-name="t_iacute.liga" unicode="t&#xed;" horiz-adv-x="1199" 
d="M23 858q0 102 40 102h106v199q-1 42 125 42t126 -42v-199h577q75 0 75 -70v-856q0 -40 -114 -40t-131 22q-6 8 -6 18v722h-401v-419q0 -73 23 -109t72 -37t76 11q28 12 35 12q28 0 28 -85t-14 -101q-41 -48 -189 -48q-142 0 -212 77t-70 242v457h-107q-39 0 -39 102z
M1111 1404q124 0 121 -33q-1 -10 -10 -21l-194 -232q-23 -28 -55 -32q-32 -3 -64 -3q-66 0 -81 12t4 40l143 229q21 33 80 38q23 2 56 2z" />
    <glyph glyph-name="t_icircumflex.liga" unicode="t&#xee;" horiz-adv-x="1199" 
d="M23 858q0 102 40 102h106v199q-1 42 125 42t126 -42v-199h577q75 0 75 -70v-856q0 -40 -114 -40t-131 22q-6 8 -6 18v722h-401v-419q0 -73 23 -109t72 -37t76 11q28 12 35 12q28 0 28 -85t-14 -101q-41 -48 -189 -48q-142 0 -212 77t-70 242v457h-107q-39 0 -39 102z
M627 1097q-13 14 17 52l158 223q16 26 58 29t74 3q100 0 128 -32l157 -223q29 -39 16 -52q-13 -14 -66 -14q-82 0 -101 6q-18 6 -32 29l-104 150l-104 -150q-15 -23 -30 -28q-25 -7 -92 -7q-66 0 -79 14z" />
    <glyph glyph-name="t_idieresis.liga" unicode="t&#xef;" horiz-adv-x="1199" 
d="M23 858q0 102 40 102h106v199q-1 42 125 42t126 -42v-199h577q75 0 75 -70v-856q0 -40 -114 -40t-131 22q-6 8 -6 18v722h-401v-419q0 -73 23 -109t72 -37t76 11q28 12 35 12q28 0 28 -85t-14 -101q-41 -48 -189 -48q-142 0 -212 77t-70 242v457h-107q-39 0 -39 102z
M1229 1226q0 -68 -26 -96q-27 -28 -97 -28t-94 26t-25 96q-1 68 25 96t96 28t96 -26q25 -26 25 -96zM893 1226q0 -68 -26 -96q-27 -28 -97 -28t-95 26t-25 96q0 68 26 96t96 28t96 -26q25 -26 25 -96z" />
    <glyph glyph-name="t_imacron.liga" unicode="t&#x12b;" horiz-adv-x="1199" 
d="M23 858q0 102 40 102h106v199q-1 42 125 42t126 -42v-199h577q75 0 75 -70v-856q0 -40 -114 -40t-131 22q-6 8 -6 18v722h-401v-419q0 -73 23 -109t72 -37t76 11q28 12 35 12q28 0 28 -85t-14 -101q-41 -48 -189 -48q-142 0 -212 77t-70 242v457h-107q-39 0 -39 102z
M1193 1323q23 1 30 -15t9 -34t2 -43q0 -48 -9 -69q-9 -22 -32 -22h-510q-44 0 -44 79q0 62 10 83t34 21h510z" />
    <glyph glyph-name="t_itilde.liga" unicode="t&#x129;" horiz-adv-x="1199" 
d="M23 858q0 102 40 102h106v199q-1 42 125 42t126 -42v-199h577q75 0 75 -70v-856q0 -40 -114 -40t-131 22q-6 8 -6 18v722h-401v-419q0 -73 23 -109t72 -37t76 11q28 12 35 12q28 0 28 -85t-14 -101q-41 -48 -189 -48q-142 0 -212 77t-70 242v457h-107q-39 0 -39 102z
M1067 1263q62 0 62 85q0 16 15 22q14 6 60 6t62 -8t17 -32q1 -122 -57 -186t-144 -64t-124 21t-58 35t-50 36q-30 21 -61 21q-61 0 -61 -85q0 -18 -15 -23t-50 -5q-59 0 -74 8t-15 33q0 117 56 183t151 66t175 -56q30 -22 57 -40q26 -18 54 -17z" />
    <glyph glyph-name="t_ibreve.liga" unicode="t&#x12d;" horiz-adv-x="1199" 
d="M23 858q0 102 40 102h106v199q-1 42 125 42t126 -42v-199h577q75 0 75 -70v-856q0 -40 -114 -40t-131 22q-6 8 -6 18v722h-401v-419q0 -73 23 -109t72 -37t76 11q28 12 35 12q28 0 28 -85t-14 -101q-41 -48 -189 -48q-142 0 -212 77t-70 242v457h-107q-39 0 -39 102z
M644 1363q0 37 70 37q62 0 79 -9t20 -33q12 -114 106 -114q74 0 105 29q32 29 36 88q4 39 79 39t85 -19q4 -7 3 -16q1 -279 -291 -279t-292 277z" />
    <glyph glyph-name="t_iogonek.liga" unicode="t&#x12f;" horiz-adv-x="1199" 
d="M1091 1226q0 -36 -6.5 -62t-23 -41.5t-44.5 -22t-91 -6.5t-93.5 28t-30.5 84t6.5 81t23.5 41t45 23t70 7t70 -7t44.5 -23t23 -41t6.5 -61zM23 858q0 102 40 102h106v199q-1 42 125 42t126 -42v-199h573q45 0 62 -18t17 -57v-850q0 -34 -26 -60l-58 -59q-43 -40 -43 -75
q0 -41 62 -41h83q30 0 32.5 -21t2.5 -41q0 -38 -7.5 -55.5t-54.5 -32.5t-121 -15q-239 0 -239 163q0 84 75 159l43 43v756h-401v-419q0 -73 23 -109.5t72 -36.5t76.5 11.5t34.5 11.5q28 0 28 -85t-28.5 -117t-174.5 -32q-142 0 -212 77t-70 242v457h-107q-39 0 -39 102z" />
    <glyph glyph-name="t_dotlessi.liga" unicode="t&#x131;" horiz-adv-x="1199" 
d="M23 858q0 102 40 102h106v199q-1 42 125 42t126 -42v-199h577q75 0 75 -70v-856q0 -40 -114 -40t-125.5 15t-11.5 25v722h-401v-419q0 -73 23 -109.5t72 -36.5t76.5 11.5t34.5 11.5q28 0 28 -85t-27.5 -117t-175.5 -32q-142 0 -212 77t-70 242v457h-107q-39 0 -39 102z
" />
    <glyph glyph-name="t_t.liga" unicode="tt" horiz-adv-x="1344" 
d="M1260 214q28 0 28 -85t-30 -117t-172 -32q-143 0 -213 77t-70 242v457h-383v-419q0 -73 23 -109.5t72 -36.5t76.5 11.5t34.5 11.5q28 0 28 -89t-34.5 -117t-134.5 -28t-208 37.5t-108 281.5v457h-107q-39 0 -39 102t40 102h106v199q-1 42 125 42t126 -42v-199h383v247
q0 22 28.5 32t96.5 10q126 0 126 -42v-247h194q40 0 40 -102t-39 -102h-195v-419q0 -73 22.5 -109.5t69.5 -36.5t77 11.5t37 11.5z" />
    <glyph glyph-name="t_t_f.liga" unicode="ttf" horiz-adv-x="1930" 
d="M928 1249q126 0 126 -42v-247h403v75q0 275 115.5 320t175.5 45t96 -7t61.5 -16t33 -30t7.5 -96t-28 -75q-7 0 -15.5 3.5t-32 11t-53.5 7.5q-59 0 -84 -36.5t-25 -119.5v-82h163q39 0 39 -102t-39 -102h-163v-722q0 -40 -114 -40t-125.5 15t-11.5 25v722h-403v-419
q0 -73 22.5 -109.5t69.5 -36.5t77 11.5t37 11.5q28 0 28 -84t-18 -105t-107.5 -42.5t-224.5 25.5t-135 291v457h-383v-419q0 -73 23 -109.5t72 -36.5t76.5 11.5t34.5 11.5q28 0 28 -85t-17.5 -105t-107.5 -41.5t-225 25.5t-135 291v457h-107q-39 0 -39 102t40 102h106v199
q-1 42 125 42t126 -42v-199h383v247q0 22 28.5 32t96.5 10z" />
    <glyph glyph-name="t_t_i.liga" unicode="tti" horiz-adv-x="1832" 
d="M1260 214q28 0 28 -87t-15 -101q-25 -24 -73 -34q-128 -30 -236 7q-161 56 -161 300v457h-383v-419q0 -73 23 -109t72 -37t76 11q28 12 35 12q28 0 28 -87t-15 -101q-49 -46 -188 -46q-142 0 -212 77t-70 242v457h-107q-39 0 -39 102t40 102h106v199q-1 42 125 42
t126 -42v-199h383v247q0 22 20 29q37 13 105 13q126 0 126 -42v-247h576q76 0 76 -70v-856q0 -40 -114 -40t-131 22q-6 8 -6 18v722h-401v-419q0 -73 22 -109t70 -37q47 -1 77 11t37 12zM1726 1226q0 -74 -31 -103t-115 -29t-114 28t-30 102t30 104t116 30q84 0 114 -28
q30 -30 30 -104z" />
    <glyph glyph-name="t_t_igrave.liga" unicode="tt&#xec;" horiz-adv-x="1832" 
d="M1260 214q28 0 28 -87t-15 -101q-25 -24 -73 -34q-128 -30 -236 7q-161 56 -161 300v457h-383v-419q0 -73 23 -109t72 -37t76 11q28 12 35 12q28 0 28 -87t-15 -101q-49 -46 -188 -46q-142 0 -212 77t-70 242v457h-107q-39 0 -39 102t40 102h106v199q-1 42 125 42
t126 -42v-199h383v247q0 22 20 29q37 13 105 13q126 0 126 -42v-247h576q76 0 76 -70v-856q0 -40 -114 -40t-131 22q-6 8 -6 18v722h-401v-419q0 -73 22 -109t70 -37q47 -1 77 11t37 12zM1520 1090q-24 7 -40 28l-193 232q-49 54 105 54q71 0 97 -8t44 -32l143 -229
q19 -28 8 -37q-20 -15 -80 -15t-84 7z" />
    <glyph glyph-name="t_t_iacute.liga" unicode="tt&#xed;" horiz-adv-x="1832" 
d="M1260 214q28 0 28 -87t-15 -101q-25 -24 -73 -34q-128 -30 -236 7q-161 56 -161 300v457h-383v-419q0 -73 23 -109t72 -37t76 11q28 12 35 12q28 0 28 -87t-15 -101q-49 -46 -188 -46q-142 0 -212 77t-70 242v457h-107q-39 0 -39 102t40 102h106v199q-1 42 125 42
t126 -42v-199h383v247q0 22 20 29q37 13 105 13q126 0 126 -42v-247h576q76 0 76 -70v-856q0 -40 -114 -40t-131 22q-6 8 -6 18v722h-401v-419q0 -73 22 -109t70 -37q47 -1 77 11t37 12zM1745 1404q124 0 121 -33q-1 -10 -10 -21l-194 -232q-23 -28 -55 -32q-32 -3 -64 -3
q-66 0 -81 12t4 40l143 229q21 33 80 38q23 2 56 2z" />
    <glyph glyph-name="t_t_icircumflex.liga" unicode="tt&#xee;" horiz-adv-x="1832" 
d="M1260 214q28 0 28 -87t-15 -101q-25 -24 -73 -34q-128 -30 -236 7q-161 56 -161 300v457h-383v-419q0 -73 23 -109t72 -37t76 11q28 12 35 12q28 0 28 -87t-15 -101q-49 -46 -188 -46q-142 0 -212 77t-70 242v457h-107q-39 0 -39 102t40 102h106v199q-1 42 125 42
t126 -42v-199h383v247q0 22 20 29q37 13 105 13q126 0 126 -42v-247h576q76 0 76 -70v-856q0 -40 -114 -40t-131 22q-6 8 -6 18v722h-401v-419q0 -73 22 -109t70 -37q47 -1 77 11t37 12zM1260 1097q-13 14 17 52l158 223q16 26 58 29q41 3 73 3q101 0 129 -32l157 -223
q29 -39 16 -52q-13 -14 -66 -14q-82 0 -101 6q-18 6 -32 29l-104 150l-104 -150q-15 -23 -30 -28q-25 -7 -92 -7q-66 0 -79 14z" />
    <glyph glyph-name="t_t_idieresis.liga" unicode="tt&#xef;" horiz-adv-x="1832" 
d="M1260 214q28 0 28 -87t-15 -101q-25 -24 -73 -34q-128 -30 -236 7q-161 56 -161 300v457h-383v-419q0 -73 23 -109t72 -37t76 11q28 12 35 12q28 0 28 -87t-15 -101q-49 -46 -188 -46q-142 0 -212 77t-70 242v457h-107q-39 0 -39 102t40 102h106v199q-1 42 125 42
t126 -42v-199h383v247q0 22 20 29q37 13 105 13q126 0 126 -42v-247h576q76 0 76 -70v-856q0 -40 -114 -40t-131 22q-6 8 -6 18v722h-401v-419q0 -73 22 -109t70 -37q47 -1 77 11t37 12zM1863 1226q0 -68 -26 -96q-27 -28 -97 -28t-94 26t-25 96q-1 68 25 96t96 28t96 -26
q25 -26 25 -96zM1527 1226q0 -68 -26 -96q-27 -28 -97 -28t-95 26t-25 96q0 68 26 96t96 28t96 -26q25 -26 25 -96z" />
    <glyph glyph-name="t_t_imacron.liga" unicode="tt&#x12b;" horiz-adv-x="1832" 
d="M1260 214q28 0 28 -87t-15 -101q-25 -24 -73 -34q-128 -30 -236 7q-161 56 -161 300v457h-383v-419q0 -73 23 -109t72 -37t76 11q28 12 35 12q28 0 28 -87t-15 -101q-49 -46 -188 -46q-142 0 -212 77t-70 242v457h-107q-39 0 -39 102t40 102h106v199q-1 42 125 42
t126 -42v-199h383v247q0 22 20 29q37 13 105 13q126 0 126 -42v-247h576q76 0 76 -70v-856q0 -40 -114 -40t-131 22q-6 8 -6 18v722h-401v-419q0 -73 22 -109t70 -37q47 -1 77 11t37 12zM1827 1323q23 1 30 -15t9 -34t2 -43q0 -48 -9 -69q-9 -22 -32 -22h-510q-44 0 -44 79
q0 62 10 83t34 21h510z" />
    <glyph glyph-name="t_t_itilde.liga" unicode="tt&#x129;" horiz-adv-x="1832" 
d="M1260 214q28 0 28 -87t-15 -101q-25 -24 -73 -34q-128 -30 -236 7q-161 56 -161 300v457h-383v-419q0 -73 23 -109t72 -37t76 11q28 12 35 12q28 0 28 -87t-15 -101q-49 -46 -188 -46q-142 0 -212 77t-70 242v457h-107q-39 0 -39 102t40 102h106v199q-1 42 125 42
t126 -42v-199h383v247q0 22 20 29q37 13 105 13q126 0 126 -42v-247h576q76 0 76 -70v-856q0 -40 -114 -40t-131 22q-6 8 -6 18v722h-401v-419q0 -73 22 -109t70 -37q47 -1 77 11t37 12zM1701 1263q62 0 62 85q0 16 15 22q14 6 60 6t62 -8t17 -32q1 -122 -57 -186t-144 -64
t-124 21t-58 35t-50 36q-30 21 -61 21q-61 0 -61 -85q0 -18 -15 -23t-50 -5q-58 0 -74 8q-15 8 -15 33q0 117 56 183t151 66t175 -56q30 -22 57 -40q26 -18 54 -17z" />
    <glyph glyph-name="t_t_ibreve.liga" unicode="tt&#x12d;" horiz-adv-x="1832" 
d="M1260 214q28 0 28 -87t-15 -101q-25 -24 -73 -34q-128 -30 -236 7q-161 56 -161 300v457h-383v-419q0 -73 23 -109t72 -37t76 11q28 12 35 12q28 0 28 -87t-15 -101q-49 -46 -188 -46q-142 0 -212 77t-70 242v457h-107q-39 0 -39 102t40 102h106v199q-1 42 125 42
t126 -42v-199h383v247q0 22 20 29q37 13 105 13q126 0 126 -42v-247h576q76 0 76 -70v-856q0 -40 -114 -40t-131 22q-6 8 -6 18v722h-401v-419q0 -73 22 -109t70 -37q47 -1 77 11t37 12zM1279 1363q1 37 71 37q62 0 78 -9q17 -9 20 -33q12 -114 106 -114q74 0 105 29
q32 29 36 88q4 39 79 39q74 0 84 -19q4 -7 4 -16q0 -279 -292 -279t-291 277z" />
    <glyph glyph-name="t_t_iogonek.liga" unicode="tt&#x12f;" horiz-adv-x="1832" 
d="M1695 1122q-30 -28 -93 -28q-106 0 -136 28t-30 84q0 93 30 122.5t94 29.5q63 0 91 -7t51 -29.5t23 -96.5q0 -75 -30 -103zM1630 960q76 0 76 -70v-855q0 -34 -26 -60l-59 -59q-42 -42 -42 -75q0 -41 62 -41h83q21 0 28 -11.5t7 -40.5q0 -48 -7.5 -65.5t-55.5 -32.5
t-121 -15q-239 0 -239 163q0 83 76 159l43 43v756h-401v-419q0 -73 22.5 -109.5t69.5 -36.5t77 11.5t37 11.5q28 0 28 -87t-20 -105.5t-108 -39t-222.5 26t-134.5 290.5v457h-383v-419q0 -73 23 -109.5t72 -36.5t76.5 11.5t34.5 11.5q28 0 28 -87t-32 -117t-171 -30
q-142 0 -212 77t-70 242v457h-107q-39 0 -39 102t40 102h106v199q-1 42 125 42t126 -42v-199h383v247q0 22 28.5 32t96.5 10q126 0 126 -42v-247h576z" />
    <glyph glyph-name="t_t_dotlessi.liga" unicode="tt&#x131;" horiz-adv-x="1832" 
d="M1260 214q28 0 28 -87t-20 -105.5t-108 -39t-222.5 26t-134.5 290.5v457h-383v-419q0 -73 23 -109.5t72 -36.5t76.5 11.5t34.5 11.5q28 0 28 -87t-32 -117t-171 -30q-142 0 -212 77t-70 242v457h-107q-39 0 -39 102t40 102h106v199q-1 42 125 42t126 -42v-199h383v247
q0 22 28.5 32t96.5 10q126 0 126 -42v-247h576q76 0 76 -70v-856q0 -40 -114 -40t-125.5 15t-11.5 25v722h-401v-419q0 -73 22.5 -109.5t69.5 -36.5t77 11.5t37 11.5z" />
    <glyph glyph-name="f_uni1EC9.liga" unicode="f&#x1ec9;" horiz-adv-x="1135" 
d="M932 960q76 0 76 -69v-857q0 -40 -114 -40t-131 22q-6 8 -6 18v722h-331v-722q0 -40 -114 -40t-132 22q-6 8 -5 18v722h-112q-38 0 -38 92q-1 92 21 107q8 5 18 5h111v77q0 363 310 363q148 0 165 -54q7 -22 7 -75q1 -53 -5 -73t-22 -20q-6 0 -15 3q-51 17 -99 17
q-90 0 -90 -156v-82h506zM745 1354q-36 0 -36 82q0 42 96 68q32 8 76 9q91 0 141 -52q51 -52 51 -126q0 -148 -129 -178q-2 -24 -2 -48q-4 -49 -75 -49q-42 0 -59 11t-17 39l-2 93q-1 39 18 49t55 9h9q42 1 42 67t-51 66q-29 0 -65 -20q-35 -20 -52 -20z" />
    <glyph glyph-name="f_uni1ECB.liga" unicode="f&#x1ecb;" horiz-adv-x="1135" 
d="M932 960q76 0 76 -69v-857q0 -40 -114 -40t-131 22q-6 8 -6 18v722h-331v-722q0 -40 -114 -40t-132 22q-6 8 -5 18v722h-112q-38 0 -38 92q-1 92 21 107q8 5 18 5h111v79q0 275 171 341q58 22 108 22t74 -2q22 -2 42 -6t35 -9t21 -11q20 -20 19 -84q1 -66 -5 -86t-22 -19
q-7 -1 -33 7t-69 8q-90 0 -90 -155v-85h506zM1027 1226q-1 -36 -7 -62t-22 -42t-44 -22t-68 -6q-83 0 -113 28t-30 84q1 56 7 81t22 41t45 23q28 7 69 7q40 0 68 -7t44 -23t22 -41t7 -61zM1023 -207q-1 -35 -7 -59t-22 -40t-43 -22t-67 -6q-79 0 -108 27q-30 27 -30 79
q0 54 7 78t23 39t43 21t67 7q40 -1 66 -7t42 -20t22 -38t7 -59z" />
    <glyph glyph-name="f_f_uni1EC9.liga" unicode="ff&#x1ec9;" horiz-adv-x="1718" 
d="M1466 -6q-126 0 -126 40v722h-332v-722q0 -40 -114 -40t-131 22q-6 8 -6 18v722h-331v-722q0 -40 -114 -40t-132 22q-6 8 -5 18v722h-112q-38 0 -38 92q-1 92 21 107q8 5 18 5h111v66q0 363 311 363q77 0 114 -14q37 -15 44 -21q8 -6 14 -24t6 -91t-28 -73q-7 0 -16 3
l-21 7q-33 11 -78 11q-95 0 -95 -156v-71h331v79q-1 275 173 341q58 22 120 22q60 0 96 -7t52 -13q28 -11 35 -34q7 -22 7 -75t-6 -73t-21 -19q-7 0 -15 3q-45 16 -97 16q-93 0 -93 -155v-85h507q77 0 77 -69v-857q0 -21 -20 -28q-36 -12 -106 -12zM1332 1354q-36 0 -36 82
q0 42 96 68q32 8 76 9q91 0 141 -52q51 -52 51 -126q0 -148 -129 -178q-2 -24 -2 -48q-4 -49 -75 -49q-42 0 -59 11t-17 39l-2 93q-1 39 18 49t55 9h9q42 1 42 67t-51 66q-29 0 -65 -20q-35 -20 -52 -20z" />
    <glyph glyph-name="f_f_uni1ECB.liga" unicode="ff&#x1ecb;" horiz-adv-x="1718" 
d="M1466 -6q-126 0 -126 40v722h-332v-722q0 -40 -114 -40t-131 22q-6 8 -6 18v722h-331v-722q0 -40 -114 -40t-132 22q-6 8 -5 18v722h-112q-38 0 -38 92q-1 92 21 107q8 5 18 5h111v66q0 363 311 363q75 0 113 -14q38 -15 45 -21q8 -6 14 -24t6 -91t-28 -73q-7 0 -16 3
q-54 18 -100 18q-94 0 -94 -156v-71h331v79q0 275 172 341q58 22 108 22q49 0 73 -2t44 -6t34 -9t20 -11q20 -20 20 -84q0 -66 -6 -86t-21 -19q-7 -1 -33 7t-69 8q-91 0 -91 -155v-85h507q77 0 77 -69v-857q0 -21 -20 -28q-36 -12 -106 -12zM1581 1122q-30 -28 -92 -28
q-103 0 -133 28q-30 29 -31 85q0 92 31 121q31 30 92 30q62 0 90 -7t44 -23q30 -29 29 -103q0 -75 -30 -103zM1606 -207q0 -35 -6 -59t-23 -40q-16 -16 -43 -22t-67 -6q-79 0 -108 27q-30 27 -30 79q0 54 7 78t23 39t43 21t67 7q41 -1 67 -7t42 -20t22 -38t6 -59z" />
    <glyph glyph-name="f_uni01D0.liga" unicode="f&#x1d0;" horiz-adv-x="1151" 
d="M1176 1392q10 -12 -15 -54l-131 -223q-12 -20 -41 -26t-114.5 -6t-104.5 32l-133 223q-25 42 -13.5 54t64.5 12q86 0 103.5 -6t29.5 -28l77 -151l79 151q20 29 51 31.5t84 2.5q54 0 64 -12zM872 -6q-98 0 -98 40v722h-348v-722q0 -21 -20.5 -28t-44.5 -9.5t-77.5 -2.5
t-81 9.5t-27.5 30.5v722h-112q-38 0 -38 102t39 102h111v75q0 365 303 365q70 0 92 -21t22 -78q0 -82 -5.5 -96.5t-18.5 -14.5l-54 8q-43 0 -65.5 -32.5t-22.5 -111.5v-94h474q102 0 114 -15t12 -25v-886q0 -21 -28 -30.5t-126 -9.5z" />
    <glyph glyph-name="f_uni0209.liga" unicode="f&#x209;" horiz-adv-x="1220" 
d="M796 1073.5q-24 7.5 -40 27.5l-193 232q-21 25 2 39.5t82 14.5q91 0 117.5 -8t44.5 -32l143 -229q18 -29 4 -40.5t-75 -11.5t-85 7.5zM1138.5 1073.5q-23.5 7.5 -39.5 27.5l-193 232q-21 25 2 39.5t82 14.5q91 0 117.5 -8t44.5 -32l143 -229q18 -29 4 -40.5t-75 -11.5
q-62 0 -85.5 7.5zM872 -6q-98 0 -98 40v722h-348v-722q0 -21 -20.5 -28t-44.5 -9.5t-77.5 -2.5t-81 9.5t-27.5 30.5v722h-112q-38 0 -38 102t39 102h111v75q0 177 71.5 271t185.5 94q64 0 82 -17t18 -78q0 -86 -3.5 -100.5t-17.5 -14.5l-20 1q-61 0 -63 -55t-2 -82v-94h477
q123 0 123 -40v-886q0 -21 -28 -30.5t-126 -9.5z" />
    <glyph glyph-name="f_uni020B.liga" unicode="f&#x20b;" horiz-adv-x="1151" 
d="M623 1146q0 34 35.5 144t243.5 110t241 -109.5t33 -167.5q0 -20 -17 -28.5t-67 -8.5t-67 9t-19 33q-6 58 -26.5 86t-78.5 28t-82.5 -28t-28.5 -89q-4 -39 -79 -39t-81.5 13t-6.5 47zM872 -6q-98 0 -98 40v722h-348v-722q0 -21 -20.5 -28t-44.5 -9.5t-77.5 -2.5t-81 9.5
t-27.5 30.5v722h-112q-38 0 -38 102t39 102h111v75q0 184 74 274.5t229 90.5q70 0 92 -21t22 -78q0 -82 -5.5 -96.5t-18.5 -14.5l-54 8q-43 0 -65.5 -32.5t-22.5 -111.5v-94h474q102 0 114 -15t12 -25v-886q0 -21 -28 -30.5t-126 -9.5z" />
    <glyph glyph-name="f_uni1E2D.liga" unicode="f&#x1e2d;" horiz-adv-x="1135" 
d="M932 960q76 0 76 -69v-857q0 -40 -114 -40t-131 22q-6 8 -6 18v722h-331v-722q0 -40 -114 -40t-132 22q-6 8 -5 18v722h-112q-38 0 -38 92q-1 92 21 107q8 5 18 5h111v79q0 275 171 341q58 22 108 22t74 -2q22 -2 42 -6t35 -9t21 -11q20 -20 19 -84q1 -66 -5 -86t-22 -19
q-7 -1 -33 7t-69 8q-90 0 -90 -155v-85h506zM1027 1226q-1 -36 -7 -62t-22 -42t-44 -22t-68 -6q-83 0 -113 28t-30 84q1 56 7 81t22 41t45 23q28 7 69 7q40 0 68 -7t44 -23t22 -41t7 -61zM1020 -226q62 0 62 85q0 17 15 23t61 5q46 1 62 -7t16 -33q0 -121 -58 -185t-143 -65
q-86 0 -124 21q-39 22 -59 36t-49 35q-30 21 -61 21q-61 0 -61 -85q0 -18 -15 -23t-50 -5q-59 0 -74 8t-15 33q0 116 56 182t151 67q96 -1 176 -57q30 -22 56 -38q26 -18 54 -18z" />
    <glyph glyph-name="f_uni1E2F.liga" unicode="f&#x1e2f;" horiz-adv-x="1151" 
d="M872 -6q-98 0 -98 40v722h-348v-722q0 -21 -20.5 -28t-44.5 -9.5t-77.5 -2.5t-81 9.5t-27.5 30.5v722h-112q-38 0 -38 102t39 102h111v75q0 184 74 274.5t229 90.5q70 0 92 -21t22 -78q0 -82 -5.5 -96.5t-18.5 -14.5l-54 8q-43 0 -65.5 -32.5t-22.5 -111.5v-94h474
q102 0 114 -15t12 -25v-886q0 -21 -28 -30.5t-126 -9.5zM1232 1226q0 -69 -27 -96.5t-101 -27.5t-100 26t-26 96t27 97t101 27t100 -26.5t26 -95.5zM891 1226q0 -69 -26.5 -96.5t-100.5 -27.5t-100.5 26t-26.5 96t27.5 97t101.5 27t99.5 -26.5t25.5 -95.5zM836 1404
q0 10 13 29l118 186q16 25 39 32.5t78 7.5q95 0 113 -14t-3 -40l-169 -189q-17 -22 -34.5 -28.5t-86.5 -6.5q-68 0 -68 23z" />
    <glyph glyph-name="f_uni0268.liga" unicode="f&#x268;" horiz-adv-x="1174" 
d="M1135 599q39 1 39 -79t-22 -90q-8 -4 -17 -4h-127v-392q0 -40 -114 -40t-131 22q-6 8 -6 18v392h-128q-21 0 -30 17t-9 70q0 86 39 86h128v157h-331v-722q0 -40 -114 -40t-132 22q-6 8 -5 18v722h-112q-38 0 -38 92q-1 92 21 107q8 5 18 5h111v79q0 275 171 341
q58 22 108 22t74 -2q22 -2 42 -6t35 -9t21 -11q20 -20 19 -84q1 -66 -5 -86t-22 -19q-7 -1 -33 7t-69 8q-90 0 -90 -155v-85h506q76 0 76 -69v-292h127zM1027 1226q-1 -36 -7 -62t-22 -42t-44 -22t-68 -6q-83 0 -113 28t-30 84q1 56 7 81t22 41t45 23q28 7 69 7q40 0 68 -7
t44 -23t22 -41t7 -61z" />
    <glyph glyph-name="f_f_uni01D0.liga" unicode="ff&#x1d0;" horiz-adv-x="1717" 
d="M1438 -6q-98 0 -98 40v722h-332v-722q0 -40 -114 -40t-125.5 15t-11.5 25v722h-331v-722q0 -40 -114 -40t-125.5 15t-11.5 25v722h-112q-38 0 -38 92t14.5 102t24.5 10h111v66q0 363 311 363q77 0 114 -14t44 -20.5t13.5 -24.5t6.5 -91t-28 -73q-7 0 -10 1l-31 11
q-29 9 -74 9q-95 0 -95 -156v-71h331v79q0 274 101.5 318.5t154.5 44.5t84 -7t50 -16t25.5 -31.5t6.5 -94.5t-20 -72q-4 0 -24.5 9.5t-57.5 9.5q-69 0 -69 -155v-85h507q77 0 77 -69v-857q0 -21 -28 -30.5t-126 -9.5zM1748 1392q10 -12 -15 -54l-131 -223q-12 -20 -41 -26
t-114.5 -6t-104.5 32l-133 223q-25 42 -13.5 54t64.5 12q86 0 103.5 -6t29.5 -28l77 -151l79 151q20 29 51 31.5t84 2.5q54 0 64 -12z" />
    <glyph glyph-name="f_f_uni0209.liga" unicode="ff&#x209;" horiz-adv-x="1750" 
d="M1648 1073.5q-24 7.5 -40 27.5l-193 232q-21 25 2 39.5t82 14.5q91 0 117.5 -8t44.5 -32l143 -229q18 -29 4 -40.5t-75 -11.5t-85 7.5zM1471.5 -6q-98.5 0 -98.5 40v722h-348v-722q0 -21 -20.5 -28t-44.5 -9.5t-77.5 -2.5t-81 9.5t-27.5 30.5v722h-348v-722
q0 -40 -114.5 -40t-125.5 15t-11 25v722h-112q-38 0 -38 92t14.5 102t24.5 10h111v75q0 275 116 320t176 45t95 -6.5t60.5 -16t33.5 -32t8 -96t-28 -73.5q-7 0 -15.5 3.5t-32 11t-54.5 7.5q-58 0 -83 -35.5t-25 -120.5v-82h348v75q0 177 71.5 271t189.5 94q59 0 76 -17
q25 4 65 4q71 0 97.5 -8t44.5 -32l143 -229q18 -29 4 -40.5t-63 -11.5q-74 0 -97.5 7.5t-39.5 27.5l-134 161q0 -64 -7.5 -68t-13.5 -4l-20 1q-61 0 -63 -55t-2 -82v-94h477q123 0 123 -40v-886q0 -21 -27.5 -30.5t-126 -9.5z" />
    <glyph glyph-name="f_f_uni020B.liga" unicode="ff&#x20b;" horiz-adv-x="1717" 
d="M1438 -6q-98 0 -98 40v722h-332v-722q0 -40 -114 -40t-125.5 15t-11.5 25v722h-331v-722q0 -40 -114 -40t-125.5 15t-11.5 25v722h-112q-38 0 -38 92t14.5 102t24.5 10h111v66q0 363 311 363q77 0 114 -14t44 -20.5t13.5 -24.5t6.5 -91t-28 -73q-7 0 -10 1l-31 11
q-29 9 -74 9q-95 0 -95 -156v-71h331v79q0 274 101.5 318.5t154.5 44.5t84 -7t50 -16t25.5 -31.5t6.5 -94.5t-20 -72q-4 0 -24.5 9.5t-57.5 9.5q-69 0 -69 -155v-85h507q77 0 77 -69v-857q0 -21 -28 -30.5t-126 -9.5zM1187 1146q0 34 35.5 144t243.5 110t241 -109.5
t33 -167.5q0 -20 -17 -28.5t-67 -8.5t-67 9t-19 33q-6 58 -26.5 86t-78.5 28t-82.5 -28t-28.5 -89q-4 -39 -79 -39t-81.5 13t-6.5 47z" />
    <glyph glyph-name="f_f_uni1E2D.liga" unicode="ff&#x1e2d;" horiz-adv-x="1718" 
d="M1466 -6q-126 0 -126 40v722h-332v-722q0 -40 -114 -40t-131 22q-6 8 -6 18v722h-331v-722q0 -40 -114 -40t-132 22q-6 8 -5 18v722h-112q-38 0 -38 92q-1 92 21 107q8 5 18 5h111v66q0 363 311 363q75 0 113 -14q38 -15 45 -21q8 -6 14 -24t6 -91t-28 -73q-7 0 -16 3
q-54 18 -100 18q-94 0 -94 -156v-71h331v79q0 275 172 341q58 22 108 22q49 0 73 -2t44 -6t34 -9t20 -11q20 -20 20 -84q0 -66 -6 -86t-21 -19q-7 -1 -33 7t-69 8q-91 0 -91 -155v-85h507q77 0 77 -69v-857q0 -21 -20 -28q-36 -12 -106 -12zM1581 1122q-30 -28 -92 -28
q-103 0 -133 28q-30 29 -31 85q0 92 31 121q31 30 92 30q62 0 90 -7t44 -23q30 -29 29 -103q0 -75 -30 -103zM1603 -226q62 0 62 85q0 17 15 23q14 6 60 5q46 1 62 -7t17 -33q1 -121 -57 -185t-144 -65q-86 0 -124 21q-38 22 -58 36l-50 35t-61 21q-61 0 -61 -85
q0 -18 -15 -23t-50 -5q-58 0 -74 8q-15 8 -15 33q0 116 56 182t151 67q95 -1 175 -57q30 -22 57 -38q26 -18 54 -18z" />
    <glyph glyph-name="f_f_uni1E2F.liga" unicode="ff&#x1e2f;" horiz-adv-x="1717" 
d="M1784 1226q0 -69 -27 -96.5t-101 -27.5t-100 26t-26 96t27 97t101 27t100 -26.5t26 -95.5zM1453 1226q0 -69 -26.5 -96.5t-100.5 -27.5t-100.5 26t-26.5 96t27.5 97t101.5 27t99.5 -26.5t25.5 -95.5zM1388 1404q0 10 13 29l118 186q16 25 39 32.5t78 7.5q95 0 113 -14
t-3 -40l-169 -189q-17 -22 -35 -28.5t-86 -6.5t-68 23zM1438 -6q-98 0 -98 40v722h-332v-722q0 -21 -20.5 -28t-44.5 -9.5t-77.5 -2.5t-81 9.5t-27.5 30.5v722h-331v-722q0 -40 -114.5 -40t-125.5 15t-11 25v722h-112q-38 0 -38 92t14.5 102t24.5 10h111v65q0 275 116 320
t176 45t95 -6.5t60.5 -16t33.5 -32t8 -96t-28 -73.5q-7 0 -15.5 3.5t-32 11t-54.5 7.5q-58 0 -83 -35.5t-25 -120.5v-72h331v75q0 184 74 274.5t229 90.5q70 0 92 -21t22 -78q0 -82 -5.5 -96.5t-18.5 -14.5l-54 8q-43 0 -65.5 -32.5t-22.5 -111.5v-94h458q102 0 114 -15
t12 -25v-886q0 -21 -28 -30.5t-126 -9.5z" />
    <glyph glyph-name="f_f_uni0268.liga" unicode="ff&#x268;" horiz-adv-x="1746" 
d="M1466 -6q-126 0 -126 40v392h-139q-21 0 -30 17t-9 70q0 86 39 86h139v157h-332v-722q0 -40 -114 -40t-131 22q-6 8 -6 18v722h-331v-722q0 -40 -114 -40t-132 22q-6 8 -5 18v722h-112q-38 0 -38 92q-1 92 21 107q8 5 18 5h111v66q0 363 311 363q75 0 113 -14
q38 -15 45 -21q8 -6 14 -24t6 -91t-28 -73q-7 0 -16 3q-54 18 -100 18q-94 0 -94 -156v-71h331v79q0 275 172 341q58 22 108 22q49 0 73 -2t44 -6t34 -9t20 -11q20 -20 20 -84q0 -66 -6 -86t-21 -19q-7 -1 -33 7t-69 8q-91 0 -91 -155v-85h507q77 0 77 -69v-292h115
q39 1 39 -79t-22 -90q-8 -4 -17 -4h-115v-392q0 -21 -20 -28q-36 -12 -106 -12zM1581 1122q-30 -28 -92 -28q-103 0 -133 28q-30 29 -31 85q0 92 31 121q31 30 92 30q62 0 90 -7t44 -23q30 -29 29 -103q0 -75 -30 -103z" />
    <glyph glyph-name="t_uni01D0.liga" unicode="t&#x1d0;" horiz-adv-x="1199" 
d="M23 858q0 102 40 102h106v199q-1 42 125 42t126 -42v-199h577q75 0 75 -70v-856q0 -40 -114 -40t-131 22q-6 8 -6 18v722h-401v-419q0 -73 23 -109t72 -37t76 11q28 12 35 12q28 0 28 -85t-14 -101q-41 -48 -189 -48q-142 0 -212 77t-70 242v457h-107q-39 0 -39 102z
M1217 1390q12 -14 -17 -52l-157 -223q-21 -27 -61 -29q-40 -3 -71 -3q-108 0 -128 32l-159 223q-27 39 -15 53q12 13 66 13q83 0 100 -6q18 -6 33 -28l103 -151l105 151q16 22 30 27q25 7 92 7t79 -14z" />
    <glyph glyph-name="t_uni0209.liga" unicode="t&#x209;" horiz-adv-x="1199" 
d="M23 858q0 102 40 102h106v199q-1 42 125 42t126 -42v-199h577q75 0 75 -70v-856q0 -40 -114 -40t-131 22q-6 8 -6 18v722h-401v-419q0 -73 23 -109t72 -37t76 11q28 12 35 12q28 0 28 -85t-14 -101q-41 -48 -189 -48q-142 0 -212 77t-70 242v457h-107q-39 0 -39 102z
M1019 1073q-21 7 -43 28l-213 232q-49 54 111 54q94 0 118 -21q10 -8 17 -19l163 -229q18 -29 8 -37q-18 -15 -79 -15t-82 7zM676 1073q-21 7 -43 28l-213 232q-49 54 111 54q93 0 117 -21q10 -8 18 -19l163 -229q18 -29 8 -37q-18 -15 -79 -15t-82 7z" />
    <glyph glyph-name="t_uni020B.liga" unicode="t&#x20b;" horiz-adv-x="1199" 
d="M23 858q0 102 40 102h106v199q-1 42 125 42t126 -42v-199h577q75 0 75 -70v-856q0 -40 -114 -40t-131 22q-6 8 -6 18v722h-401v-419q0 -73 23 -109t72 -37t76 11q28 12 35 12q28 0 28 -85t-14 -101q-41 -48 -189 -48q-142 0 -212 77t-70 242v457h-107q-39 0 -39 102z
M1200 1123q0 -37 -70 -37q-62 0 -79 9t-20 33q-12 114 -106 114q-74 0 -105 -29q-32 -29 -36 -88q-4 -39 -79 -39t-85 19q-4 7 -3 16q-1 279 291 279t292 -277z" />
    <glyph glyph-name="t_uni1E2D.liga" unicode="t&#x1e2d;" horiz-adv-x="1199" 
d="M23 858q0 102 40 102h106v199q-1 42 125 42t126 -42v-199h577q75 0 75 -70v-856q0 -40 -114 -40t-131 22q-6 8 -6 18v722h-401v-419q0 -73 23 -109t72 -37t76 11q28 12 35 12q28 0 28 -85t-14 -101q-41 -48 -189 -48q-142 0 -212 77t-70 242v457h-107q-39 0 -39 102z
M1084 -226q62 0 62 85q0 17 15 23t61 5q46 1 62 -7t16 -33q0 -121 -58 -185t-143 -65q-86 0 -124 21q-39 22 -59 36t-49 35q-30 21 -61 21q-61 0 -61 -85q0 -18 -15 -23t-50 -5q-59 0 -74 8t-15 33q0 116 56 182t151 67q96 -1 176 -57q30 -22 56 -38q26 -18 54 -18z
M1092 1226q0 -74 -31 -103t-115 -29t-114 28t-30 102t30 104t116 30q84 0 114 -28q30 -30 30 -104z" />
    <glyph glyph-name="t_uni1E2F.liga" unicode="t&#x1e2f;" horiz-adv-x="1199" 
d="M23 858q0 102 40 102h106v199q-1 42 125 42t126 -42v-199h577q75 0 75 -70v-856q0 -40 -114 -40t-131 22q-6 8 -6 18v722h-401v-419q0 -73 23 -109t72 -37t76 11q28 12 35 12q28 0 28 -85t-14 -101q-41 -48 -189 -48q-142 0 -212 77t-70 242v457h-107q-39 0 -39 102z
M1230 1226q0 -68 -26 -96t-102 -28q-74 0 -100 26t-26 96t26 97t102 27q74 0 100 -26t26 -96zM839 1226q-1 -68 -27 -96t-100 -28t-101 26q-26 26 -26 96t27 97q28 27 102 27t100 -26t25 -96zM814 1404q0 10 13 29l118 186q16 25 39 32q23 8 78 8q95 0 113 -14t-3 -40
l-169 -189q-17 -22 -35 -28q-18 -7 -86 -7t-68 23z" />
    <glyph glyph-name="t_uni0268.liga" unicode="t&#x268;" horiz-adv-x="1199" 
d="M23 858q0 102 40 102h106v199q-1 42 125 42t126 -42v-199h577q75 0 75 -70v-291h120q39 1 39 -79q-1 -80 -23 -90q-8 -4 -16 -4h-120v-392q0 -40 -114 -40t-131 22q-6 8 -6 18v392h-135q-21 0 -30 17t-9 70q0 86 39 86h135v157h-401v-419q0 -73 23 -109t72 -37t76 11
q28 12 35 12q28 0 28 -85t-14 -101q-41 -48 -189 -48q-142 0 -212 77t-70 242v457h-107q-39 0 -39 102zM1092 1226q0 -74 -31 -103t-115 -29t-114 28t-30 102t30 104t116 30q84 0 114 -28q30 -30 30 -104z" />
    <glyph glyph-name="t_t_uni01D0.liga" unicode="tt&#x1d0;" horiz-adv-x="1832" 
d="M1260 214q28 0 28 -87t-15 -101q-25 -24 -73 -34q-128 -30 -236 7q-161 56 -161 300v457h-383v-419q0 -73 23 -109t72 -37t76 11q28 12 35 12q28 0 28 -87t-15 -101q-49 -46 -188 -46q-142 0 -212 77t-70 242v457h-107q-39 0 -39 102t40 102h106v199q-1 42 125 42
t126 -42v-199h383v247q0 22 20 29q37 13 105 13q126 0 126 -42v-247h576q76 0 76 -70v-856q0 -40 -114 -40t-131 22q-6 8 -6 18v722h-401v-419q0 -73 22 -109t70 -37q47 -1 77 11t37 12zM1830 1390q12 -14 -17 -52l-157 -223q-21 -27 -61 -29q-40 -3 -71 -3q-108 0 -128 32
l-159 223q-27 39 -15 53q12 13 66 13q83 0 100 -6q18 -6 33 -28l103 -151l105 151q16 22 30 27q25 7 92 7t79 -14z" />
    <glyph glyph-name="t_t_uni0209.liga" unicode="tt&#x209;" horiz-adv-x="1832" 
d="M1260 214q28 0 28 -87t-15 -101q-25 -24 -73 -34q-128 -30 -236 7q-161 56 -161 300v457h-383v-419q0 -73 23 -109t72 -37t76 11q28 12 35 12q28 0 28 -87t-15 -101q-49 -46 -188 -46q-142 0 -212 77t-70 242v457h-107q-39 0 -39 102t40 102h106v199q-1 42 125 42
t126 -42v-199h383v247q0 22 20 29q37 13 105 13q126 0 126 -42v-247h576q76 0 76 -70v-856q0 -40 -114 -40t-131 22q-6 8 -6 18v722h-401v-419q0 -73 22 -109t70 -37q47 -1 77 11t37 12zM1631 1073q-21 7 -43 28l-213 232q-49 54 111 54q94 0 118 -21q10 -8 17 -19l163 -229
q18 -29 8 -37q-18 -15 -79 -15t-82 7zM1288 1073q-21 7 -43 28l-213 232q-49 54 111 54q93 0 117 -21q10 -8 18 -19l163 -229q18 -29 8 -37q-18 -15 -79 -15t-82 7z" />
    <glyph glyph-name="t_t_uni020B.liga" unicode="tt&#x20b;" horiz-adv-x="1832" 
d="M1260 214q28 0 28 -87t-15 -101q-25 -24 -73 -34q-128 -30 -236 7q-161 56 -161 300v457h-383v-419q0 -73 23 -109t72 -37t76 11q28 12 35 12q28 0 28 -87t-15 -101q-49 -46 -188 -46q-142 0 -212 77t-70 242v457h-107q-39 0 -39 102t40 102h106v199q-1 42 125 42
t126 -42v-199h383v247q0 22 20 29q37 13 105 13q126 0 126 -42v-247h576q76 0 76 -70v-856q0 -40 -114 -40t-131 22q-6 8 -6 18v722h-401v-419q0 -73 22 -109t70 -37q47 -1 77 11t37 12zM1812 1123q0 -37 -70 -37q-62 0 -79 9t-20 33q-12 114 -106 114q-74 0 -105 -29
q-32 -29 -36 -88q-4 -39 -79 -39t-85 19q-4 7 -3 16q-1 279 291 279t292 -277z" />
    <glyph glyph-name="t_t_uni1E2D.liga" unicode="tt&#x1e2d;" horiz-adv-x="1832" 
d="M1260 214q28 0 28 -87t-15 -101q-25 -24 -73 -34q-128 -30 -236 7q-161 56 -161 300v457h-383v-419q0 -73 23 -109t72 -37t76 11q28 12 35 12q28 0 28 -87t-15 -101q-49 -46 -188 -46q-142 0 -212 77t-70 242v457h-107q-39 0 -39 102t40 102h106v199q-1 42 125 42
t126 -42v-199h383v247q0 22 20 29q37 13 105 13q126 0 126 -42v-247h576q76 0 76 -70v-856q0 -40 -114 -40t-131 22q-6 8 -6 18v722h-401v-419q0 -73 22 -109t70 -37q47 -1 77 11t37 12zM1717 -226q62 0 62 85q0 17 15 23q14 6 60 5q46 1 62 -7t17 -33q1 -121 -57 -185
t-144 -65q-86 0 -124 21q-38 22 -58 36l-50 35t-61 21q-61 0 -61 -85q0 -18 -15 -23t-50 -5q-58 0 -74 8q-15 8 -15 33q0 116 56 182t151 67q95 -1 175 -57q30 -22 57 -38q26 -18 54 -18zM1726 1226q0 -74 -31 -103t-115 -29t-114 28t-30 102t30 104t116 30q84 0 114 -28
q30 -30 30 -104z" />
    <glyph glyph-name="t_t_uni1E2F.liga" unicode="tt&#x1e2f;" horiz-adv-x="1832" 
d="M1260 214q28 0 28 -87t-15 -101q-25 -24 -73 -34q-128 -30 -236 7q-161 56 -161 300v457h-383v-419q0 -73 23 -109t72 -37t76 11q28 12 35 12q28 0 28 -87t-15 -101q-49 -46 -188 -46q-142 0 -212 77t-70 242v457h-107q-39 0 -39 102t40 102h106v199q-1 42 125 42
t126 -42v-199h383v247q0 22 20 29q37 13 105 13q126 0 126 -42v-247h576q76 0 76 -70v-856q0 -40 -114 -40t-131 22q-6 8 -6 18v722h-401v-419q0 -73 22 -109t70 -37q47 -1 77 11t37 12zM1843 1226q-1 -68 -27 -96t-100 -28t-101 26q-26 26 -26 96q1 70 27 97t100 27
t101 -26q26 -26 26 -96zM1452 1226q0 -68 -26 -96t-102 -28q-74 0 -100 26t-26 96t27 97t101 27t100 -26t26 -96zM1427 1404q0 10 13 29l118 186q16 25 39 32q23 8 78 8q95 0 113 -14t-3 -40l-169 -189q-17 -22 -35 -28q-18 -7 -86 -7t-68 23z" />
    <glyph glyph-name="t_t_uni0268.liga" unicode="tt&#x268;" horiz-adv-x="1832" 
d="M1260 214q28 0 28 -87t-15 -101q-25 -24 -73 -34q-128 -30 -236 7q-161 56 -161 300v457h-383v-419q0 -73 23 -109t72 -37t76 11q28 12 35 12q28 0 28 -87t-15 -101q-49 -46 -188 -46q-142 0 -212 77t-70 242v457h-107q-39 0 -39 102t40 102h106v199q-1 42 125 42
t126 -42v-199h383v247q0 22 20 29q37 13 105 13q126 0 126 -42v-247h576q76 0 76 -70v-291h130q39 1 39 -79q-1 -80 -23 -90q-8 -4 -16 -4h-130v-392q0 -40 -114 -40t-131 22q-6 8 -6 18v392h-125q-21 0 -30 17t-9 70q0 86 39 86h125v157h-401v-419q0 -73 22 -109t70 -37
q47 -1 77 11t37 12zM1679 1226q0 -74 -31 -103q-32 -29 -116 -29t-114 28t-29 102t31 104t114 30t115 -28q30 -30 30 -104z" />
    <glyph glyph-name="f_f_uni0237.liga" unicode="ff&#x237;" horiz-adv-x="1718" 
d="M636 1166q-7 0 -10 1l-31 11q-29 9 -74 9q-95 0 -95 -156v-71h331v79q0 274 115.5 318.5t165.5 44.5t73.5 -2t43 -6t34 -9t22.5 -13t12.5 -28t4.5 -89q0 -70 -27 -70q-7 0 -33 7.5t-69 7.5q-91 0 -91 -155v-85h507q77 0 77 -69v-911q0 -253 -108 -299t-162 -46t-75.5 2
t-41.5 6.5t-34.5 10t-27 17t-12.5 99.5t18 88t39 -7.5t58 -7.5q94 0 94 146v767h-332v-722q0 -40 -114 -40t-125.5 15t-11.5 25v722h-331v-722q0 -40 -115 -40t-125.5 14.5t-10.5 24.5v723h-112q-38 0 -38 92t14.5 102t24.5 10h111v66q0 363 311 363q71 0 111 -14t47 -20.5
t13.5 -24.5t6.5 -91t-28 -73z" />
    <glyph glyph-name=".notdef" horiz-adv-x="1038" 
d="M552 209.5q-22 -21.5 -65 -21.5q-71 0 -93.5 21.5t-22.5 61.5q0 68 22 90t65 22t62.5 -5t36.5 -22t17 -71t-22 -75.5zM275 931q-21 0 -21 59t10 69q20 19 81 35t134 16q150 0 225.5 -73.5t75.5 -191.5q0 -167 -87.5 -205t-136.5 -44l-5 -121q-2 -24 -75 -24t-80 8t-7 16
l-8 157q-5 70 58 70h13q103 0 119 53t16 97t-37.5 82t-112.5 38t-116 -20.5t-46 -20.5zM879 101v1092h-732v-1092h732zM987 1294v-1294h-945v1294h945z" />
    <glyph glyph-name="glyph1" 
 />
    <glyph glyph-name="glyph1" 
 />
    <glyph glyph-name="uni000D" unicode="&#xd;" 
 />
    <glyph glyph-name="space" unicode=" " horiz-adv-x="463" 
 />
    <glyph glyph-name="space" unicode="&#xa0;" horiz-adv-x="463" 
 />
    <glyph glyph-name="exclam" unicode="!" horiz-adv-x="667" 
d="M512 132q0 -42 -6.5 -70t-23 -45t-43.5 -24.5t-88.5 -7.5t-91 31.5t-29.5 93.5q0 63 6.5 91.5t22.5 46t43.5 25t68.5 7.5t68 -7.5t43.5 -25t23 -45.5t6.5 -70zM399.5 1384q107.5 0 107.5 -52l-26 -908q-2 -22 -19 -29.5t-38.5 -10.5t-53.5 -3q-105 0 -109 43l-26 908
q0 28 28.5 40t136 12z" />
    <glyph glyph-name="quotedbl" unicode="&#x22;" horiz-adv-x="898" 
d="M326 910q0 -42 -82 -42t-90 16t-9 26l-23 447q-4 42 112 42t116 -42zM616 868q-90 0 -90 42l-24 447q0 42 104 42t114 -16t10 -26l-23 -447q-1 -42 -91 -42z" />
    <glyph glyph-name="numbersign" unicode="#" horiz-adv-x="1020" 
d="M415 800l-34 -285h223l35 285h-224zM953 971q38 1 38 -85t-39 -86h-114l-34 -285h98q38 0 38 -86t-39 -86h-119l-37 -313q-4 -36 -95 -36t-98 13.5t-6 22.5l38 313h-224l-37 -313q-4 -29 -37.5 -32.5t-65.5 -3.5q-61 0 -80 9t-15 27l36 313h-95q-38 0 -38 86t39 86h116
l34 285h-101q-38 0 -38 86t39 85h120l36 292q0 37 94 37t99.5 -14t5.5 -22l-37 -293h224l34 292q5 37 97 37t97.5 -14t4.5 -22l-35 -293h96z" />
    <glyph glyph-name="dollar" unicode="$" horiz-adv-x="1038" 
d="M836 120q-115 -103 -312 -119l-21 -214q-4 -33 -78 -33q-66 0 -88 11t-17 35l21 203q-123 17 -203 60q-22 13 -40 29q-16 16 -16 72q0 91 9 113q9 21 26 21t42 -15q135 -81 271 -81t192 44q57 44 57 103q-1 60 -25 91q-24 30 -65 54t-93 42t-105 40q-131 51 -198 118
q-90 90 -90 240t96 244t272 114l20 201q3 25 31 29q28 3 56 3q58 0 78 -10t20 -36l-20 -189q95 -14 141 -36q47 -22 55 -30q24 -24 25 -82q0 -90 -7 -108t-20 -18q-14 0 -39 13t-93 41t-139 28q-119 0 -165 -37q-47 -37 -47 -91q0 -55 25 -87q24 -32 66 -55t94 -42t108 -40
q54 -20 106 -48t94 -68q91 -90 91 -248q0 -159 -115 -262z" />
    <glyph glyph-name="percent" unicode="%" horiz-adv-x="1493" 
d="M255 970q0 -199 91 -199q41 -1 60 11q18 12 30 36t17 62t5 90q0 106 -24 154q-24 47 -79 47q-77 1 -94 -105q-6 -38 -6 -96zM656 970q0 -157 -75 -249q-75 -91 -229 -91q-236 0 -281 201q-14 62 -14 137q0 157 74 250t229 93q239 0 283 -207q13 -61 13 -134zM1214 477
q-24 47 -79 47q-77 0 -94 -106q-6 -38 -6 -95q0 -199 91 -199q41 0 60 12q18 12 30 35q22 45 22 152t-24 154zM1436 323q0 -157 -75 -249q-75 -91 -229 -91q-236 0 -281 201q-14 62 -14 137q0 157 74 250t229 93q239 0 283 -207q13 -61 13 -134zM256 -34q-117 0 -73 60
l922 1263q28 34 62 38q34 3 65 3q62 0 78 -15t-5 -45l-922 -1263q-25 -34 -61 -37q-35 -4 -66 -4z" />
    <glyph glyph-name="ampersand" unicode="&#x26;" horiz-adv-x="1443" 
d="M354 375q0 -87 62.5 -141.5t179.5 -54.5q116 0 216 73q-192 154 -332 316q-126 -79 -126 -193zM489 952q23 -45 78 -118q117 63 161.5 110.5t44.5 104.5q0 79 -56 97t-96 18t-69.5 -9.5t-57.5 -35.5t-28 -74t23 -93zM631 1359q408 0 408 -287q0 -169 -124 -254t-207 -128
q65 -74 151 -155.5t120 -110.5q38 59 48 124.5t10 94.5v31q0 24 22.5 33t76.5 9q91 0 114 -8.5t23 -34.5v-32q0 -199 -105 -361q119 -92 154 -92h24q24 0 24 -78t-5 -92t-29.5 -33t-101.5 -1t-226 129q-198 -135 -423 -135t-364 96t-139 287q0 161 98 242t162 119
q-141 180 -141 301q0 233 160 284.5t270 51.5z" />
    <glyph glyph-name="quotesingle" unicode="'" horiz-adv-x="478" 
d="M332 910q0 -42 -84 -42t-93 16t-10 26l-23 447q-4 42 101 42q79 0 106.5 -10t25.5 -32z" />
    <glyph glyph-name="parenleft" unicode="(" horiz-adv-x="638" 
d="M540 -329.5q0 -23.5 -94 -23.5q-93 0 -118.5 18.5t-83.5 172t-97.5 313.5t-39.5 387q0 441 213 863q7 18 43 20.5t70 2.5q68 0 90.5 -13t11.5 -43q-170 -395 -170 -822q0 -428 169 -836q6 -16 6 -39.5z" />
    <glyph glyph-name="parenright" unicode=")" horiz-adv-x="638" 
d="M97 -329.5q0 23.5 6 39.5q170 401 170 834q0 432 -171 824q-11 30 12.5 43t73.5 13q116 0 130 -23q212 -428 212 -872t-212 -853q-12 -29 -117 -29q-104 0 -104 23.5z" />
    <glyph glyph-name="asterisk" unicode="*" horiz-adv-x="1020" 
d="M506 1425q108 0 97 -43l-40 -251l199 159q31 27 84 -63q54 -90 13 -104l-237 -92l237 -92q41 -14 -11.5 -104t-85.5 -63l-199 159l40 -251q10 -43 -97 -43t-97 43l40 251l-199 -159q-31 -27 -84 63q-53 89 -13 104l238 92l-238 92q-40 15 12.5 106t84.5 61l199 -159
l-40 251q-11 43 97 43z" />
    <glyph glyph-name="plus" unicode="+" horiz-adv-x="1020" 
d="M928 674q40 0 40 -99t-43 -99h-311v-339q0 -42 -104.5 -42t-104.5 42v339h-310q-43 0 -43 99t40 99h313v338q0 44 104.5 44t104.5 -44v-338h314z" />
    <glyph glyph-name="comma" unicode="," horiz-adv-x="528" 
d="M422 181q0 -140 -75 -244l-134 -192q-19 -28 -50 -32.5t-59 -4.5q-56 0 -71 9.5t-5 32.5l122 276v158q0 66 30.5 85.5t86.5 19.5q57 0 82 -3.5t49 -19.5t24 -85z" />
    <glyph glyph-name="hyphen" unicode="-" horiz-adv-x="627" 
d="M106 399q-47 -1 -47 103q0 56 11 79.5t36 23.5h416q46 0 46 -103t-46 -103h-416z" />
    <glyph glyph-name="hyphen" unicode="&#x2010;" horiz-adv-x="627" 
d="M106 399q-47 -1 -47 103q0 56 11 79.5t36 23.5h416q46 0 46 -103t-46 -103h-416z" />
    <glyph glyph-name="hyphen" unicode="&#xad;" horiz-adv-x="627" 
d="M106 399q-47 -1 -47 103q0 56 11 79.5t36 23.5h416q46 0 46 -103t-46 -103h-416z" />
    <glyph glyph-name="period" unicode="." horiz-adv-x="547" 
d="M422 142q0 -91 -32.5 -123t-116.5 -32t-116 31.5t-32 122.5t32.5 123t116.5 32t116 -31.5t32 -122.5z" />
    <glyph glyph-name="slash" unicode="/" horiz-adv-x="880" 
d="M20.5 -288q-25.5 15 -12.5 51l598 1679q8 26 35 35.5t80 9.5q90 0 114.5 -15t13.5 -51l-597 -1680q-10 -25 -37.5 -34.5t-97.5 -9.5q-71 0 -96.5 15z" />
    <glyph glyph-name="zero" unicode="0" horiz-adv-x="1038" 
d="M717 647q0 84 -5 154.5t-20.5 148.5t-57 118.5t-107.5 40.5q-120 0 -162.5 -108.5t-42.5 -295.5q0 -319 44 -419t155 -100t148.5 95.5t42.5 188.5t5 177zM870.5 151q-111.5 -174 -364.5 -174q-252 0 -350.5 165.5t-98.5 499.5q0 496 172.5 585.5t304.5 89.5t219 -45.5
t158 -164.5t71 -451q0 -331 -111.5 -505z" />
    <glyph glyph-name="one" unicode="1" horiz-adv-x="1038" 
d="M904 203q40 1 40 -101t-40 -102h-714q-39 0 -39 102t39 101h241v842l-208 -115q-46 -22 -60.5 -7.5t-14.5 63.5q0 74 6 91t30 33l278 180q16 13 84 13q105 0 126 -6t21 -25v-1069h211z" />
    <glyph glyph-name="two" unicode="2" horiz-adv-x="1038" 
d="M911 213q45 -1 45 -107t-41 -106h-744q-47 0 -65 20.5t-18 71.5q0 84 14.5 117.5t52.5 73.5l224 240q212 221 212 396q0 111 -62.5 136t-112.5 25t-95.5 -15t-80 -33.5t-57.5 -34t-36 -15.5q-35 0 -35 121q0 62 9.5 78t33 38.5t128.5 60t213 37.5q203 0 305.5 -93.5
t102.5 -239.5t-70 -275.5t-282 -340.5l-151 -155h510z" />
    <glyph glyph-name="three" unicode="3" horiz-adv-x="1038" 
d="M396 187q250 0 250 181q0 140 -104.5 168t-175.5 28h-112q-27 0 -37.5 19t-10.5 64q0 73 10 91.5t35 18.5h113q174 0 207.5 74t33.5 112q0 75 -45.5 120t-115.5 45t-116 -15.5t-82.5 -34t-62 -34.5t-35.5 -16q-34 0 -34 78q0 82 8.5 97.5t31 37t120.5 59t210 37.5
q204 0 305.5 -85t101.5 -254t-87.5 -225.5t-144.5 -70.5v-3q134 -16 212.5 -100t78.5 -190q0 -199 -137.5 -305.5t-339.5 -106.5t-283.5 42t-88 56.5t-11.5 34t-5 90.5q0 72 32 72q10 0 87 -42.5t192 -42.5z" />
    <glyph glyph-name="four" unicode="4" horiz-adv-x="1038" 
d="M589 1073h-2l-341 -595h343v595zM957 478q39 0 39 -105t-39 -105h-115v-234q0 -21 -41 -34.5t-118 -6t-85.5 19t-8.5 21.5v234h-495q-32 0 -45 22t-13 75q0 84 6.5 118t26.5 73l402 709q19 35 195 35t176 -43v-779h115z" />
    <glyph glyph-name="five" unicode="5" horiz-adv-x="1038" 
d="M515 798q203 0 316 -97t113 -293t-138.5 -313.5t-368.5 -117.5q-163 0 -242.5 33t-89 55t-9.5 109t33 87q10 0 30.5 -11.5t81.5 -37t144 -25.5q148 0 214 53t66 160q0 151 -98 176t-171 25l-195 -12q-29 0 -41.5 14.5t-12.5 53.5v562q0 75 65 75h613q41 0 41 -112
t-41 -113h-460v-277q53 6 150 6z" />
    <glyph glyph-name="six" unicode="6" horiz-adv-x="1038" 
d="M547 615q-103 0 -203 -67q0 -300 106 -352q36 -18 82 -17q90 0 138 64t48 164q0 157 -91 195q-33 14 -80 13zM84 596q0 720 554 720q122 0 180 -23t64 -35t10 -25t3 -49q0 -68 -7 -89t-24 -21q-16 0 -35 6t-66 21q-47 14 -128 14q-152 0 -223 -104t-73 -271
q118 75 268 75q369 0 369 -383q0 -202 -121 -329q-121 -126 -336 -126q-255 0 -353 173q-82 145 -82 446z" />
    <glyph glyph-name="seven" unicode="7" horiz-adv-x="1038" 
d="M123 1066q-42 0 -42 114t42 114h769q38 0 50.5 -22t12.5 -70q0 -70 -6.5 -103t-24.5 -77l-426 -987q-12 -25 -41 -33t-96 -8q-115 0 -141.5 13.5t-10.5 48.5l458 1010h-544z" />
    <glyph glyph-name="eight" unicode="8" horiz-adv-x="1038" 
d="M320 331q0 -160 201 -160q99 0 147 42t48 116q0 103 -118 177q-40 25 -93 51q-98 -53 -141 -105q-44 -53 -44 -121zM686 975q0 150 -169 150q-84 -1 -125 -39t-41 -104t40 -109t143 -99q152 90 152 201zM939 1011q0 -205 -221 -328q258 -135 258 -336q0 -177 -121 -274
q-121 -96 -350 -96q-330 -1 -416 191q-28 62 -28 131q0 123 64 204t194 150q-221 121 -221 316q0 158 111 253t325 95q306 -1 382 -189q24 -58 23 -117z" />
    <glyph glyph-name="nine" unicode="9" horiz-adv-x="1038" 
d="M506 1115q-91 0 -136.5 -61t-45.5 -139q0 -134 40 -185.5t143 -51.5t191 64q0 301 -72 337t-120 36zM465 478q-221 0 -310 101t-89 297q0 195 117.5 318t336.5 123q324 0 381.5 -211t57.5 -400q0 -729 -566 -729q-124 0 -185.5 25t-77.5 40.5t-16 64.5q0 82 9 105
t45 11.5t92 -27.5t138 -16q156 0 229 103.5t77 266.5q-115 -72 -239 -72z" />
    <glyph glyph-name="colon" unicode=":" horiz-adv-x="565" 
d="M442 137q0 -42 -7 -70.5t-23.5 -46.5t-43.5 -25.5t-68 -7.5t-68 7.5t-43.5 25.5t-22.5 46.5t-6 70.5t6 71.5t22.5 47.5t43.5 25.5t68 7.5t68 -7.5t43.5 -25.5t23.5 -47.5t7 -71.5zM442 790q0 -42 -7 -70t-23.5 -46t-43.5 -25.5t-88 -7.5t-90.5 32t-29.5 96t6 93t22.5 47
t43.5 26t68 8t68 -8t43.5 -26t23.5 -47.5t7 -71.5z" />
    <glyph glyph-name="semicolon" unicode=";" horiz-adv-x="565" 
d="M442 181q0 -138 -73 -244l-130 -188q-21 -30 -51 -33.5t-56 -3.5q-55 0 -69 9.5t-4 32.5l117 272v158q0 65 30 85t85 20t79.5 -3.5t48 -19.5t23.5 -85zM442 790q0 -42 -7 -70t-23.5 -46t-43.5 -25.5t-88 -7.5t-90.5 32t-29.5 96t6 93t22.5 47t43.5 26t68 8t68 -8
t43.5 -26t23.5 -47.5t7 -71.5z" />
    <glyph glyph-name="less" unicode="&#x3c;" horiz-adv-x="1020" 
d="M903.5 87.5q-11.5 -15.5 -41.5 -1.5l-767 382q-27 15 -27 101q0 85 10.5 99.5t17.5 18.5l766 380q29 14 41 -5.5t12 -69.5q0 -88 -6.5 -110.5t-30.5 -34.5l-576 -270l565 -262q32 -15 40 -38.5t8 -98.5t-11.5 -90.5z" />
    <glyph glyph-name="equal" unicode="=" horiz-adv-x="1020" 
d="M890 471q44 0 44 -96t-44 -96h-763q-44 0 -44 96t44 96h763zM890 874q44 0 44 -96t-44 -96h-763q-44 0 -44 96t44 96h763z" />
    <glyph glyph-name="greater" unicode="&#x3e;" horiz-adv-x="1020" 
d="M922 684q28 -13 28 -98q0 -86 -11 -101t-18 -18l-767 -380q-42 -21 -47 16t-5 73q0 73 6.5 96.5t30.5 33.5l576 270l-565 262q-33 14 -40.5 36.5t-7.5 112.5q0 91 19 89t33 -9z" />
    <glyph glyph-name="question" unicode="?" horiz-adv-x="949" 
d="M539.5 16q-30.5 -31 -91.5 -31q-101 0 -131 31t-30 94q0 106 30 138t91 32t88.5 -7.5t50.5 -32t23 -108.5q0 -85 -30.5 -116zM147 1120q-32 0 -32 86t20.5 106.5t107 46t192.5 25.5q211 0 321 -113t110 -279q0 -165 -88 -264.5t-235 -115.5l-8 -195q-2 -36 -102 -36
t-111 12.5t-12 23.5l-9 236q-2 62 17 83.5t65 21.5h14q100 0 151.5 58t51.5 151q0 155 -82 186t-136 31t-93 -10t-67 -22t-46.5 -22t-28.5 -10z" />
    <glyph glyph-name="at" unicode="@" horiz-adv-x="1840" 
d="M715 467q0 -130 96 -130q59 0 107.5 44.5t79.5 77.5l41 221q-61 111 -136 111q-120 0 -154 -129.5t-34 -194.5zM120 379q0 380 220.5 671t679.5 291q352 0 521.5 -151.5t169.5 -409.5q0 -259 -108 -444t-338 -185q-197 0 -238 147q-143 -147 -303 -147t-195.5 103
t-35.5 167q0 63 7.5 121t36 156.5t115.5 188.5t225 90q99 0 148 -46t77 -81l17 77q8 36 90 36t88 -13.5t5 -22.5l-86 -447q-26 -143 68 -143q137 0 170 162.5t33 250.5q0 187 -109.5 294.5t-380.5 107.5q-352 0 -504 -228t-152 -526q0 -232 114 -348t397 -116
q172 0 265.5 28t102.5 28q28 0 28 -54t-1 -69.5t-3.5 -26t-6.5 -18t-16.5 -19t-130 -35t-262.5 -23.5q-708 0 -708 634z" />
    <glyph glyph-name="A" unicode="A" horiz-adv-x="1241" 
d="M607 1047h-1l-183 -550h367zM970 1q-24 7 -32 34l-87 260h-486l-82 -253q-9 -30 -33 -39t-89 -9q-113 0 -128.5 18t8.5 88l399 1148q12 35 39.5 43.5t108.5 8.5q141 0 171 -8.5t42 -46.5l400 -1147q24 -72 10 -85.5t-42 -16t-101.5 -2.5t-97.5 7z" />
    <glyph glyph-name="B" unicode="B" horiz-adv-x="1148" 
d="M805 379q0 190 -250 190h-156v-368h190q155 -1 201 101q16 34 15 77zM738 933q0 164 -206 164h-133v-336h147q144 -1 181 105q11 32 11 67zM544 1294q457 0 457 -329q1 -144 -103 -224q-34 -26 -77 -42q177 -32 237 -192q20 -53 20 -120.5t-19 -123.5t-53 -99
q-128 -164 -443 -164h-344q-33 0 -55.5 19.5t-22.5 63.5v1128q0 44 22.5 63.5t55.5 19.5h325z" />
    <glyph glyph-name="C" unicode="C" horiz-adv-x="1084" 
d="M995 981q-15 -1 -38 17q-126 96 -235 96q-110 0 -170 -32t-102 -90q-86 -119 -87 -328q-1 -332 195 -416q62 -26 135.5 -26t124.5 16.5t87.5 36.5t60.5 36q22 16 34 16q21 0 28.5 -22t7.5 -68t-1.5 -63.5t-4.5 -30t-8 -21.5q-5 -8 -16 -20q-30 -32 -128 -67.5t-226 -35.5
q-267 0 -420 166t-153 487.5t164 502t436 180.5q155 0 273 -66q51 -29 61 -46q19 -34 19 -128t-37 -94z" />
    <glyph glyph-name="D" unicode="D" horiz-adv-x="1291" 
d="M540 208q404 0 404 440t-408 440h-133v-880h137zM1216 654q0 -333 -174.5 -493.5t-513.5 -160.5h-309q-33 0 -55.5 19.5t-22.5 63.5v1128q0 44 22.5 63.5t55.5 19.5h332q491 0 622 -357q43 -117 43 -283z" />
    <glyph glyph-name="E" unicode="E" horiz-adv-x="999" 
d="M869 206q39 0 39 -103t-39 -103h-650q-33 0 -55.5 19.5t-22.5 63.5v1128q0 44 22.5 63.5t55.5 19.5h646q38 0 38 -103t-38 -103h-462v-316h391q39 0 39 -100.5t-39 -100.5h-391v-365h466z" />
    <glyph glyph-name="F" unicode="F" horiz-adv-x="940" 
d="M828 1294q39 0 39 -107.5t-39 -107.5h-423v-348h397q39 0 39 -105.5t-39 -105.5h-397v-482q1 -23 -21 -30q-38 -14 -111 -14q-132 0 -132 44v1173q0 44 22.5 63.5t55.5 19.5h609z" />
    <glyph glyph-name="G" unicode="G" horiz-adv-x="1305" 
d="M669 537q-38 0 -38 99.5t38 99.5h437q49 0 65 -48q5 -16 5 -36v-515q0 -67 -54 -88q-178 -71 -360 -71q-339 0 -514 173.5t-175 485t182.5 495.5t491.5 184q225 0 359 -75q34 -19 53.5 -39t19.5 -117.5t-36 -97.5q-13 0 -42 18t-77 39q-130 57 -247 57
q-209 0 -321.5 -124t-112.5 -334.5t109.5 -328t294.5 -117.5q93 0 167 40v300h-245z" />
    <glyph glyph-name="H" unicode="H" horiz-adv-x="1292" 
d="M888 1258q0 42 131.5 42t131.5 -42v-1222q0 -42 -131.5 -42t-131.5 42v523h-484v-523q0 -22 -21 -29q-39 -13 -110 -13q-132 0 -132 42v1222q-1 42 119 42t138 -24q6 -8 6 -18v-475h484v475z" />
    <glyph glyph-name="I" unicode="I" horiz-adv-x="546" 
d="M273 1300q132 0 132 -42v-1222q0 -42 -132 -42t-132 42v1222q0 42 132 42z" />
    <glyph glyph-name="J" unicode="J" horiz-adv-x="678" 
d="M407 1300q132 0 132 -40v-900q0 -188 -76.5 -284t-257.5 -96q-86 0 -156 31q-42 19 -45 75q-1 17 -1 47q0 65 6.5 90t26.5 25q9 0 21 -6.5t27 -13.5t35 -13.5t47 -6.5q57 0 83 35.5t26 127.5v889q0 40 132 40z" />
    <glyph glyph-name="K" unicode="K" horiz-adv-x="1120" 
d="M931 1300q135 0 135 -43q0 -25 -43 -92l-355 -465l387 -585q31 -58 31 -72q0 -28 -29.5 -38.5t-101 -10.5t-108 6.5t-52.5 37.5l-391 614v-614q0 -44 -131.5 -44t-131.5 44v1219q-1 23 21 30q40 13 95 13q87 0 117 -10t30 -33v-551l379 550q14 26 43 35t105 9z" />
    <glyph glyph-name="L" unicode="L" horiz-adv-x="866" 
d="M812 217q40 0 40 -108.5t-40 -108.5h-593q-33 0 -55.5 19.5t-22.5 63.5v1175q0 42 132 42t132 -42v-1041h407z" />
    <glyph glyph-name="M" unicode="M" horiz-adv-x="1790" 
d="M1545 1294q104 0 104 -105v-1153q0 -22 -20 -29q-37 -13 -105 -13q-124 0 -124 42v1053h-2l-375 -1052q-12 -37 -77 -41q-24 -2 -58 -2q-122 0 -134 43l-362 1052h-2v-1053q0 -22 -20 -29q-38 -13 -90 -13q-82 0 -110.5 10t-28.5 32v1153q0 51 27 78t72 27h172
q91 0 125.5 -25t50.5 -53.5t28 -70.5l280 -771h4l290 769q26 84 64 117.5t114 33.5h177z" />
    <glyph glyph-name="N" unicode="N" horiz-adv-x="1349" 
d="M971 1255q0 43 108 43t124 -25q5 -8 5 -18v-1163q0 -45 -27.5 -69.5t-71.5 -24.5h-112q-70 0 -107 32t-87 132l-322 605q-65 126 -109 238h-2q8 -144 8 -291v-677q0 -43 -108 -43t-124 25q-5 8 -5 18v1163q0 47 27.5 70.5t67.5 23.5h141q72 0 109.5 -27.5t76.5 -107.5
l252 -473q21 -42 43 -84q57 -110 118 -245h1q-6 140 -6 291v607z" />
    <glyph glyph-name="O" unicode="O" horiz-adv-x="1385" 
d="M689 194q340 0 340 458q0 215 -75.5 332t-256 117t-268.5 -134q-73 -111 -73 -325t74 -331t259 -117zM1305 666q0 -329 -160.5 -509t-463.5 -180q-453 0 -563 366q-38 125 -38 289q0 326 161 505.5t464 179.5q600 1 600 -651z" />
    <glyph glyph-name="P" unicode="P" horiz-adv-x="1090" 
d="M752 891q0 59 -24 103t-68 70.5t-144 26.5h-112v-439h118q230 0 230 239zM404 36q0 -42 -119.5 -42t-137.5 24q-6 8 -6 18v1164q0 47 24.5 70.5t64.5 23.5h305q383 0 470 -250q22 -64 22 -158q0 -202 -133 -319.5t-382 -117.5h-108v-413z" />
    <glyph glyph-name="Q" unicode="Q" horiz-adv-x="1405" 
d="M689 194q340 0 340 460q0 214 -75.5 330.5t-256.5 116.5t-268 -133q-73 -111 -73 -325.5t74 -331.5t259 -117zM1305 664q0 -347 -172 -519q119 -103 243 -145q20 -6 35.5 -21.5t15.5 -114t-41 -98.5q-73 0 -169 52q-179 97 -279 211q-114 -52 -261 -52q-301 0 -449 160
t-148 491t161.5 510t463.5 179q600 0 600 -653z" />
    <glyph glyph-name="R" unicode="R" horiz-adv-x="1153" 
d="M762 923q0 53 -29 97q-48 73 -211 73h-118v-367h134q165 0 210 110q14 34 14 87zM1034 939q0 -258 -251 -337q60 -29 103 -83t81 -147l109 -255q25 -63 25 -79q0 -28 -25 -36t-94 -8q-108 0 -131.5 9t-32.5 35l-116 289q-48 111 -79 144q-56 58 -137 58h-82v-493
q0 -42 -119.5 -42t-137.5 24q-6 8 -6 18v1175q0 44 22.5 63.5t55.5 19.5h335q180 0 264 -36q82 -36 126 -80q90 -90 90 -239z" />
    <glyph glyph-name="S" unicode="S" horiz-adv-x="968" 
d="M908 376q0 -90 -38 -167t-103 -129q-131 -104 -323 -104t-314 71q-30 17 -48 35t-19 76q0 88 8.5 112.5t26.5 24.5q16 -1 42 -17q138 -90 288 -89.5t193 96.5q14 31 14 72t-24 72.5t-62.5 56t-87.5 46t-101 45.5q-124 57 -188 127q-86 95 -87 240q0 179 122 276t312 97
q139 0 249 -53q44 -21 51 -35t10.5 -30t3.5 -56.5t-1.5 -60.5t-5 -33t-10 -19t-17.5 -6t-35 14t-87.5 44t-130.5 30q-106 0 -150 -38t-44 -91t23.5 -84.5t63 -56t89.5 -46t102 -45.5t102 -54.5t89 -73t63 -100t24 -147.5z" />
    <glyph glyph-name="T" unicode="T" horiz-adv-x="1014" 
d="M963 1294q39 0 39 -107.5t-39 -107.5h-324v-1043q0 -42 -132 -42t-132 42v1043h-324q-39 0 -39 107.5t39 107.5h912z" />
    <glyph glyph-name="U" unicode="U" horiz-adv-x="1337" 
d="M1068 1300q129 0 129 -42v-776q0 -240 -138.5 -372.5t-397.5 -132.5q-379 -1 -485 277q-36 92 -36 217v787q0 22 22 29q40 13 110 13q131 0 131 -42v-764q1 -222 159 -282q50 -18 110 -19q124 0 194.5 75.5t70.5 210.5v779q0 22 21 29q39 13 110 13z" />
    <glyph glyph-name="V" unicode="V" horiz-adv-x="1211" 
d="M621 -6q-45 0 -73.5 0.5t-48.5 2.5q-36 4 -51.5 14.5t-23.5 37.5l-385 1147q-24 72 -8 85.5t46 16t80 2.5q91 0 113 -8t33 -41l315 -998h1l309 993q8 35 31.5 44.5t92 9.5t94 -3t37.5 -17.5t-12 -85.5l-386 -1148q-10 -35 -33.5 -42t-54.5 -8.5t-76 -1.5z" />
    <glyph glyph-name="W" unicode="W" horiz-adv-x="1856" 
d="M291.5 1291.5q21.5 -8.5 27.5 -45.5l227 -991h1l236 984q8 39 34 50t93 11q115 0 140.5 -10.5t33.5 -50.5l244 -984h2l227 988q7 36 29.5 46.5t88.5 10.5t90.5 -2.5t38.5 -16.5t-4 -88l-297 -1126q-12 -49 -48 -61q-61 -22 -229 -10q-34 2 -61 12.5t-37 58.5l-207 820h-2
l-196 -820q-10 -47 -36 -57q-63 -26 -241 -14q-67 5 -79.5 26t-18.5 45l-294 1129q-18 71 -2 85t44.5 16.5t101 2.5t94 -8.5z" />
    <glyph glyph-name="X" unicode="X" horiz-adv-x="1128" 
d="M835.5 1.5q-26.5 7.5 -37.5 33.5l-243 467l-242 -467q-13 -26 -39 -33.5t-95 -7.5q-121 0 -137 17.5t22 87.5l310 565l-288 531q-37 74 -22.5 87t45.5 15.5t83 2.5q93 0 119 -7.5t39 -33.5l227 -428l221 428q13 26 37 33.5t90 7.5q120 0 136.5 -16.5t-17.5 -88.5
l-288 -528l307 -568q36 -70 21 -85q-22 -20 -122 -20t-126.5 7.5z" />
    <glyph glyph-name="Y" unicode="Y" horiz-adv-x="1064" 
d="M664 36q0 -42 -120 -42t-138 24q-6 8 -6 18v455l-354 705q-37 72 -22 86t46 16q32 2 82 2q94 0 119 -8.5t40 -38.5l144 -318q36 -80 83 -204h2q31 89 78 202l142 316q10 31 35 41t96 10q129 0 146 -16t-19 -88l-354 -705v-455z" />
    <glyph glyph-name="Z" unicode="Z" horiz-adv-x="979" 
d="M897 211q39 0 39 -105.5t-39 -105.5h-763q-83 0 -83 90v44q0 57 20 92t37 63l502 796h-498q-45 0 -45 89q0 73 10 96.5t35 23.5h715q80 0 80 -80v-49q0 -71 -20 -106.5t-37 -62.5l-494 -785h541z" />
    <glyph glyph-name="bracketleft" unicode="[" horiz-adv-x="665" 
d="M578 1325q0 -90 -35 -90h-151v-1393h151q35 0 35 -90t-35 -90h-309q-77 0 -77 84v1586q0 83 77 83h309q35 0 35 -90z" />
    <glyph glyph-name="backslash" unicode="\" horiz-adv-x="880" 
d="M660 -286q-24 7 -35 31l-586 1651q-18 52 1 63.5t82 11.5q98 0 122.5 -7t33.5 -31l588 -1651q17 -52 -2 -63.5t-100 -11.5q-80 0 -104 7z" />
    <glyph glyph-name="bracketright" unicode="]" horiz-adv-x="665" 
d="M87 1325q0 90 35 90h310q53 0 65.5 -31t12.5 -52v-1586q0 -62 -30.5 -73t-47.5 -11h-310q-35 0 -35 90t35 90h152v1393h-152q-35 0 -35 90z" />
    <glyph glyph-name="asciicircum" unicode="^" horiz-adv-x="1020" 
d="M766 521q-30 10 -40 35l-221 541l-5 -1l-212 -540q-10 -25 -39.5 -35t-88.5 -10q-103 0 -120 14.5t9 70.5l288 656q24 52 169 52t169 -52l293 -656q26 -56 9 -70.5t-99 -14.5t-112 10z" />
    <glyph glyph-name="underscore" unicode="_" horiz-adv-x="1020" 
d="M985 -179q41 0 41 -93t-41 -93h-950q-23 0 -32.5 21t-9.5 93t42 72h950z" />
    <glyph glyph-name="grave" unicode="`" horiz-adv-x="615" 
d="M346 1090.5q-24 7.5 -40 27.5l-193 232q-49 54 105 54q71 0 97 -8t44 -32l143 -229q19 -28 3.5 -40t-75.5 -12t-84 7.5z" />
    <glyph glyph-name="a" unicode="a" horiz-adv-x="1011" 
d="M451 155q94 0 188 106v152h-96q-226 0 -226 -138q0 -56 35.5 -88t98.5 -32zM165 702q-45 0 -45 101q0 57 19 76q37 38 140 71t210 33q210 0 303.5 -82.5t93.5 -269.5v-600q0 -27 -42 -33q-22 -4 -65 -4t-63 4q-38 6 -38 33v71q-117 -125 -272.5 -125t-245 75t-89.5 215
q0 304 481 304h87v54q-1 130 -89 157q-32 10 -87.5 10t-105 -14t-87.5 -31t-63.5 -31t-41.5 -14z" />
    <glyph glyph-name="b" unicode="b" horiz-adv-x="1099" 
d="M763 444q0 160 -42 242t-139.5 82t-203.5 -142v-296q108 -139 200 -139t138.5 83t46.5 170zM660 983q186 0 275 -137.5t89 -364.5t-101.5 -365.5t-282.5 -138.5q-91 0 -159.5 36.5t-139.5 117.5v-97q0 -40 -98 -40t-112 22q-5 8 -5 18v1315q0 43 126 43t126 -43v-493
q127 127 282 127z" />
    <glyph glyph-name="c" unicode="c" horiz-adv-x="857" 
d="M330 481q0 -293 205 -293q98 0 202 84q19 16 30 16q34 0 34 -95q0 -85 -7.5 -101t-19.5 -28q-33 -31 -111.5 -58.5t-173.5 -27.5q-199 0 -308 126.5t-109 371.5t122.5 375.5t326.5 130.5q117 0 211 -53q40 -23 48 -37q17 -28 17 -116t-36 -88q-17 0 -36 14t-45 31
q-69 45 -157.5 45t-140.5 -75.5t-52 -221.5z" />
    <glyph glyph-name="d" unicode="d" horiz-adv-x="1099" 
d="M515 770q-135 0 -173 -182q-10 -50 -11 -104q0 -124 42 -209t128.5 -85t161.5 76q27 28 59 68v296q-111 140 -207 140zM847 1389q125 0 125 -43v-1312q0 -22 -17 -29q-45 -19 -102.5 -13t-75.5 13t-18 29v99q-145 -156 -324 -156t-275 146q-84 127 -84.5 355.5
t100.5 366.5t289 138q135 0 257 -120v483q0 43 125 43z" />
    <glyph glyph-name="e" unicode="e" horiz-adv-x="1031" 
d="M523 805q-137 -1 -179 -139q-12 -42 -14 -88h376q3 106 -42.5 166.5t-140.5 60.5zM330 416q0 -249 244 -249q133 -1 263 51q24 10 36 10q21 0 28 -16t7 -52.5t-1 -52t-3 -26.5t-6 -18.5t-10 -14.5q-18 -19 -120 -45t-219 -26q-475 0 -475 493q0 240 121 376.5t334 136.5
t317 -119t104 -318v-40q0 -90 -77 -90h-543z" />
    <glyph glyph-name="f" unicode="f" horiz-adv-x="648" 
d="M63 756q-38 0 -38 92q-1 92 21 107q8 5 18 5h111v75q1 275 173 342q60 23 119.5 23t94.5 -6t55 -14q31 -12 39 -34.5t8 -96t-28 -73.5q-7 0 -15.5 3.5t-32 11t-54.5 7.5q-58 0 -83 -35.5t-25 -120.5v-82h163q39 0 39 -102t-39 -102h-163v-722q0 -40 -114 -40
q-116 0 -132 22q-6 8 -5 18v722h-112z" />
    <glyph glyph-name="g" unicode="g" horiz-adv-x="971" 
d="M270 -91q0 -102 193 -102q157 1 193 85q10 24 10 59t-36 59t-99 26l-179 5q-82 -60 -82 -132zM344.5 760.5q-38.5 -44.5 -38.5 -112t40 -107t94 -39.5q89 0 128 44t39 111.5t-40 107.5t-112 40t-110.5 -44.5zM892 960q38 0 38 -95t-38 -95h-105q41 -45 41 -120
q0 -152 -99.5 -237.5t-270.5 -85.5q-90 0 -142 35q-31 -34 -31 -67q0 -68 97 -72l217 -8q231 -9 297 -154q22 -47 22 -110q0 -137 -120.5 -226.5t-345.5 -89.5q-326 1 -402 145q-24 44 -23 97q0 125 129 221q-90 48 -90 152t97 192q-77 77 -77 218t102.5 230t268.5 89
q82 0 152 -19h283z" />
    <glyph glyph-name="h" unicode="h" horiz-adv-x="1099" 
d="M252 -6q-126 0 -126 40v1315q0 43 126 43t126 -43v-493q129 127 273 127q327 0 327 -402v-547q0 -40 -113.5 -40t-131.5 22q-6 8 -6 18v509q0 221 -150 221q-91 0 -199 -137v-593q0 -21 -20 -28q-36 -12 -106 -12z" />
    <glyph glyph-name="i" unicode="i" horiz-adv-x="503" 
d="M397 1226.5q0 -74.5 -31 -103.5t-115.5 -29t-114 28t-29.5 102.5t30.5 104t115 29.5t114.5 -28.5t30 -103zM252 -6q-126 0 -126 40v890q0 42 126 42t126 -42v-890q0 -21 -20 -28q-36 -12 -106 -12z" />
    <glyph glyph-name="j" unicode="j" horiz-adv-x="523" 
d="M416 1226.5q0 -74.5 -30.5 -103.5t-115 -29t-114.5 28t-30 102.5t31 104t115.5 29.5t114 -28.5t29.5 -103zM146 924q0 42 125.5 42t125.5 -42v-920q0 -278 -164 -346q-55 -22 -112.5 -22.5t-86.5 5t-42 11.5q-20 9 -24.5 33.5t-4.5 65.5q0 97 29 97l54 -5q77 1 94 79
q6 28 6 87v915z" />
    <glyph glyph-name="k" unicode="k" horiz-adv-x="983" 
d="M252 -6q-126 0 -126 40v1315q0 43 126 43t126 -43v-783l264 355q18 27 47.5 36t83.5 9q89 0 118.5 -9.5t29.5 -35.5t-30 -64l-261 -296l302 -467q23 -38 23 -55q1 -27 -25 -35q-54 -17 -125.5 -11.5t-93.5 11.5t-36 32l-297 470v-472q0 -21 -20 -28q-36 -12 -106 -12z
" />
    <glyph glyph-name="l" unicode="l" horiz-adv-x="503" 
d="M252 -6q-126 0 -126 40v1315q0 43 126 43t126 -43v-1315q0 -21 -20 -28q-36 -12 -106 -12z" />
    <glyph glyph-name="m" unicode="m" horiz-adv-x="1666" 
d="M252 -6q-126 0 -126 40v892q0 40 94 40q76 0 98.5 -9.5t22.5 -30.5v-103q148 160 301 160q204 0 279 -163q152 163 312.5 163t236 -103.5t75.5 -274.5v-571q0 -40 -114.5 -40t-130.5 22q-6 8 -6 18v529q0 145 -78 187q-26 14 -64 14q-81 0 -191 -137v-593q-1 -21 -21 -28
q-60 -21 -136 -13t-85 19.5t-9 21.5v529q0 145 -78 187q-27 14 -63 14q-83 0 -191 -137v-593q0 -21 -20 -28q-36 -12 -106 -12z" />
    <glyph glyph-name="n" unicode="n" horiz-adv-x="1099" 
d="M252 -6q-126 0 -126 40v892q0 40 94 40q76 0 98.5 -9.5t22.5 -30.5v-103q148 160 310 160q327 0 327 -398v-551q0 -40 -113.5 -40t-131.5 22q-6 8 -6 18v509q0 221 -150 221q-91 0 -199 -137v-593q0 -21 -20 -28q-36 -12 -106 -12z" />
    <glyph glyph-name="o" unicode="o" horiz-adv-x="1101" 
d="M556 784q-224 0 -225 -302q0 -222 113 -282q42 -22 104 -22q221 0 221.5 303t-213.5 303zM561 983q467 0 467 -494q0 -235 -124 -373.5t-365 -138.5q-467 0 -467 494q0 236 125 374t364 138z" />
    <glyph glyph-name="p" unicode="p" horiz-adv-x="1099" 
d="M762 446q0 157 -41 239.5t-138.5 82.5t-204.5 -143v-294q111 -140 201.5 -140t136.5 84.5t46 170.5zM126 926q0 40 92 40q73 0 97 -9.5t24 -30.5v-105q82 84 156 123t169 39q183 0 271.5 -136.5t88.5 -365t-101 -366.5t-288 -138q-74 0 -132.5 29.5t-124.5 93.5v-420
q0 -43 -126 -43t-126 43v1246z" />
    <glyph glyph-name="q" unicode="q" horiz-adv-x="1099" 
d="M515 770q-135 0 -173 -182q-10 -50 -11 -104q0 -126 42 -210t128.5 -84t161.5 76q27 28 59 68v296q-111 140 -207 140zM759 926q0 40 96.5 40t111.5 -22q5 -8 5 -18v-1246q0 -43 -125 -43t-125 43v424q-75 -69 -139 -98t-153 -29q-176 0 -265.5 137.5t-89.5 365
t103 365.5t291 138q77 0 139 -34t151 -120v97z" />
    <glyph glyph-name="r" unicode="r" horiz-adv-x="728" 
d="M341 815q117 168 229 168q104 0 120 -35q8 -20 9 -81q0 -93 -7.5 -117.5t-27.5 -24.5q-8 -1 -18 3q-53 18 -83 19q-85 0 -185 -157v-556q0 -21 -20 -28q-35 -12 -106 -12q-126 0 -126 40v892q0 40 94 40q76 0 98.5 -9.5t22.5 -30.5v-111z" />
    <glyph glyph-name="s" unicode="s" horiz-adv-x="817" 
d="M678 739q-13 0 -32 10.5t-72.5 33t-106.5 22.5q-86 0 -119 -26.5t-33 -63t19 -57.5t50 -37t70.5 -30t80 -30.5t80 -38.5t70.5 -54t50 -76q19 -46 19 -114q0 -142 -106.5 -221.5t-261.5 -79.5t-255 50q-24 12 -41 28t-17 70q0 78 7.5 97t22 19t36 -12.5t81 -40.5
t118.5 -28q91 0 131 26.5t40 68t-18.5 63t-49 37.5t-69 30t-78.5 31q-99 42 -157.5 103t-58.5 183.5t98 201.5t242 79q144 -1 230 -41q37 -18 43 -29q13 -25 13 -99.5t-26 -74.5z" />
    <glyph glyph-name="t" unicode="t" horiz-adv-x="710" 
d="M626 214q28 0 28 -85.5t-14 -101.5q-45 -47 -189 -47q-142 0 -212 77t-70 242v457h-107q-39 0 -39 102t40 102h106v199q0 42 125.5 42t125.5 -42v-199h194q40 0 40 -102t-39 -102h-195v-419q0 -73 23 -109.5t71.5 -36.5t76.5 11.5t35 11.5z" />
    <glyph glyph-name="u" unicode="u" horiz-adv-x="1099" 
d="M448 -23q-327 0 -327 403v546q0 40 108 40q87 0 115 -9.5t28 -30.5v-504q0 -226 150 -226q88 0 200 137v593q0 21 20 28q34 12 105 12q125 0 125 -40v-892q0 -40 -94 -40q-75 0 -98 9.5t-23 30.5v103q-148 -160 -309 -160z" />
    <glyph glyph-name="v" unicode="v" horiz-adv-x="969" 
d="M934 855l-268 -807q-10 -34 -36 -42q-70 -22 -183 -13.5t-125.5 24t-17.5 31.5l-268 807q-14 47 -14 64q0 29 25 38t83 9q92 0 118 -8t35 -35l203 -655l6 -25l206 680q6 26 25 32q34 11 87.5 11t77 -2t36.5 -7q23 -9 23 -32.5t-13 -69.5z" />
    <glyph glyph-name="w" unicode="w" horiz-adv-x="1526" 
d="M948 4.5q-31 10.5 -39 43.5l-150 542l-2 9l-140 -551q-8 -34 -32 -42q-65 -22 -169 -13.5t-115.5 24t-15.5 31.5l-236 807q-14 45 -14 64q0 31 26.5 39t82.5 8q95 0 118.5 -8.5t30.5 -34.5l177 -655l2 -12l168 667q6 25 24 32t41.5 9t60.5 2q68 0 92.5 -8t31.5 -31
l181 -671l172 667q4 26 23 32.5t43 8.5t61 2q72 0 96.5 -8t24.5 -29t-14 -74l-238 -807q-10 -34 -32 -42q-33 -12 -130.5 -12t-128.5 10.5z" />
    <glyph glyph-name="x" unicode="x" horiz-adv-x="941" 
d="M658 1.5q-26 7.5 -34 27.5l-165 317l-165 -317q-12 -30 -55.5 -32.5t-86.5 -2.5q-86 0 -107.5 12.5t-3.5 45.5l247 439l-228 412q-19 38 -2 48q29 15 99 15q107 0 133.5 -5.5t37.5 -26.5l159 -298l158 298q9 24 47 28t80 4q88 0 108 -12t-2 -51l-222 -405l245 -446
q16 -34 -2 -44q-29 -14 -122 -14t-119 7.5z" />
    <glyph glyph-name="y" unicode="y" horiz-adv-x="970" 
d="M22 918q0 48 102 48q112 0 133 -9t35 -54l210 -597h3l192 609q6 26 20 38.5t80.5 12.5t95 -4t42 -15t13.5 -29.5t-8 -43.5l-405 -1190q-17 -47 -130.5 -47t-135 14.5t-7.5 49.5l119 299q-27 13 -39 45l-307 820q-13 35 -13 53z" />
    <glyph glyph-name="z" unicode="z" horiz-adv-x="814" 
d="M708 202q42 0 42 -85q0 -70 -10 -93.5t-32 -23.5h-583q-56 0 -56 77v46q0 52 13.5 77t25.5 42l334 516h-316q-42 0 -42 91.5t23 105.5q8 5 19 5h545q29 0 41.5 -15.5t12.5 -55.5v-49q0 -57 -13.5 -82t-23.5 -41l-332 -515h352z" />
    <glyph glyph-name="braceleft" unicode="{" horiz-adv-x="704" 
d="M467 233v-168q0 -129 14 -160.5t28.5 -40.5t36.5 -10h37q30 -2 39.5 -20.5t9.5 -57.5q0 -63 -11 -85t-51 -26t-92 -4t-104.5 25t-96 91.5t-43.5 286.5v172q0 110 -35 168.5t-106 69.5q-39 8 -39 90q0 83 13 92t23 11q144 21 144 239v129q0 219 60 311t210 92
q84 0 98.5 -10.5t22 -25.5t7.5 -65q0 -91 -40 -91l-37 -1q-50 -2 -69 -40.5t-19 -170.5v-124q0 -292 -206 -339q206 -47 206 -338z" />
    <glyph glyph-name="bar" unicode="|" horiz-adv-x="973" 
d="M368 1403q0 43 118 43t119 -43v-1726q-1 -42 -119 -42t-118 42v1726z" />
    <glyph glyph-name="braceright" unicode="}" horiz-adv-x="704" 
d="M271 65v125q0 229 74.5 299.5t131.5 83.5q-162 37 -184 127t-22 167v167q0 127 -13.5 160t-28.5 41.5t-37 9.5l-36 1q-30 0 -40.5 18t-10.5 58q0 66 10.5 85t41.5 25t93 6q135 0 194.5 -92t59.5 -311v-172q0 -104 31.5 -142t109.5 -52q39 -4 39 -86q0 -59 -8 -81.5
t-37 -25.5q-61 -8 -98 -84.5t-37 -198.5v-129q0 -219 -60.5 -311t-209.5 -92q-84 0 -106.5 17t-22.5 94t40 82h38q50 2 69 40.5t19 170.5z" />
    <glyph glyph-name="asciitilde" unicode="~" horiz-adv-x="1020" 
d="M782 1113q0 32 94 32t90 -43v-32q-2 -150 -80 -231t-190 -81q-113 0 -169 49t-81.5 79.5t-49.5 52t-61 21.5q-94 0 -94 -145q0 -35 -84 -35t-92 16t-8 26v27q0 156 74.5 236.5t191.5 80.5t170.5 -45.5t81.5 -78.5t51.5 -55t61.5 -22q94 0 94 148z" />
    <glyph glyph-name="exclamdown" unicode="&#xa1;" horiz-adv-x="667" 
d="M155 1060q0 41 7 69q6 28 23 45q16 17 43 24t68 8q82 0 111 -31q30 -31 30 -94t-6 -91t-23 -46q-16 -17 -43 -25q-27 -7 -69 -8q-41 0 -68 8q-27 7 -43 25q-16 17 -23 46t-7 70zM296 -193q-136 0 -136 52l26 908q2 22 19 30q17 7 39 10q21 3 53 3q105 0 109 -43l26 -908
q0 -28 -21 -37q-36 -15 -115 -15z" />
    <glyph glyph-name="cent" unicode="&#xa2;" horiz-adv-x="1020" 
d="M867 450q29 0 29 -97t-36 -138.5t-153 -61.5v-138q0 -21 -16.5 -28t-36.5 -9.5t-64 -2.5t-66.5 9.5t-22.5 30.5v134q-163 26 -247.5 148t-84.5 330q0 324 128.5 405t202.5 97v137q0 42 103.5 42t103.5 -42v-132q105 -14 147.5 -55t44.5 -71t2 -52q0 -107 -45 -107
q-16 0 -73 45.5t-126 45.5q-70 0 -149.5 -36t-79.5 -261q0 -293 147 -293t194 34.5t66 50t32 15.5z" />
    <glyph glyph-name="sterling" unicode="&#xa3;" horiz-adv-x="1038" 
d="M918 203q40 1 40 -101t-40 -102h-802q-40 0 -40 102t40 101h106v356h-106q-40 0 -40 99t40 99h106v92q0 359 235 439q77 26 149 27q72 -1 112 -7t75 -18q33 -12 61 -26q28 -16 40 -29q22 -23 28 -45q5 -22 5 -72q0 -99 -37 -99q-14 0 -32 14q-18 15 -44 31t-62 30t-86 14
q-97 0 -140 -62q-44 -62 -44 -187v-102h269q40 0 40 -99t-40 -99h-269v-356h436z" />
    <glyph glyph-name="currency" unicode="&#xa4;" horiz-adv-x="1020" 
d="M331 589q0 -232 182 -232q84 0 128 59.5t44 134.5q0 133 -44.5 195t-135.5 62q-126 0 -150 -86.5t-24 -132.5zM910 586q0 -170 -93 -278l135 -206q33 -56 12.5 -77.5t-114 -15.5t-104 16.5t-15.5 20.5l-85 160q-65 -29 -147 -29q-83 0 -131 22l-85 -159q-10 -23 -35 -29
t-84 -6q-102 0 -119 17t17 72l131 201q-87 102 -87 277t89 281l-135 210q-34 54 -17 72t79 18q93 0 120 -6.5t38 -28.5l86 -160q65 29 151 29t140 -27l85 159q8 22 33 29t84 7q103 0 119.5 -17t-16.5 -73l-132 -207q80 -102 80 -272z" />
    <glyph glyph-name="yen" unicode="&#xa5;" horiz-adv-x="1038" 
d="M138 433q-33 1 -33 87t33 86h249v36l-322 554q-42 70 -29 84.5t43.5 17t78.5 2.5q90 0 117.5 -7t39.5 -34l110 -208q50 -96 103 -221q67 150 104 221l110 208q15 29 38.5 35t89.5 6q116 0 130.5 -15.5t-28.5 -88.5l-321 -554v-36h250q32 0 32 -86t-32 -87h-250v-125h250
q32 0 32 -87t-32 -87h-250v-102q0 -21 -21.5 -27.5t-47 -8.5t-82.5 -2t-85 8.5t-28 29.5v102h-249q-33 0 -33 87t33 87h249v125h-249z" />
    <glyph glyph-name="brokenbar" unicode="&#xa6;" horiz-adv-x="1020" 
d="M482 -381q-91 0 -91 42v648q0 42 118 42t118 -42v-648q0 -22 -27 -32t-118 -10zM536 1456q91 0 91 -42v-643q0 -43 -118 -43t-118 43v643q0 22 27 32t118 10z" />
    <glyph glyph-name="section" unicode="&#xa7;" horiz-adv-x="1020" 
d="M598 400q97 45 97 153q0 48 -31 81t-99 59l-78 33q-36 14 -62 28q-97 -43 -97 -148q0 -51 30.5 -84t100.5 -61l78 -31q33 -13 61 -30zM777 1109q-13 0 -30.5 10.5t-68.5 34t-106 23.5q-85 0 -116 -28t-31 -61q0 -59 32.5 -90.5t127.5 -71.5l87 -35q135 -54 200 -126.5
t65 -198.5t-67 -188t-106 -84q80 -76 80 -193q0 -149 -106.5 -229t-278.5 -80q-93 0 -157.5 21.5t-87 34.5t-36 25.5t-13.5 63.5q0 77 10.5 104.5t90 -21t185.5 -48.5q107 0 127.5 40t20.5 66q0 50 -34.5 82t-125.5 68l-88 35q-135 55 -200 127.5t-65 198.5t68.5 188
t107.5 83q-79 77 -79 209t100.5 209t241.5 77t201 -29.5t69.5 -46t9.5 -93.5t-28 -77z" />
    <glyph glyph-name="dieresis" unicode="&#xa8;" horiz-adv-x="849" 
d="M747 1226q0 -69 -26.5 -96.5t-100.5 -27.5t-100.5 26t-26.5 96t26.5 97t100.5 27t100.5 -26.5t26.5 -95.5zM356 1226q0 -69 -27 -96.5t-101 -27.5t-100 26t-26 96t27 97t101 27t100 -26.5t26 -95.5z" />
    <glyph glyph-name="copyright" unicode="&#xa9;" horiz-adv-x="1709" 
d="M714 689q0 -259 183 -259q83 0 136 43.5t66 43.5q24 0 24 -77t-6.5 -89.5t-24 -30t-82 -42.5t-149.5 -25q-176 0 -271 109t-95 321t105.5 324t281.5 112q108 0 170.5 -36.5t68.5 -60.5t6 -63q0 -90 -39 -90q-14 0 -62.5 39t-133.5 39t-131.5 -65.5t-46.5 -192.5zM848 -23
q-690 1 -690 697q0 359 181.5 542.5t520.5 183.5t515.5 -175t176.5 -523q0 -358 -181.5 -541.5t-522.5 -183.5zM862 135q508 0 508 562q0 274 -119 409.5t-400 135.5q-512 0 -512 -564q0 -281 122.5 -412t400.5 -131z" />
    <glyph glyph-name="ordfeminine" unicode="&#xaa;" horiz-adv-x="852" 
d="M397 748q61 0 118 65v99h-58q-119 0 -134 -33.5t-15 -54.5q0 -76 89 -76zM151 326q-41 0 -41 86t41 86h538q22 0 31.5 -19t9.5 -68q0 -85 -41 -85h-538zM636 619q-87 0 -87 31v41h-3q-74 -83 -201 -83q-177 0 -210 78t-33 132q0 109 84.5 160t263.5 51h65v31q0 51 -26 74
t-79 23q-54 0 -87.5 -9.5t-58 -20t-41.5 -19.5t-28 -9q-43 0 -43 90q0 46 14.5 57t79 39t162.5 28q176 0 244.5 -60t68.5 -190v-415q0 -22 -29.5 -25.5t-55.5 -3.5z" />
    <glyph glyph-name="guillemotleft" unicode="&#xab;" horiz-adv-x="1103" 
d="M360 92.5q-23 6.5 -34 26.5l-224 365q-26 44 4 91l213 347q14 20 35.5 26.5t65.5 6.5q80 0 100 -14.5t6 -40.5l-195 -375l200 -383q15 -28 -6 -42t-82 -14q-60 0 -83 6.5zM766 116q-20 6 -29 22l-222 346q-26 42 4 90l206 328q16 26 47.5 28.5t63.5 2.5q66 0 86.5 -12.5
t7.5 -39.5l-190 -355l203 -369q12 -24 -7.5 -35.5t-84.5 -11.5t-85 6z" />
    <glyph glyph-name="logicalnot" unicode="&#xac;" horiz-adv-x="1020" 
d="M848 684q86 0 86 -88v-319q0 -44 -101.5 -44t-101.5 44v214h-645q-39 0 -39 96.5t41 96.5h760z" />
    <glyph glyph-name="registered" unicode="&#xae;" horiz-adv-x="1038" 
d="M508 1053q60 0 60 47t-59 47h-37v-94h36zM702 1117q0 -88 -94 -112q56 -15 79 -78l20 -59q7 -25 7 -32t-2.5 -10.5t-10.5 -5.5t-21.5 -3t-45 -1t-45 5.5t-17.5 21.5l-17 66q-10 34 -22.5 45.5t-36.5 11.5h-24v-127q0 -13 -11.5 -18t-49.5 -5t-51 5t-13 18v342q0 57 54 57
h128q173 0 173 -121zM732.5 1231.5q-82.5 86.5 -213.5 86.5t-213.5 -87t-82.5 -217t83 -216.5t214 -86.5t213 87.5t82 216.5q0 130 -82.5 216.5zM812.5 726.5q-120.5 -118.5 -296.5 -118.5t-293.5 114t-117.5 288t120.5 292.5t297.5 118.5t293.5 -113.5t116.5 -288.5
q0 -174 -120.5 -292.5z" />
    <glyph glyph-name="macron" unicode="&#xaf;" horiz-adv-x="799" 
d="M656 1323q23 0 29.5 -15.5t9 -33t2.5 -54.5t-9 -58.5t-32 -21.5h-510q-44 0 -44 79q0 62 10 83t34 21h510z" />
    <glyph glyph-name="macron" unicode="&#x2c9;" horiz-adv-x="799" 
d="M656 1323q23 0 29.5 -15.5t9 -33t2.5 -54.5t-9 -58.5t-32 -21.5h-510q-44 0 -44 79q0 62 10 83t34 21h510z" />
    <glyph glyph-name="degree" unicode="&#xb0;" horiz-adv-x="701" 
d="M425.5 1202.5q-29.5 31.5 -63.5 31.5q-58 0 -87.5 -32.5t-29.5 -67.5q0 -61 30 -93t64 -32t53.5 8.5t41 32.5t21.5 72q0 49 -29.5 80.5zM154 1305.5q80 76.5 201 76.5t196.5 -71t75.5 -184t-79.5 -189t-201 -76t-197 70t-75.5 183.5t80 190z" />
    <glyph glyph-name="plusminus" unicode="&#xb1;" horiz-adv-x="1020" 
d="M900 194q38 0 38 -97t-41 -97h-772q-41 0 -41 97t38 97h778zM912 850q39 0 39 -94t-42 -95h-300v-328q0 -40 -99.5 -40t-99.5 40v328h-300q-41 1 -41 95t39 94h302v329q0 41 99.5 41t99.5 -41v-329h303z" />
    <glyph glyph-name="uni00B2" unicode="&#xb2;" horiz-adv-x="692" 
d="M607 871q30 0 30 -78t-28 -78h-486q-37 0 -49 14t-12 50q0 58 10 81q10 22 42 57l132 130q71 71 93 114q22 44 22 85q0 88 -94 88q-48 0 -86 -20q-37 -20 -53 -28q-16 -9 -25 -9q-26 -1 -26 71q-1 72 13 86q28 28 99 51q71 24 143 24q136 0 205 -58t69 -147t-30 -143
q-54 -96 -195 -223l-72 -67h298z" />
    <glyph glyph-name="uni00B3" unicode="&#xb3;" horiz-adv-x="688" 
d="M591 1310q0 -152 -147 -187v-2q125 -9 168 -111q13 -30 13 -79q-1 -49 -27 -95q-78 -138 -310 -138q-118 0 -194 34q-29 13 -33 36q-5 22 -5 76q0 53 23 53q7 0 21 -7q79 -38 157 -38q130 0 130 91q0 96 -162 96h-61q-20 0 -27 15t-7 47q0 50 7 65t25 15h64q142 0 142 97
q0 78 -100 78q-58 0 -96 -19l-54 -27t-23 -8q-23 0 -23 62t11 74q25 25 93 48t143 23q139 0 205 -53q67 -54 67 -146z" />
    <glyph glyph-name="acute" unicode="&#xb4;" horiz-adv-x="616" 
d="M392 1404q124 0 122 -21.5t-11 -32.5l-194 -232q-23 -28 -55 -31.5t-64 -3.5q-66 0 -81 12.5t4 39.5l143 229q21 33 62 36.5t74 3.5z" />
    <glyph glyph-name="mu" unicode="&#xb5;" horiz-adv-x="1154" 
d="M378 385q0 -189 158 -189q82 0 191 136v594q-1 40 125 40t126 -40v-616q0 -96 38 -114q14 -6 34 -7l64 9q21 0 23 -30q3 -30 3 -68q0 -37 -6 -60q-6 -24 -14 -32q-30 -30 -139 -30q-180 0 -227 148q-123 -142 -257 -142q-95 0 -137 51q18 -156 18 -227v-128
q0 -43 -126 -43t-126 43v1246q0 21 20 28q35 12 106 12q126 0 126 -40v-541z" />
    <glyph glyph-name="paragraph" unicode="&#xb6;" horiz-adv-x="1224" 
d="M1008 1294q60 0 60 -63v-1434q0 -33 -95 -33t-95 33v1322h-176v-1322q0 -33 -95 -33t-95 33v708q-311 0 -370.5 147.5t-59.5 237.5q0 180 118 292t345 112h463z" />
    <glyph glyph-name="periodcentered" unicode="&#xb7;" horiz-adv-x="548" 
d="M422 596q0 -90 -32.5 -123t-116.5 -33t-116 32t-32 122t32.5 123t116.5 33t116 -32t32 -122z" />
    <glyph glyph-name="periodcentered" unicode="&#x2219;" horiz-adv-x="548" 
d="M422 596q0 -90 -32.5 -123t-116.5 -33t-116 32t-32 122t32.5 123t116.5 33t116 -32t32 -122z" />
    <glyph glyph-name="cedilla" unicode="&#xb8;" horiz-adv-x="621" 
d="M253 -195q58 0 58 47q0 19 -17 58l-41 90h202l30 -66q34 -78 34 -124q0 -87 -60.5 -131t-164.5 -44t-145 19.5t-44 38.5t-3 50q0 62 35 62h116z" />
    <glyph glyph-name="uni00B9" unicode="&#xb9;" horiz-adv-x="517" 
d="M306 709q-102 0 -102 28v574l-120 -58q-33 -15 -44 -4q-11 12 -11 47q0 54 5 68q5 15 22 26l172 104q22 9 72 9q74 0 91 -5q16 -5 16 -15v-746q1 -23 -35 -25q-36 -3 -66 -3z" />
    <glyph glyph-name="ordmasculine" unicode="&#xba;" horiz-adv-x="891" 
d="M440 1149q-130 0 -129 -186q0 -93 29.5 -141t99.5 -48q130 0 130 188t-130 187zM164 326q-42 0 -42 86t42 86h552q22 0 31 -19t9 -67t-9 -67t-31 -19h-552zM85 958q0 257 135 307t224 50q175 0 263.5 -92t88.5 -257t-92.5 -261.5t-263.5 -96.5q-355 0 -355 350z" />
    <glyph glyph-name="guillemotright" unicode="&#xbb;" horiz-adv-x="1103" 
d="M176.5 120q-20.5 12 -5.5 40l190 355l-203 369q-27 47 77 47q81 0 98.5 -5.5t30.5 -22.5l221 -347q26 -40 -4 -89l-205 -328q-17 -26 -48 -28.5t-81 -2.5t-70.5 12zM581 99.5q-20 13.5 -7 41.5l195 375l-200 383q-15 28 6 42t70 14q73 0 95.5 -6.5t33.5 -26.5l224 -366
q26 -42 -4 -91l-213 -346q-14 -20 -35.5 -26.5t-82.5 -6.5q-62 0 -82 13.5z" />
    <glyph glyph-name="onequarter" unicode="&#xbc;" horiz-adv-x="1347" 
d="M1000 504h-2l-161 -254h163v254zM1262 250q26 0 26 -67t-26 -67h-64v-97q0 -25 -99 -25t-99 25v97h-277q-23 0 -31 14t-9 49q0 55 4 76q4 20 19 47l208 329q16 22 150 22t134 -27v-376h64zM164 -34q-117 0 -73 60l922 1263q28 34 62 38q34 3 65 3q62 0 78 -15t-5 -45
l-922 -1263q-25 -34 -61 -37q-35 -4 -66 -4zM438 1289v-622q0 -21 -36 -23q-36 -3 -66 -3q-104 0 -104 26v462l-120 -56q-37 -14 -46 -5q-10 9 -10 41q0 54 4 67t22 24l176 99q14 7 97 7t83 -17z" />
    <glyph glyph-name="onehalf" unicode="&#xbd;" horiz-adv-x="1415" 
d="M438 1289v-622q0 -21 -36 -23q-36 -3 -66 -3q-104 0 -104 26v462l-120 -56q-37 -14 -46 -5q-10 9 -10 41q0 54 4 67t22 24l176 99q14 7 97 7t83 -17zM1314 143q30 1 30 -71t-25 -72h-445q-39 0 -50 14t-11 49q0 55 8 73t35 44l126 110q84 79 98 119q6 17 5 41
q0 24 -22 43t-55 19t-57 -7q-23 -7 -43 -16t-34 -17t-23 -7q-24 0 -24 62t11 73q21 22 85 43t138 21q133 0 195 -50t62 -127t-29 -122q-52 -80 -156 -158l-81 -64h262zM164 -34q-117 0 -73 60l922 1263q28 34 62 38q34 3 65 3q62 0 78 -15t-5 -45l-922 -1263
q-25 -34 -61 -37q-35 -4 -66 -4z" />
    <glyph glyph-name="threequarters" unicode="&#xbe;" horiz-adv-x="1437" 
d="M330 1311q248 0 248 -169q0 -88 -76 -133q-26 -15 -60 -23q124 -12 156 -94q10 -26 10 -64q0 -39 -23 -78q-71 -120 -292 -120q-114 0 -188 32q-35 15 -41 38q-5 24 -5 66t21 41q8 -1 22 -7t51 -20t86 -15q76 0 104 20q29 20 29 45q0 46 -33 65t-111 19h-63q-20 0 -25 10
q-4 10 -6 22t-2 31q0 37 6 49q6 11 24 11h68q126 0 126 76q0 27 -21 45t-61 19t-65 -7t-47 -16t-37 -16t-23 -8q-23 0 -23 53t5 60q4 7 10 12q20 18 86 37q65 19 150 19zM251 -34q-117 0 -73 60l922 1263q28 34 62 38q34 3 65 3q62 0 78 -15t-5 -45l-922 -1263
q-25 -34 -61 -37q-35 -4 -66 -4zM1090 504h-2l-161 -254h163v254zM1352 250q26 0 26 -67t-26 -67h-64v-97q0 -25 -99 -25t-99 25v97h-277q-23 0 -31 14t-9 49q0 55 4 76q4 20 19 47l208 329q16 22 150 22t134 -27v-376h64z" />
    <glyph glyph-name="questiondown" unicode="&#xbf;" horiz-adv-x="949" 
d="M409 1176q30 31 92 31q101 0 131 -31t30 -94q0 -106 -30 -138t-91 -32t-88 8q-27 7 -44 25q-29 31 -30 115q0 85 30 116zM802 72q32 0 32 -86t-13 -99q-28 -28 -115 -53q-87 -26 -192 -26q-211 0 -321 113t-110 279q0 165 88 264t235 116l8 195q2 36 102 36t116 -18
q6 -7 7 -18l9 -236q2 -62 -17 -83q-19 -22 -65 -22h-14q-100 0 -151 -58q-52 -58 -52 -151q0 -155 124 -201q41 -15 95 -16q53 0 92 10t67 22t47 22q18 10 28 10z" />
    <glyph glyph-name="Agrave" unicode="&#xc0;" horiz-adv-x="1241" 
d="M607 1047h-1l-183 -550h367zM970 1q-24 7 -32 34l-87 260h-486l-82 -253q-9 -30 -33 -39t-89 -9q-113 0 -128.5 18t8.5 88l399 1148q12 35 39.5 43.5t108.5 8.5q141 0 171 -8.5t42 -46.5l400 -1147q24 -72 10 -85.5t-42 -16t-101.5 -2.5t-97.5 7zM537.5 1394
q-26.5 8 -47.5 27l-222 200q-52 45 20 62q26 6 68 6q80 0 109.5 -8.5t54.5 -37.5l180 -204q23 -29 10 -38q-21 -15 -83.5 -15t-89 8z" />
    <glyph glyph-name="Aacute" unicode="&#xc1;" horiz-adv-x="1241" 
d="M607 1047h-1l-183 -550h367zM970 1q-24 7 -32 34l-87 260h-486l-82 -253q-9 -30 -33 -39t-89 -9q-113 0 -128.5 18t8.5 88l399 1148q12 35 39.5 43.5t108.5 8.5q141 0 171 -8.5t42 -46.5l400 -1147q24 -72 10 -85.5t-42 -16t-101.5 -2.5t-97.5 7zM940.5 1669.5
q19.5 -19.5 -12.5 -48.5l-222 -200q-31 -27 -67 -31q-37 -4 -69 -4q-66 0 -82 12.5t8 40.5l180 204q26 29 49 36q34 10 115 10t100.5 -19.5z" />
    <glyph glyph-name="Acircumflex" unicode="&#xc2;" horiz-adv-x="1241" 
d="M607 1047h-1l-183 -550h367zM970 1q-24 7 -32 34l-87 260h-486l-82 -253q-9 -30 -33 -39t-89 -9q-113 0 -128.5 18t8.5 88l399 1148q12 35 39.5 43.5t108.5 8.5q141 0 171 -8.5t42 -46.5l400 -1147q24 -72 10 -85.5t-42 -16t-101.5 -2.5t-97.5 7zM720 1681.5
q25 -7.5 49 -33.5l198 -214q26 -28 10.5 -38t-71.5 -10q-95 0 -121 6t-43 25l-118 137l-122 -134q-24 -29 -65.5 -31.5t-79.5 -2.5q-70 0 -86 10.5t7 37.5l195 214q30 36 96 40q24 2 75 1.5t76 -8z" />
    <glyph glyph-name="Atilde" unicode="&#xc3;" horiz-adv-x="1241" 
d="M607 1047h-1l-183 -550h367zM970 1q-24 7 -32 34l-87 260h-486l-82 -253q-9 -30 -33 -39t-89 -9q-113 0 -128.5 18t8.5 88l399 1148q12 35 39.5 43.5t108.5 8.5q141 0 171 -8.5t42 -46.5l400 -1147q24 -72 10 -85.5t-42 -16t-101.5 -2.5t-97.5 7zM765 1562q63 0 63 74
q0 16 17 21t62 5t60.5 -7.5t15.5 -30.5q0 -115 -56.5 -175t-151.5 -60q-95 -1 -178 49q-31 18 -56.5 34t-55.5 16q-63 0 -63 -73q0 -17 -18.5 -21.5t-62 -4.5t-59 7.5t-15.5 47.5q0 97 58.5 157.5t152.5 60.5t174 -50q30 -19 56.5 -34.5t56.5 -15.5z" />
    <glyph glyph-name="Adieresis" unicode="&#xc4;" horiz-adv-x="1241" 
d="M607 1047h-1l-183 -550h367zM970 1q-24 7 -32 34l-87 260h-486l-82 -253q-9 -30 -33 -39t-89 -9q-113 0 -128.5 18t8.5 88l399 1148q12 35 39.5 43.5t108.5 8.5q141 0 171 -8.5t42 -46.5l400 -1147q24 -72 10 -85.5t-42 -16t-101.5 -2.5t-97.5 7zM974 1533.5
q0 -69.5 -28 -97.5t-105 -28t-103.5 27t-26.5 96.5t27.5 97t104.5 27.5t104 -26.5t27 -96zM537 1533.5q0 -69.5 -27.5 -97.5t-104.5 -28t-104 27t-27 96.5t28 97t105 27.5t103.5 -26.5t26.5 -96z" />
    <glyph glyph-name="Aring" unicode="&#xc5;" horiz-adv-x="1241" 
d="M607 1047h-1l-183 -550h367zM970 1q-24 7 -32 34l-87 260h-486l-82 -253q-9 -30 -33 -39t-89 -9q-113 0 -128.5 18t8.5 88l399 1148q12 35 39.5 43.5t108.5 8.5q141 0 171 -8.5t42 -46.5l400 -1147q24 -72 10 -85.5t-42 -16t-101.5 -2.5t-97.5 7zM624 1468q85 0 85 86
t-85 86t-85 -86t85 -86zM627 1753q235 0 235 -195q0 -146 -140 -189q-46 -14 -104 -14q-115 0 -173.5 50.5t-58.5 145.5q0 147 138 189q44 14 103 13z" />
    <glyph glyph-name="AE" unicode="&#xc6;" horiz-adv-x="1588" 
d="M730 1088h-5l-304 -606h309v606zM1456 206q38 0 38 -103t-38 -103h-649q-33 0 -55 19.5t-22 63.5v198h-390l-118 -240q-13 -30 -33 -37q-48 -16 -122 -12q-73 4 -87 8q-24 7 -24.5 28.5t23.5 71.5l570 1140q16 35 44.5 44.5t132.5 9.5h725q39 0 39 -103t-39 -103h-461
v-317h390q40 0 40 -101.5t-40 -101.5h-390v-362h466z" />
    <glyph glyph-name="Ccedilla" unicode="&#xc7;" horiz-adv-x="1084" 
d="M995 981q-15 -1 -38 17q-126 96 -235 96q-110 0 -170 -32t-102 -90q-86 -119 -87 -328q-1 -332 195 -416q62 -26 134 -26t124 16t89 36.5t61 36.5q22 16 34 16q21 0 28.5 -22t7.5 -68t-1.5 -63.5t-4.5 -30t-8 -21.5q-5 -8 -16 -20q-28 -29 -106 -60t-154 -38l23 -50
q35 -76 35 -123q0 -88 -60.5 -132t-164 -44t-169.5 31q-17 8 -20 27t-3 50q0 62 35 62h116q58 0 58 47q0 19 -17 58l-34 77q-193 25 -317 161q-150 165 -149.5 485.5t164.5 501t436 180.5q155 0 273 -66q51 -29 61 -46q19 -34 19 -128t-37 -94z" />
    <glyph glyph-name="Egrave" unicode="&#xc8;" horiz-adv-x="999" 
d="M869 206q39 0 39 -103t-39 -103h-650q-33 0 -55.5 19.5t-22.5 63.5v1128q0 44 22.5 63.5t55.5 19.5h646q38 0 38 -103t-38 -103h-462v-316h391q39 0 39 -100.5t-39 -100.5h-391v-365h466zM455.5 1394q-26.5 8 -47.5 27l-222 200q-52 45 20 62q26 6 68 6q80 0 109.5 -8.5
t54.5 -37.5l180 -204q23 -29 10 -38q-21 -15 -83.5 -15t-89 8z" />
    <glyph glyph-name="Eacute" unicode="&#xc9;" horiz-adv-x="999" 
d="M869 206q39 0 39 -103t-39 -103h-650q-33 0 -55.5 19.5t-22.5 63.5v1128q0 44 22.5 63.5t55.5 19.5h646q38 0 38 -103t-38 -103h-462v-316h391q39 0 39 -100.5t-39 -100.5h-391v-365h466zM864.5 1669.5q19.5 -19.5 -12.5 -48.5l-222 -200q-31 -27 -67 -31q-37 -4 -69 -4
q-66 0 -82 12.5t8 40.5l180 204q26 29 49 36q34 10 115 10t100.5 -19.5z" />
    <glyph glyph-name="Ecircumflex" unicode="&#xca;" horiz-adv-x="999" 
d="M869 206q39 0 39 -103t-39 -103h-650q-33 0 -55.5 19.5t-22.5 63.5v1128q0 44 22.5 63.5t55.5 19.5h646q38 0 38 -103t-38 -103h-462v-316h391q39 0 39 -100.5t-39 -100.5h-391v-365h466zM621 1681.5q25 -7.5 49 -33.5l198 -214q26 -28 10.5 -38t-71.5 -10q-95 0 -121 6
t-43 25l-118 137l-122 -134q-24 -29 -65.5 -31.5t-79.5 -2.5q-70 0 -86 10.5t7 37.5l195 214q30 36 96 40q24 2 75 1.5t76 -8z" />
    <glyph glyph-name="Edieresis" unicode="&#xcb;" horiz-adv-x="999" 
d="M869 206q39 0 39 -103t-39 -103h-650q-33 0 -55.5 19.5t-22.5 63.5v1128q0 44 22.5 63.5t55.5 19.5h646q38 0 38 -103t-38 -103h-462v-316h391q39 0 39 -100.5t-39 -100.5h-391v-365h466zM879 1533.5q0 -69.5 -28 -97.5t-105 -28t-103.5 27t-26.5 96.5t27.5 97
t104.5 27.5t104 -26.5t27 -96zM442 1533.5q0 -69.5 -27.5 -97.5t-104.5 -28t-104 27t-27 96.5t28 97t105 27.5t103.5 -26.5t26.5 -96z" />
    <glyph glyph-name="Igrave" unicode="&#xcc;" horiz-adv-x="546" 
d="M273 1300q132 0 132 -42v-1222q0 -42 -132 -42t-132 42v1222q0 42 132 42zM226.5 1394q-26.5 8 -47.5 27l-222 200q-51 45 21 62q26 6 66 6q80 0 110 -8.5t55 -37.5l180 -204q23 -29 10 -38q-21 -15 -83.5 -15t-89 8z" />
    <glyph glyph-name="Iacute" unicode="&#xcd;" horiz-adv-x="546" 
d="M273 1300q132 0 132 -42v-1222q0 -42 -132 -42t-132 42v1222q0 42 132 42zM599.5 1669.5q19.5 -19.5 -12.5 -48.5l-222 -200q-31 -28 -67 -31.5t-68 -3.5q-66 0 -82.5 12.5t7.5 40.5l180 204q26 29 49 36q34 10 115 10t100.5 -19.5z" />
    <glyph glyph-name="Icircumflex" unicode="&#xce;" horiz-adv-x="546" 
d="M273 1300q132 0 132 -42v-1222q0 -42 -132 -42t-132 42v1222q0 42 132 42zM370 1681.5q25 -7.5 49 -33.5l198 -214q26 -28 10.5 -38t-71.5 -10q-95 0 -121 6t-43 25l-118 137l-122 -134q-24 -29 -65.5 -31.5t-79.5 -2.5q-70 0 -86 10.5t7 37.5l195 214q30 36 96 40
q24 2 75 1.5t76 -8z" />
    <glyph glyph-name="Idieresis" unicode="&#xcf;" horiz-adv-x="546" 
d="M273 1300q132 0 132 -42v-1222q0 -42 -132 -42t-132 42v1222q0 42 132 42zM624 1533.5q0 -69.5 -28 -97.5t-105 -28t-103.5 27t-26.5 96.5t27.5 97t104.5 27.5t104 -26.5t27 -96zM187 1533.5q0 -69.5 -27.5 -97.5t-104.5 -28t-104 27t-27 96.5t28 97t105 27.5
t103.5 -26.5t26.5 -96z" />
    <glyph glyph-name="Eth" unicode="&#xd0;" horiz-adv-x="1309" 
d="M619 771q39 0 39 -101.5t-39 -101.5h-197v-360h137q403 0 403 449q0 307 -212 399q-75 32 -193 32h-135v-317h197zM54 771h106v440q0 44 22 63.5t55 19.5h333q491 0 622 -357q43 -117 43 -283q0 -334 -175 -494t-514 -160h-309q-33 0 -55 19.5t-22 63.5v485h-106
q-39 0 -39 101.5t39 101.5z" />
    <glyph glyph-name="Ntilde" unicode="&#xd1;" horiz-adv-x="1349" 
d="M971 1255q0 43 108 43t124 -25q5 -8 5 -18v-1163q0 -45 -27.5 -69.5t-71.5 -24.5h-112q-70 0 -107 32t-87 132l-322 605q-65 126 -109 238h-2q8 -144 8 -291v-677q0 -43 -108 -43t-124 25q-5 8 -5 18v1163q0 47 27.5 70.5t67.5 23.5h141q72 0 109.5 -27.5t76.5 -107.5
l252 -473q21 -42 43 -84q57 -110 118 -245h1q-6 140 -6 291v607zM815 1562q63 0 63 74q0 16 17 21t62 5t60.5 -7.5t15.5 -30.5q0 -115 -56.5 -175t-151.5 -60q-95 -1 -178 49q-31 18 -56.5 34t-55.5 16q-63 0 -63 -73q0 -17 -18.5 -21.5t-62 -4.5t-59 7.5t-15.5 47.5
q0 97 58.5 157.5t152.5 60.5t174 -50q30 -19 56.5 -34.5t56.5 -15.5z" />
    <glyph glyph-name="Ograve" unicode="&#xd2;" horiz-adv-x="1385" 
d="M689 194q340 0 340 458q0 215 -75.5 332t-256 117t-268.5 -134q-73 -111 -73 -325t74 -331t259 -117zM1305 666q0 -329 -160.5 -509t-463.5 -180q-453 0 -563 366q-38 125 -38 289q0 326 161 505.5t464 179.5q600 1 600 -651zM633.5 1394q-26.5 8 -47.5 27l-222 200
q-52 45 20 62q26 6 68 6q80 0 109.5 -8.5t54.5 -37.5l180 -204q23 -29 10 -38q-21 -15 -83.5 -15t-89 8z" />
    <glyph glyph-name="Oacute" unicode="&#xd3;" horiz-adv-x="1385" 
d="M689 194q340 0 340 458q0 215 -75.5 332t-256 117t-268.5 -134q-73 -111 -73 -325t74 -331t259 -117zM1305 666q0 -329 -160.5 -509t-463.5 -180q-453 0 -563 366q-38 125 -38 289q0 326 161 505.5t464 179.5q600 1 600 -651zM1022.5 1669.5q19.5 -19.5 -12.5 -48.5
l-222 -200q-31 -27 -67 -31q-37 -4 -69 -4q-66 0 -82 12.5t8 40.5l180 204q26 29 49 36q34 10 115 10t100.5 -19.5z" />
    <glyph glyph-name="Ocircumflex" unicode="&#xd4;" horiz-adv-x="1385" 
d="M689 194q340 0 340 458q0 215 -75.5 332t-256 117t-268.5 -134q-73 -111 -73 -325t74 -331t259 -117zM1305 666q0 -329 -160.5 -509t-463.5 -180q-453 0 -563 366q-38 125 -38 289q0 326 161 505.5t464 179.5q600 1 600 -651zM791 1681.5q25 -7.5 49 -33.5l198 -214
q26 -28 10.5 -38t-71.5 -10q-95 0 -121 6t-43 25l-118 137l-122 -134q-24 -29 -65.5 -31.5t-79.5 -2.5q-70 0 -86 10.5t7 37.5l195 214q30 36 96 40q24 2 75 1.5t76 -8z" />
    <glyph glyph-name="Otilde" unicode="&#xd5;" horiz-adv-x="1385" 
d="M689 194q340 0 340 458q0 215 -75.5 332t-256 117t-268.5 -134q-73 -111 -73 -325t74 -331t259 -117zM1305 666q0 -329 -160.5 -509t-463.5 -180q-453 0 -563 366q-38 125 -38 289q0 326 161 505.5t464 179.5q600 1 600 -651zM836 1562q63 0 63 74q0 16 17 21t62 5
t60.5 -7.5t15.5 -30.5q0 -115 -56.5 -175t-151.5 -60q-95 -1 -178 49q-31 18 -56.5 34t-55.5 16q-63 0 -63 -73q0 -17 -18.5 -21.5t-62 -4.5t-59 7.5t-15.5 47.5q0 97 58.5 157.5t152.5 60.5q95 0 175 -50q30 -19 56 -34.5t56 -15.5z" />
    <glyph glyph-name="Odieresis" unicode="&#xd6;" horiz-adv-x="1385" 
d="M689 194q340 0 340 458q0 215 -75.5 332t-256 117t-268.5 -134q-73 -111 -73 -325t74 -331t259 -117zM1305 666q0 -329 -160.5 -509t-463.5 -180q-453 0 -563 366q-38 125 -38 289q0 326 161 505.5t464 179.5q600 1 600 -651zM1045 1533.5q0 -69.5 -28 -97.5t-105 -28
t-103.5 27t-26.5 96.5t27.5 97t104.5 27.5t104 -26.5t27 -96zM608 1533.5q0 -69.5 -27.5 -97.5t-104.5 -28t-104 27t-27 96.5t28 97t105 27.5t103.5 -26.5t26.5 -96z" />
    <glyph glyph-name="multiply" unicode="&#xd7;" horiz-adv-x="1020" 
d="M888.5 193.5q-44.5 -42.5 -64.5 -42.5t-35 12l-279 280l-278 -276q-13 -13 -31 -13q-33 0 -75 44t-42 66t12 34l280 279l-277 278q-13 16 -13 32q0 32 44.5 74.5t66.5 42.5t34 -13l279 -280l277 277q13 13 31 13q34 0 76 -44.5t42 -67.5q0 -22 -12 -32l-281 -280
l277 -276q13 -13 13 -39t-44.5 -68.5z" />
    <glyph glyph-name="Oslash" unicode="&#xd8;" horiz-adv-x="1394" 
d="M678 1108q-82 0 -149 -36q-182 -99 -182 -421q0 -222 82 -334l379 771q-48 20 -130 20zM697 188q351 0 351 466q0 205 -83 323l-377 -770q51 -19 109 -19zM1314 662q0 -325 -162 -505t-467 -180q-108 0 -189 25l-95 -194q-12 -23 -49.5 -27t-69.5 -4q-66 0 -86 14.5
t-8 41.5l118 241q-226 156 -226 565q0 319 162 498.5t467 179.5q96 0 190 -26l91 188q12 24 50 27.5t70 3.5q64 0 85 -14t8 -42l-115 -236q226 -160 226 -556z" />
    <glyph glyph-name="Ugrave" unicode="&#xd9;" horiz-adv-x="1337" 
d="M1068 1300q129 0 129 -42v-776q0 -240 -138.5 -372.5t-397.5 -132.5q-379 -1 -485 277q-36 92 -36 217v787q0 22 22 29q40 13 110 13q131 0 131 -42v-764q1 -222 159 -282q50 -18 110 -19q124 0 194.5 75.5t70.5 210.5v779q0 22 21 29q39 13 110 13zM597.5 1394
q-26.5 8 -47.5 27l-222 200q-52 45 20 62q26 6 68 6q80 0 109.5 -8.5t54.5 -37.5l180 -204q23 -29 10 -38q-21 -15 -83.5 -15t-89 8z" />
    <glyph glyph-name="Uacute" unicode="&#xda;" horiz-adv-x="1337" 
d="M1068 1300q129 0 129 -42v-776q0 -240 -138.5 -372.5t-397.5 -132.5q-379 -1 -485 277q-36 92 -36 217v787q0 22 22 29q40 13 110 13q131 0 131 -42v-764q1 -222 159 -282q50 -18 110 -19q124 0 194.5 75.5t70.5 210.5v779q0 22 21 29q39 13 110 13zM1005.5 1669.5
q19.5 -19.5 -12.5 -48.5l-222 -200q-31 -28 -67 -31.5t-68 -3.5q-66 0 -82.5 12.5t7.5 40.5l180 204q26 29 49 36q34 10 115 10t100.5 -19.5z" />
    <glyph glyph-name="Ucircumflex" unicode="&#xdb;" horiz-adv-x="1337" 
d="M1068 1300q129 0 129 -42v-776q0 -240 -138.5 -372.5t-397.5 -132.5q-379 -1 -485 277q-36 92 -36 217v787q0 22 22 29q40 13 110 13q131 0 131 -42v-764q1 -222 159 -282q50 -18 110 -19q124 0 194.5 75.5t70.5 210.5v779q0 22 21 29q39 13 110 13zM762 1681.5
q25 -7.5 49 -33.5l198 -214q26 -28 10.5 -38t-71.5 -10q-95 0 -121 6t-43 25l-118 137l-122 -134q-24 -29 -65.5 -31.5t-79.5 -2.5q-70 0 -86 10.5t7 37.5l195 214q30 36 96 40q24 2 75 1.5t76 -8z" />
    <glyph glyph-name="Udieresis" unicode="&#xdc;" horiz-adv-x="1337" 
d="M1068 1300q129 0 129 -42v-776q0 -240 -138.5 -372.5t-397.5 -132.5q-379 -1 -485 277q-36 92 -36 217v787q0 22 22 29q40 13 110 13q131 0 131 -42v-764q1 -222 159 -282q50 -18 110 -19q124 0 194.5 75.5t70.5 210.5v779q0 22 21 29q39 13 110 13zM1017 1533.5
q0 -69.5 -28 -97.5t-105 -28t-103.5 27t-26.5 96.5t27.5 97t104.5 27.5t104 -26.5t27 -96zM580 1533.5q0 -69.5 -27.5 -97.5t-104.5 -28t-104 27t-27 96.5t28 97t105 27.5t103.5 -26.5t26.5 -96z" />
    <glyph glyph-name="Yacute" unicode="&#xdd;" horiz-adv-x="1064" 
d="M664 36q0 -42 -120 -42t-138 24q-6 8 -6 18v455l-354 705q-37 72 -22 86t46 16q32 2 82 2q94 0 119 -8.5t40 -38.5l144 -318q36 -80 83 -204h2q31 89 78 202l142 316q10 31 35 41t96 10q129 0 146 -16t-19 -88l-354 -705v-455zM903.5 1669.5q19.5 -19.5 -12.5 -48.5
l-222 -200q-31 -28 -67 -31.5t-68 -3.5q-66 0 -82.5 12.5t7.5 40.5l180 204q26 29 49 36q34 10 115 10t100.5 -19.5z" />
    <glyph glyph-name="Thorn" unicode="&#xde;" horiz-adv-x="1090" 
d="M752 675q0 209 -234 209h-114v-438h135q155 0 199 136q14 42 14 93zM404 1262v-175h131q383 -1 470 -251q22 -64 22 -157q0 -202 -131.5 -319.5t-370.5 -117.5h-121v-212q0 -32 -68 -37q-26 -2 -64 -2q-78 0 -104.5 9t-26.5 30v1232q0 40 131.5 40t131.5 -40z" />
    <glyph glyph-name="germandbls" unicode="&#xdf;" horiz-adv-x="1136" 
d="M562 1199q-183 0 -183 -234v-923q0 -25 -20 -33.5t-44.5 -11.5t-61.5 -3q-70 0 -98 11.5t-28 36.5v918q-1 320 253 410q82 30 186 30q198 0 305 -92.5t107 -243.5q0 -104 -22 -158.5t-34.5 -65t-41.5 -10.5q-61 0 -92.5 -26.5t-31.5 -68t24.5 -70t61 -53.5t78.5 -51
q164 -100 164 -265q0 -139 -97.5 -228t-268.5 -89q-94 -1 -166 33q-18 8 -31 21t-13 93.5t36 80.5q12 0 25 -7t30.5 -15.5t41 -15.5t56.5 -7q63 0 98 31.5t35 71.5t-14 62t-36.5 41.5t-52 37.5t-59.5 38q-74 49 -117.5 110t-43.5 161q0 146 119 215q38 22 85 33q12 33 12 72
q0 76 -41 120t-120 44z" />
    <glyph glyph-name="agrave" unicode="&#xe0;" horiz-adv-x="1011" 
d="M451 155q94 0 188 106v152h-96q-226 0 -226 -138q0 -56 35.5 -88t98.5 -32zM165 702q-45 0 -45 101q0 57 19 76q37 38 140 71t210 33q210 0 303.5 -82.5t93.5 -269.5v-600q0 -27 -42 -33q-22 -4 -65 -4t-63 4q-38 6 -38 33v71q-117 -125 -272.5 -125t-245 75t-89.5 215
q0 304 481 304h87v54q-1 130 -89 157q-32 10 -87.5 10t-105 -14t-87.5 -31t-63.5 -31t-41.5 -14zM457 1090.5q-24 7.5 -40 27.5l-193 232q-50 54 104 54q71 0 97.5 -8t44.5 -32l143 -229q19 -28 8 -37q-20 -15 -80 -15t-84 7.5z" />
    <glyph glyph-name="aacute" unicode="&#xe1;" horiz-adv-x="1011" 
d="M451 155q94 0 188 106v152h-96q-226 0 -226 -138q0 -56 35.5 -88t98.5 -32zM165 702q-45 0 -45 101q0 57 19 76q37 38 140 71t210 33q210 0 303.5 -82.5t93.5 -269.5v-600q0 -27 -42 -33q-22 -4 -65 -4t-63 4q-38 6 -38 33v71q-117 -125 -272.5 -125t-245 75t-89.5 215
q0 304 481 304h87v54q-1 130 -89 157q-32 10 -87.5 10t-105 -14t-87.5 -31t-63.5 -31t-41.5 -14zM687 1404q124 0 121 -33q-1 -10 -10 -21l-194 -232q-23 -28 -55 -31.5t-64 -3.5q-66 0 -81 12.5t4 39.5l143 229q21 33 80 38q23 2 56 2z" />
    <glyph glyph-name="acircumflex" unicode="&#xe2;" horiz-adv-x="1011" 
d="M451 155q94 0 188 106v152h-96q-226 0 -226 -138q0 -56 35.5 -88t98.5 -32zM165 702q-45 0 -45 101q0 57 19 76q37 38 140 71t210 33q210 0 303.5 -82.5t93.5 -269.5v-600q0 -27 -42 -33q-22 -4 -65 -4t-63 4q-38 6 -38 33v71q-117 -125 -272.5 -125t-245 75t-89.5 215
q0 304 481 304h87v54q-1 130 -89 157q-32 10 -87.5 10t-105 -14t-87.5 -31t-63.5 -31t-41.5 -14zM210 1096.5q-13 13.5 17 52.5l158 223q16 26 58 29q41 3 73 3q100 0 129 -32l157 -223q29 -39 16 -52.5t-66 -13.5q-82 0 -100.5 6.5t-32.5 28.5l-104 150l-104 -150
q-15 -23 -30 -28q-25 -7 -91.5 -7t-79.5 13.5z" />
    <glyph glyph-name="atilde" unicode="&#xe3;" horiz-adv-x="1011" 
d="M451 155q94 0 188 106v152h-96q-226 0 -226 -138q0 -56 35.5 -88t98.5 -32zM165 702q-45 0 -45 101q0 57 19 76q37 38 140 71t210 33q210 0 303.5 -82.5t93.5 -269.5v-600q0 -27 -42 -33q-22 -4 -65 -4t-63 4q-38 6 -38 33v71q-117 -125 -272.5 -125t-245 75t-89.5 215
q0 304 481 304h87v54q-1 130 -89 157q-32 10 -87.5 10t-105 -14t-87.5 -31t-63.5 -31t-41.5 -14zM649 1263q62 0 62 85q0 17 15 22.5t60.5 5.5t62 -7.5t16.5 -32.5q0 -121 -57.5 -185.5t-143 -64.5t-124.5 21t-58.5 35.5t-49.5 35.5t-61 21q-61 0 -61 -85q0 -18 -15 -23
t-50 -5q-58 0 -73.5 8t-15.5 33q0 116 56 182.5t151 66.5t175 -56q30 -22 56.5 -39.5t54.5 -17.5z" />
    <glyph glyph-name="adieresis" unicode="&#xe4;" horiz-adv-x="1011" 
d="M451 155q94 0 188 106v152h-96q-226 0 -226 -138q0 -56 35.5 -88t98.5 -32zM165 702q-45 0 -45 101q0 57 19 76q37 38 140 71t210 33q210 0 303.5 -82.5t93.5 -269.5v-600q0 -27 -42 -33q-22 -4 -65 -4t-63 4q-38 6 -38 33v71q-117 -125 -272.5 -125t-245 75t-89.5 215
q0 304 481 304h87v54q-1 130 -89 157q-32 10 -87.5 10t-105 -14t-87.5 -31t-63.5 -31t-41.5 -14zM834 1226q0 -69 -26.5 -96.5t-101 -27.5t-100.5 26.5t-26 96t26.5 96.5t101 27t100.5 -26.5t26 -95.5zM443 1226q0 -69 -26.5 -96.5t-101 -27.5t-100.5 26.5t-26 96t27 96.5
t101.5 27t100 -26.5t25.5 -95.5z" />
    <glyph glyph-name="aring" unicode="&#xe5;" horiz-adv-x="1011" 
d="M451 155q94 0 188 106v152h-96q-226 0 -226 -138q0 -56 35.5 -88t98.5 -32zM165 702q-45 0 -45 101q0 57 19 76q37 38 140 71t210 33q210 0 303.5 -82.5t93.5 -269.5v-600q0 -27 -42 -33q-22 -4 -65 -4t-63 4q-38 6 -38 33v71q-117 -125 -272.5 -125t-245 75t-89.5 215
q0 304 481 304h87v54q-1 130 -89 157q-32 10 -87.5 10t-105 -14t-87.5 -31t-63.5 -31t-41.5 -14zM508 1347q-81 0 -81 -85t83.5 -85t83.5 85t-86 85zM506 1067q-229 0 -229 192q0 145 136 185q44 13 101 13q113 0 171.5 -49t58.5 -142q0 -144 -137 -186q-44 -14 -101 -13z
" />
    <glyph glyph-name="ae" unicode="&#xe6;" horiz-adv-x="1587" 
d="M637 413h-94q-226 0 -226 -138q0 -56 35.5 -88t93.5 -32q106 0 209 124q-18 49 -18 134zM1079 805q-91 0 -140 -63t-53 -164h377q3 163 -101 211q-35 16 -83 16zM797 859q99 124 301.5 124t305 -120t102.5 -318v-39q0 -90 -77 -90h-543q0 -249 249 -249q103 0 168.5 21
t90 30.5t36.5 9.5q36 0 35 -70q0 -74 -7 -88.5t-14 -21.5q-19 -19 -119.5 -45t-213.5 -26q-266 0 -376 157q-126 -157 -339 -157q-146 0 -235.5 75t-89.5 214q0 305 481 305h87v54q-1 130 -89 157q-32 10 -87.5 10t-105 -14t-87.5 -31t-64.5 -31t-41.5 -14q-44 0 -44 101
q0 57 19 76q37 38 140 71t213 33q219 0 305 -124z" />
    <glyph glyph-name="ccedilla" unicode="&#xe7;" horiz-adv-x="857" 
d="M330 481q0 -293 205 -293q98 0 202 84q19 16 30 16q34 0 34 -95q1 -85 -7 -101q-13 -29 -73.5 -63t-148.5 -45l22 -50q34 -74 34 -122q0 -91 -61 -134t-164 -43t-169 31q-22 11 -22 59.5t7.5 64t27.5 15.5h116q57 0 57 47q0 21 -16 58l-39 85q-293 75 -293 468
q0 258 122.5 388.5t326.5 130.5q117 0 211 -53q40 -23 48 -37q17 -28 17 -116t-36 -88q-17 0 -36 14t-45 31q-69 45 -157.5 45t-140.5 -75.5t-52 -221.5z" />
    <glyph glyph-name="egrave" unicode="&#xe8;" horiz-adv-x="1031" 
d="M523 805q-137 -1 -179 -139q-12 -42 -14 -88h376q3 106 -42.5 166.5t-140.5 60.5zM330 416q0 -249 244 -249q133 -1 263 51q24 10 36 10q21 0 28 -16t7 -52.5t-1 -52t-3 -26.5t-6 -18.5t-10 -14.5q-18 -19 -120 -45t-219 -26q-475 0 -475 493q0 240 121 376.5t334 136.5
t317 -119t104 -318v-40q0 -90 -77 -90h-543zM464 1090.5q-24 7.5 -40 27.5l-193 232q-49 54 105 54q71 0 97 -8t44 -32l143 -229q19 -28 8 -37q-20 -15 -80 -15t-84 7.5z" />
    <glyph glyph-name="eacute" unicode="&#xe9;" horiz-adv-x="1031" 
d="M523 805q-137 -1 -179 -139q-12 -42 -14 -88h376q3 106 -42.5 166.5t-140.5 60.5zM330 416q0 -249 244 -249q133 -1 263 51q24 10 36 10q21 0 28 -16t7 -52.5t-1 -52t-3 -26.5t-6 -18.5t-10 -14.5q-18 -19 -120 -45t-219 -26q-475 0 -475 493q0 240 121 376.5t334 136.5
t317 -119t104 -318v-40q0 -90 -77 -90h-543zM701 1404q124 0 121 -33q-1 -10 -10 -21l-194 -232q-23 -28 -55 -31.5t-64 -3.5q-66 0 -81 12.5t4 39.5l143 229q21 33 80 38q23 2 56 2z" />
    <glyph glyph-name="ecircumflex" unicode="&#xea;" horiz-adv-x="1031" 
d="M523 805q-137 -1 -179 -139q-12 -42 -14 -88h376q3 106 -42.5 166.5t-140.5 60.5zM330 416q0 -249 244 -249q133 -1 263 51q24 10 36 10q21 0 28 -16t7 -52.5t-1 -52t-3 -26.5t-6 -18.5t-10 -14.5q-18 -19 -120 -45t-219 -26q-475 0 -475 493q0 240 121 376.5t334 136.5
t317 -119t104 -318v-40q0 -90 -77 -90h-543zM216 1096.5q-13 13.5 17 52.5l158 223q16 26 58 29q41 3 73 3q101 0 129 -32l157 -223q29 -39 16 -52.5t-66 -13.5q-82 0 -100.5 6.5t-32.5 28.5l-104 150l-104 -150q-15 -23 -30 -28q-25 -7 -91.5 -7t-79.5 13.5z" />
    <glyph glyph-name="edieresis" unicode="&#xeb;" horiz-adv-x="1031" 
d="M523 805q-137 -1 -179 -139q-12 -42 -14 -88h376q3 106 -42.5 166.5t-140.5 60.5zM330 416q0 -249 244 -249q133 -1 263 51q24 10 36 10q21 0 28 -16t7 -52.5t-1 -52t-3 -26.5t-6 -18.5t-10 -14.5q-18 -19 -120 -45t-219 -26q-475 0 -475 493q0 240 121 376.5t334 136.5
t317 -119t104 -318v-40q0 -90 -77 -90h-543zM843 1226q0 -69 -26.5 -96.5t-101 -27.5t-100.5 26.5t-26 96t26.5 96.5t101 27t100.5 -26.5t26 -95.5zM452 1226q0 -69 -26.5 -96.5t-101 -27.5t-100.5 26.5t-26 96t27 96.5t101.5 27t100 -26.5t25.5 -95.5z" />
    <glyph glyph-name="igrave" unicode="&#xec;" horiz-adv-x="503" 
d="M252 966q126 0 126 -40v-892q0 -21 -20 -28q-35 -12 -106 -12q-126 0 -126 40v892q0 21 20 28q36 12 106 12zM210 1090.5q-24 7.5 -40 27.5l-193 232q-49 54 105 54q71 0 97 -8t44 -32l143 -229q19 -28 8 -37q-20 -15 -80 -15t-84 7.5z" />
    <glyph glyph-name="iacute" unicode="&#xed;" horiz-adv-x="503" 
d="M252 966q126 0 126 -40v-892q0 -21 -20 -28q-35 -12 -106 -12q-126 0 -126 40v892q0 21 20 28q36 12 106 12zM418 1404q124 0 121 -33q-1 -10 -10 -21l-194 -232q-23 -28 -55 -31.5t-64 -3.5q-66 0 -81 12.5t4 39.5l143 229q21 33 80 38q23 2 56 2z" />
    <glyph glyph-name="icircumflex" unicode="&#xee;" horiz-adv-x="503" 
d="M252 966q126 0 126 -40v-892q0 -21 -20 -28q-35 -12 -106 -12q-126 0 -126 40v892q0 21 20 28q36 12 106 12zM-51 1096.5q-13 13.5 17 52.5l158 223q16 26 58 29t74 3q101 0 128 -32l157 -223q29 -39 16 -52.5t-66 -13.5q-82 0 -100.5 6.5t-32.5 28.5l-104 150l-104 -150
q-15 -23 -30 -28q-25 -7 -91.5 -7t-79.5 13.5z" />
    <glyph glyph-name="idieresis" unicode="&#xef;" horiz-adv-x="503" 
d="M252 966q126 0 126 -40v-892q0 -21 -20 -28q-35 -12 -106 -12q-126 0 -126 40v892q0 21 20 28q36 12 106 12zM543 1226q0 -69 -26 -96.5t-96.5 -27.5t-95 26.5t-24.5 95.5t25.5 96.5t96 27.5t95.5 -26.5t25 -95.5zM207 1226q0 -69 -26 -96.5t-96.5 -27.5t-95.5 26.5
t-25 95.5t26 96.5t96.5 27.5t95.5 -26.5t25 -95.5z" />
    <glyph glyph-name="eth" unicode="&#xf0;" horiz-adv-x="1099" 
d="M332 485q0 -205 96 -271q34 -24 86 -24q109 0 162.5 85t53.5 209.5t-3 148.5q-124 136 -212.5 136t-135.5 -79.5t-47 -204.5zM254 1188.5q9 17.5 36 21.5l148 37q-10 11 -34 36l-36 38q-31 33 -33.5 42t17 20t89.5 11q106 0 136.5 -7t53.5 -28q19 -21 33.5 -36.5
t16.5 -18.5l247 59q37 9 42 -28q2 -15 2 -39q0 -49 -9.5 -65.5t-35.5 -22.5l-136 -33q158 -211 187 -432q10 -77 10 -166q0 -600 -483 -600q-429 0 -429 491q0 250 104.5 382.5t284.5 132.5q112 0 222 -90q-48 123 -135 226l-263 -64q-27 -6 -35.5 7.5t-8.5 61t9 65z" />
    <glyph glyph-name="ntilde" unicode="&#xf1;" horiz-adv-x="1099" 
d="M252 -6q-126 0 -126 40v892q0 40 94 40q76 0 98.5 -9.5t22.5 -30.5v-103q148 160 310 160q327 0 327 -398v-551q0 -40 -113.5 -40t-131.5 22q-6 8 -6 18v509q0 221 -150 221q-91 0 -199 -137v-593q0 -21 -20 -28q-36 -12 -106 -12zM693 1263q62 0 62 85q0 17 15 22.5
t60.5 5.5t62 -7.5t16.5 -32.5q0 -121 -57.5 -185.5t-143 -64.5t-124.5 21t-58.5 35.5t-49.5 35.5t-61 21q-61 0 -61 -85q0 -18 -15 -23t-50 -5q-58 0 -73.5 8t-15.5 33q0 116 56 182.5t151 66.5t175 -56q30 -22 56.5 -39.5t54.5 -17.5z" />
    <glyph glyph-name="ograve" unicode="&#xf2;" horiz-adv-x="1101" 
d="M556 784q-224 0 -225 -302q0 -222 113 -282q42 -22 104 -22q221 0 221.5 303t-213.5 303zM561 983q467 0 467 -494q0 -235 -124 -373.5t-365 -138.5q-467 0 -467 494q0 236 125 374t364 138zM500 1090.5q-24 7.5 -40 27.5l-193 232q-49 54 105 54q71 0 97 -8t44 -32
l143 -229q19 -28 8 -37q-20 -15 -80 -15t-84 7.5z" />
    <glyph glyph-name="oacute" unicode="&#xf3;" horiz-adv-x="1101" 
d="M556 784q-224 0 -225 -302q0 -222 113 -282q42 -22 104 -22q221 0 221.5 303t-213.5 303zM561 983q467 0 467 -494q0 -235 -124 -373.5t-365 -138.5q-467 0 -467 494q0 236 125 374t364 138zM735 1404q124 0 121 -33q-1 -10 -10 -21l-194 -232q-23 -28 -55 -31.5
t-64 -3.5q-66 0 -81 12.5t4 39.5l143 229q21 33 80 38q23 2 56 2z" />
    <glyph glyph-name="ocircumflex" unicode="&#xf4;" horiz-adv-x="1101" 
d="M556 784q-224 0 -225 -302q0 -222 113 -282q42 -22 104 -22q221 0 221.5 303t-213.5 303zM561 983q467 0 467 -494q0 -235 -124 -373.5t-365 -138.5q-467 0 -467 494q0 236 125 374t364 138zM247 1096.5q-13 13.5 17 52.5l158 223q16 26 58 29t74 3q100 0 128 -32
l157 -223q29 -39 16 -52.5t-66 -13.5q-82 0 -100.5 6.5t-32.5 28.5l-104 150l-104 -150q-15 -23 -30 -28q-25 -7 -91.5 -7t-79.5 13.5z" />
    <glyph glyph-name="otilde" unicode="&#xf5;" horiz-adv-x="1101" 
d="M556 784q-224 0 -225 -302q0 -222 113 -282q42 -22 104 -22q221 0 221.5 303t-213.5 303zM561 983q467 0 467 -494q0 -235 -124 -373.5t-365 -138.5q-467 0 -467 494q0 236 125 374t364 138zM691 1263q62 0 62 85q0 17 15 22.5t60.5 5.5t62 -7.5t16.5 -32.5
q0 -121 -57.5 -185.5t-143 -64.5t-124.5 21t-58.5 35.5t-49.5 35.5t-61 21q-61 0 -61 -85q0 -18 -15 -23t-50 -5q-59 0 -74 8t-15 33q0 116 56 182.5t151 66.5t175 -56q30 -22 56.5 -39.5t54.5 -17.5z" />
    <glyph glyph-name="odieresis" unicode="&#xf6;" horiz-adv-x="1101" 
d="M556 784q-224 0 -225 -302q0 -222 113 -282q42 -22 104 -22q221 0 221.5 303t-213.5 303zM561 983q467 0 467 -494q0 -235 -124 -373.5t-365 -138.5q-467 0 -467 494q0 236 125 374t364 138zM876 1226q0 -69 -26.5 -96.5t-101 -27.5t-100.5 26.5t-26 96t26.5 96.5t101 27
t100.5 -26.5t26 -95.5zM485 1226q0 -69 -26.5 -96.5t-101 -27.5t-100.5 26.5t-26 96t27 96.5t101.5 27t100 -26.5t25.5 -95.5z" />
    <glyph glyph-name="divide" unicode="&#xf7;" horiz-adv-x="1020" 
d="M618.5 76.5q-31.5 -33.5 -94.5 -33.5q-103 0 -134 33t-31 96q0 107 31 140.5t93 33.5t90.5 -8t52.5 -34t24 -110t-31.5 -117.5zM939 672q37 0 37 -96.5t-37 -96.5h-869q-36 0 -36 96.5t36 96.5h869zM618.5 838q-31.5 -34 -93.5 -34q-63 0 -91 8t-44.5 26t-23.5 46t-7 92
t31.5 98t92.5 34q62 0 90.5 -8.5t52.5 -34.5t24 -109.5t-31.5 -117.5z" />
    <glyph glyph-name="oslash" unicode="&#xf8;" horiz-adv-x="1114" 
d="M538 801q-106 0 -167 -83.5t-61 -232t57 -214.5l249 521q-30 9 -78 9zM668 182q136 64 136 292q0 147 -57 215l-248 -519q26 -10 74.5 -10t94.5 22zM1042 489q0 -234 -126.5 -373t-369.5 -139q-70 0 -128 15l-66 -138q-13 -29 -86 -29t-91 11.5t-6 35.5l85 178
q-182 116 -182 421q0 364 278 475q93 37 189 37t156 -14l63 132q15 29 86.5 29t90 -11t6.5 -36l-82 -172q183 -117 183 -422z" />
    <glyph glyph-name="ugrave" unicode="&#xf9;" horiz-adv-x="1099" 
d="M448 -23q-327 0 -327 403v546q0 40 108 40q87 0 115 -9.5t28 -30.5v-504q0 -226 150 -226q88 0 200 137v593q0 21 20 28q34 12 105 12q125 0 125 -40v-892q0 -40 -94 -40q-75 0 -98 9.5t-23 30.5v103q-148 -160 -309 -160zM478 1090.5q-24 7.5 -40 27.5l-193 232
q-49 54 105 54q71 0 97 -8t44 -32l143 -229q19 -28 8 -37q-20 -15 -80 -15t-84 7.5z" />
    <glyph glyph-name="uacute" unicode="&#xfa;" horiz-adv-x="1099" 
d="M448 -23q-327 0 -327 403v546q0 40 108 40q87 0 115 -9.5t28 -30.5v-504q0 -226 150 -226q88 0 200 137v593q0 21 20 28q34 12 105 12q125 0 125 -40v-892q0 -40 -94 -40q-75 0 -98 9.5t-23 30.5v103q-148 -160 -309 -160zM734 1404q124 0 121 -33q-1 -10 -10 -21
l-194 -232q-23 -28 -55 -31.5t-64 -3.5q-66 0 -81 12.5t4 39.5l143 229q21 33 80 38q23 2 56 2z" />
    <glyph glyph-name="ucircumflex" unicode="&#xfb;" horiz-adv-x="1099" 
d="M448 -23q-327 0 -327 403v546q0 40 108 40q87 0 115 -9.5t28 -30.5v-504q0 -226 150 -226q88 0 200 137v593q0 21 20 28q34 12 105 12q125 0 125 -40v-892q0 -40 -94 -40q-75 0 -98 9.5t-23 30.5v103q-148 -160 -309 -160zM244 1096.5q-13 13.5 17 52.5l158 223
q16 26 58 29q41 3 73 3q101 0 129 -32l157 -223q29 -39 16 -52.5t-66 -13.5q-82 0 -100.5 6.5t-32.5 28.5l-104 150l-104 -150q-15 -23 -30 -28q-25 -7 -91.5 -7t-79.5 13.5z" />
    <glyph glyph-name="udieresis" unicode="&#xfc;" horiz-adv-x="1099" 
d="M448 -23q-327 0 -327 403v546q0 40 108 40q87 0 115 -9.5t28 -30.5v-504q0 -226 150 -226q88 0 200 137v593q0 21 20 28q34 12 105 12q125 0 125 -40v-892q0 -40 -94 -40q-75 0 -98 9.5t-23 30.5v103q-148 -160 -309 -160zM872 1226q0 -69 -26.5 -96.5t-101 -27.5
t-100.5 26.5t-26 96t26.5 96.5t101 27t100.5 -26.5t26 -95.5zM481 1226q0 -69 -26.5 -96.5t-101 -27.5t-100.5 26.5t-26 96t27 96.5t101.5 27t100 -26.5t25.5 -95.5z" />
    <glyph glyph-name="yacute" unicode="&#xfd;" horiz-adv-x="970" 
d="M22 918q0 48 102 48q112 0 133 -9t35 -54l210 -597h3l192 609q6 26 20 38.5t80.5 12.5t95 -4t42 -15t13.5 -29.5t-8 -43.5l-405 -1190q-17 -47 -130.5 -47t-135 14.5t-7.5 49.5l119 299q-27 13 -39 45l-307 820q-13 35 -13 53zM681 1404q124 0 121 -33q-1 -10 -10 -21
l-194 -232q-23 -28 -55 -31.5t-64 -3.5q-66 0 -81 12.5t4 39.5l143 229q21 33 80 38q23 2 56 2z" />
    <glyph glyph-name="thorn" unicode="&#xfe;" horiz-adv-x="1099" 
d="M762 445q0 158 -41 240.5t-138.5 82.5t-204.5 -143v-294q111 -140 202 -140t136.5 84t45.5 170zM252 1392q126 0 126 -43v-493q71 67 137 97t155 30q176 0 265 -136t89 -355q0 -372 -222 -480q-72 -36 -138 -35q-103 0 -161.5 29.5t-124.5 93.5v-420q0 -43 -126 -43
t-126 43v1669q0 43 126 43z" />
    <glyph glyph-name="ydieresis" unicode="&#xff;" horiz-adv-x="970" 
d="M22 918q0 48 102 48q112 0 133 -9t35 -54l210 -597h3l192 609q6 26 20 38.5t80.5 12.5t95 -4t42 -15t13.5 -29.5t-8 -43.5l-405 -1190q-17 -47 -130.5 -47t-135 14.5t-7.5 49.5l119 299q-27 13 -39 45l-307 820q-13 35 -13 53zM813 1226q0 -69 -26.5 -96.5t-101 -27.5
t-100.5 26.5t-26 96t26.5 96.5t101 27t100.5 -26.5t26 -95.5zM422 1226q0 -69 -26.5 -96.5t-101 -27.5t-100.5 26.5t-26 96t27 96.5t101.5 27t100 -26.5t25.5 -95.5z" />
    <glyph glyph-name="Amacron" unicode="&#x100;" horiz-adv-x="1241" 
d="M607 1047h-1l-183 -550h367zM970 1q-24 7 -32 34l-87 260h-486l-82 -253q-9 -30 -33 -39t-89 -9q-113 0 -128.5 18t8.5 88l399 1148q12 35 39.5 43.5t108.5 8.5q141 0 171 -8.5t42 -46.5l400 -1147q24 -72 10 -85.5t-42 -16t-101.5 -2.5t-97.5 7zM921 1616q40 0 40 -84
q1 -84 -21 -96q-8 -4 -19 -5h-590q-44 -1 -44 79q0 62 10 84t34 22h590z" />
    <glyph glyph-name="amacron" unicode="&#x101;" horiz-adv-x="1011" 
d="M451 155q94 0 188 106v152h-96q-226 0 -226 -138q0 -56 35.5 -88t98.5 -32zM165 702q-45 0 -45 101q0 57 19 76q37 38 140 71t210 33q210 0 303.5 -82.5t93.5 -269.5v-600q0 -27 -42 -33q-22 -4 -65 -4t-63 4q-38 6 -38 33v71q-117 -125 -272.5 -125t-245 75t-89.5 215
q0 304 481 304h87v54q-1 130 -89 157q-32 10 -87.5 10t-105 -14t-87.5 -31t-63.5 -31t-41.5 -14zM767 1323q23 0 29.5 -15.5t9 -33t2.5 -43.5q0 -48 -9 -69.5t-32 -21.5h-510q-44 0 -44 79q0 62 10 83t34 21h510z" />
    <glyph glyph-name="Abreve" unicode="&#x102;" horiz-adv-x="1241" 
d="M607 1047h-1l-183 -550h367zM970 1q-24 7 -32 34l-87 260h-486l-82 -253q-9 -30 -33 -39t-89 -9q-113 0 -128.5 18t8.5 88l399 1148q12 35 39.5 43.5t108.5 8.5q141 0 171 -8.5t42 -46.5l400 -1147q24 -72 10 -85.5t-42 -16t-101.5 -2.5t-97.5 7zM924 1661
q0 -199 -170 -256q-56 -19 -133 -19q-148 0 -222.5 72.5t-74.5 202.5q0 20 17.5 28t66 8t68.5 -7q18 -6 20 -24q5 -55 35.5 -87.5t83.5 -32.5t80.5 16.5t40.5 41.5t15.5 49.5t19 34t66.5 9.5t68.5 -8t18.5 -28z" />
    <glyph glyph-name="abreve" unicode="&#x103;" horiz-adv-x="1011" 
d="M451 155q94 0 188 106v152h-96q-226 0 -226 -138q0 -56 35.5 -88t98.5 -32zM165 702q-45 0 -45 101q0 57 19 76q37 38 140 71t210 33q210 0 303.5 -82.5t93.5 -269.5v-600q0 -27 -42 -33q-22 -4 -65 -4t-63 4q-38 6 -38 33v71q-117 -125 -272.5 -125t-245 75t-89.5 215
q0 304 481 304h87v54q-1 130 -89 157q-32 10 -87.5 10t-105 -14t-87.5 -31t-63.5 -31t-41.5 -14zM219 1363q1 37 71 37q62 0 79 -8.5t19 -33.5q12 -114 106 -114q74 0 105.5 29t35.5 88q4 39 79 39q74 0 84 -19q4 -7 4 -16q0 -279 -291.5 -279t-291.5 277z" />
    <glyph glyph-name="Aogonek" unicode="&#x104;" horiz-adv-x="1241" 
d="M607 1047h-1l-183 -550h367zM1056 -154q0 -41 71 -41h73q20 0 27.5 -12.5t7.5 -43t-2 -45t-7 -23.5q-6 -9 -14 -15q-44 -31 -175 -31q-234 0 -234 164q0 77 88 165l52 52l-92 279h-486l-82 -253q-9 -30 -33 -39t-89 -9q-113 0 -128.5 18t8.5 88l399 1148q12 35 39.5 43.5
t108.5 8.5q141 0 171.5 -8.5t41.5 -46.5l392 -1129q17 -50 10.5 -74t-54.5 -72l-55 -55q-38 -38 -38 -69z" />
    <glyph glyph-name="aogonek" unicode="&#x105;" horiz-adv-x="1011" 
d="M451 155q94 0 188 106v152h-96q-226 0 -226 -138q0 -56 35.5 -88t98.5 -32zM912 -196q35 0 35 -56q-1 -49 -9 -66q-24 -47 -152 -47q-244 0 -244 160q0 80 81 161l57 57v94h-2q-115 -130 -271.5 -130t-246 75t-89.5 215q0 304 481 304h87v54q-1 130 -89 157
q-32 10 -87.5 10t-105 -14t-87.5 -31t-63.5 -31t-41.5 -14q-45 0 -45 101q0 57 19 76q37 38 140 71t210 33q210 0 303.5 -82.5t93.5 -269.5v-591q0 -54 -28 -84l-43 -41q-36 -38 -36 -69q0 -42 61 -42h72z" />
    <glyph glyph-name="Cacute" unicode="&#x106;" horiz-adv-x="1084" 
d="M995 981q-15 -1 -38 17q-126 96 -235 96q-110 0 -170 -32t-102 -90q-86 -119 -87 -328q-1 -332 195 -416q62 -26 135.5 -26t124.5 16.5t87.5 36.5t60.5 36q22 16 34 16q21 0 28.5 -22t7.5 -68t-1.5 -63.5t-4.5 -30t-8 -21.5q-5 -8 -16 -20q-30 -32 -128 -67.5t-226 -35.5
q-267 0 -420 166t-153 487.5t164 502t436 180.5q155 0 273 -66q51 -29 61 -46q19 -34 19 -128t-37 -94zM951.5 1669.5q19.5 -19.5 -12.5 -48.5l-222 -200q-31 -28 -67 -31.5t-68 -3.5q-66 0 -82.5 12.5t7.5 40.5l180 204q26 29 49 36q34 10 115 10t100.5 -19.5z" />
    <glyph glyph-name="cacute" unicode="&#x107;" horiz-adv-x="857" 
d="M330 481q0 -293 205 -293q98 0 202 84q19 16 30 16q34 0 34 -95q0 -85 -7.5 -101t-19.5 -28q-33 -31 -111.5 -58.5t-173.5 -27.5q-199 0 -308 126.5t-109 371.5t122.5 375.5t326.5 130.5q117 0 211 -53q40 -23 48 -37q17 -28 17 -116t-36 -88q-17 0 -36 14t-45 31
q-69 45 -157.5 45t-140.5 -75.5t-52 -221.5zM645 1404q124 0 121 -33q-1 -10 -10 -21l-194 -232q-23 -28 -55 -31.5t-64 -3.5q-66 0 -81 12.5t4 39.5l143 229q21 33 80 38q23 2 56 2z" />
    <glyph glyph-name="Ccircumflex" unicode="&#x108;" horiz-adv-x="1084" 
d="M995 981q-15 -1 -38 17q-126 96 -235 96q-110 0 -170 -32t-102 -90q-86 -119 -87 -328q-1 -332 195 -416q62 -26 135.5 -26t124.5 16.5t87.5 36.5t60.5 36q22 16 34 16q21 0 28.5 -22t7.5 -68t-1.5 -63.5t-4.5 -30t-8 -21.5q-5 -8 -16 -20q-30 -32 -128 -67.5t-226 -35.5
q-267 0 -420 166t-153 487.5t164 502t436 180.5q155 0 273 -66q51 -29 61 -46q19 -34 19 -128t-37 -94zM738 1681.5q25 -7.5 49 -33.5l198 -214q26 -28 10.5 -38t-71.5 -10q-95 0 -121 6t-43 25l-118 137l-122 -134q-24 -29 -65.5 -31.5t-79.5 -2.5q-70 0 -86 10.5t7 37.5
l195 214q30 36 96 40q24 2 75 1.5t76 -8z" />
    <glyph glyph-name="ccircumflex" unicode="&#x109;" horiz-adv-x="857" 
d="M330 481q0 -293 205 -293q98 0 202 84q19 16 30 16q34 0 34 -95q0 -85 -7.5 -101t-19.5 -28q-33 -31 -111.5 -58.5t-173.5 -27.5q-199 0 -308 126.5t-109 371.5t122.5 375.5t326.5 130.5q117 0 211 -53q40 -23 48 -37q17 -28 17 -116t-36 -88q-17 0 -36 14t-45 31
q-69 45 -157.5 45t-140.5 -75.5t-52 -221.5zM165 1096.5q-13 13.5 17 52.5l158 223q16 26 58 29t74 3q100 0 128 -32l157 -223q29 -39 16 -52.5t-66 -13.5q-82 0 -100.5 6.5t-32.5 28.5l-104 150l-104 -150q-15 -23 -30 -28q-25 -7 -91.5 -7t-79.5 13.5z" />
    <glyph glyph-name="Cdotaccent" unicode="&#x10a;" horiz-adv-x="1084" 
d="M995 981q-15 -1 -38 17q-126 96 -235 96q-110 0 -170 -32t-102 -90q-86 -119 -87 -328q-1 -332 195 -416q62 -26 135.5 -26t124.5 16.5t87.5 36.5t60.5 36q22 16 34 16q21 0 28.5 -22t7.5 -68t-1.5 -63.5t-4.5 -30t-8 -21.5q-5 -8 -16 -20q-30 -32 -128 -67.5t-226 -35.5
q-267 0 -420 166t-153 487.5t164 502t436 180.5q155 0 273 -66q51 -29 61 -46q19 -34 19 -128t-37 -94zM797 1533q0 -70 -29.5 -98.5t-109.5 -28.5t-109 27.5t-29 97.5t30 98t110 28t108.5 -27t28.5 -97z" />
    <glyph glyph-name="cdotaccent" unicode="&#x10b;" horiz-adv-x="857" 
d="M330 481q0 -293 205 -293q98 0 202 84q19 16 30 16q34 0 34 -95q0 -85 -7.5 -101t-19.5 -28q-33 -31 -111.5 -58.5t-173.5 -27.5q-199 0 -308 126.5t-109 371.5t122.5 375.5t326.5 130.5q117 0 211 -53q40 -23 48 -37q17 -28 17 -116t-36 -88q-17 0 -36 14t-45 31
q-69 45 -157.5 45t-140.5 -75.5t-52 -221.5zM626 1233.5q0 -69.5 -29.5 -98t-109.5 -28.5t-109 27.5t-29 97t30 98t110 28.5t108.5 -27.5t28.5 -97z" />
    <glyph glyph-name="Ccaron" unicode="&#x10c;" horiz-adv-x="1084" 
d="M995 981q-15 -1 -38 17q-126 96 -235 96q-110 0 -170 -32t-102 -90q-86 -119 -87 -328q-1 -332 195 -416q62 -26 135.5 -26t124.5 16.5t87.5 36.5t60.5 36q22 16 34 16q21 0 28.5 -22t7.5 -68t-1.5 -63.5t-4.5 -30t-8 -21.5q-5 -8 -16 -20q-30 -32 -128 -67.5t-226 -35.5
q-267 0 -420 166t-153 487.5t164 502t436 180.5q155 0 273 -66q51 -29 61 -46q19 -34 19 -128t-37 -94zM537 1392.5q-23 6.5 -51 34.5l-198 214q-26 30 -10 39t71 9q94 0 120.5 -6t43.5 -25l118 -137l123 135q17 21 43 27t83 6q89 0 104.5 -10.5t-7.5 -37.5l-195 -214
q-30 -35 -96 -39q-24 -2 -75 -2t-74 6.5z" />
    <glyph glyph-name="ccaron" unicode="&#x10d;" horiz-adv-x="857" 
d="M330 481q0 -293 205 -293q98 0 202 84q19 16 30 16q34 0 34 -95q0 -85 -7.5 -101t-19.5 -28q-33 -31 -111.5 -58.5t-173.5 -27.5q-199 0 -308 126.5t-109 371.5t122.5 375.5t326.5 130.5q117 0 211 -53q40 -23 48 -37q17 -28 17 -116t-36 -88q-17 0 -36 14t-45 31
q-69 45 -157.5 45t-140.5 -75.5t-52 -221.5zM793 1390.5q12 -13.5 -17 -52.5l-157 -223q-21 -27 -61 -29.5t-71 -2.5q-108 0 -128 32l-159 223q-27 39 -15.5 52.5t66.5 13.5q83 0 100.5 -6t32.5 -28l103 -151l105 151q16 22 30 27q25 7 92 7t79 -13.5z" />
    <glyph glyph-name="Dcaron" unicode="&#x10e;" horiz-adv-x="1291" 
d="M540 208q404 0 404 440t-408 440h-133v-880h137zM1216 654q0 -333 -174.5 -493.5t-513.5 -160.5h-309q-33 0 -55.5 19.5t-22.5 63.5v1128q0 44 22.5 63.5t55.5 19.5h332q491 0 622 -357q43 -117 43 -283zM523 1392.5q-23 6.5 -51 34.5l-198 214q-26 30 -10 39t71 9
q94 0 120.5 -6t43.5 -25l118 -137l123 135q17 21 43 27t83 6q89 0 104.5 -10.5t-7.5 -37.5l-195 -214q-30 -35 -96 -39q-24 -2 -75 -2t-74 6.5z" />
    <glyph glyph-name="dcaron" unicode="&#x10f;" horiz-adv-x="1222" 
d="M515 770q-135 0 -173 -182q-10 -50 -11 -104q0 -124 42 -209t128.5 -85t161.5 76q27 28 59 68v296q-111 140 -207 140zM847 1389q125 0 125 -43v-1312q0 -22 -17 -29q-45 -19 -102.5 -13t-75.5 13t-18 29v99q-145 -156 -324 -156t-275 146q-84 127 -84.5 355.5
t100.5 366.5t289 138q135 0 257 -120v483q0 43 125 43zM1236 1435q66 0 84.5 -11.5t9.5 -38.5l-124 -314q-12 -34 -95 -34q-60 0 -72 9.5t-6 36.5l78 305q12 47 125 47z" />
    <glyph glyph-name="Dcroat" unicode="&#x110;" horiz-adv-x="1309" 
d="M619 771q39 0 39 -101.5t-39 -101.5h-197v-360h137q403 0 403 449q0 307 -212 399q-75 32 -193 32h-135v-317h197zM54 771h106v440q0 44 22 63.5t55 19.5h333q491 0 622 -357q43 -117 43 -283q0 -334 -175 -494t-514 -160h-309q-33 0 -55 19.5t-22 63.5v485h-106
q-39 0 -39 101.5t39 101.5z" />
    <glyph glyph-name="dcroat" unicode="&#x111;" horiz-adv-x="1165" 
d="M517 765q-139 1 -175 -175q-10 -50 -11 -106q0 -126 42 -210t128.5 -84t161.5 76q27 28 59 68v292q-110 139 -205 139zM847 1389q125 0 125 -43v-89h112q22 0 28.5 -13.5t9 -31.5t2.5 -46q0 -52 -8.5 -72.5t-29.5 -20.5h-114v-1039q0 -22 -17 -29q-45 -19 -102.5 -13
t-75.5 13t-18 29v99q-145 -156 -324 -156t-269.5 136t-90.5 364t100.5 364.5t289.5 136.5q132 0 257 -119v214h-203q-20 0 -27 14.5t-9.5 32.5t-2.5 46q0 54 9 72.5t30 18.5h203v89q0 43 125 43z" />
    <glyph glyph-name="Emacron" unicode="&#x112;" horiz-adv-x="999" 
d="M869 206q39 0 39 -103t-39 -103h-650q-33 0 -55.5 19.5t-22.5 63.5v1128q0 44 22.5 63.5t55.5 19.5h646q38 0 38 -103t-38 -103h-462v-316h391q39 0 39 -100.5t-39 -100.5h-391v-365h466zM821 1616q40 0 40 -84q1 -84 -21 -96q-8 -4 -19 -5h-590q-44 -1 -44 79
q0 62 10 84t34 22h590z" />
    <glyph glyph-name="emacron" unicode="&#x113;" horiz-adv-x="1031" 
d="M523 805q-137 -1 -179 -139q-12 -42 -14 -88h376q3 106 -42.5 166.5t-140.5 60.5zM330 416q0 -249 244 -249q133 -1 263 51q24 10 36 10q21 0 28 -16t7 -52.5t-1 -52t-3 -26.5t-6 -18.5t-10 -14.5q-18 -19 -120 -45t-219 -26q-475 0 -475 493q0 240 121 376.5t334 136.5
t317 -119t104 -318v-40q0 -90 -77 -90h-543zM779 1323q23 0 29.5 -15.5t9 -33t2.5 -43.5q0 -48 -9 -69.5t-32 -21.5h-510q-44 0 -44 79q0 62 10 83t34 21h510z" />
    <glyph glyph-name="Ebreve" unicode="&#x114;" horiz-adv-x="999" 
d="M869 206q39 0 39 -103t-39 -103h-650q-33 0 -55.5 19.5t-22.5 63.5v1128q0 44 22.5 63.5t55.5 19.5h646q38 0 38 -103t-38 -103h-462v-316h391q39 0 39 -100.5t-39 -100.5h-391v-365h466zM819 1661q-1 -199 -171 -256q-56 -19 -132 -19q-148 0 -222.5 72.5t-74.5 202.5
q0 20 17.5 28t65.5 8t68 -7q20 -6 22 -24q5 -55 35 -87.5t83 -32.5t80.5 16.5t40.5 41.5t15.5 49.5t19 34t66.5 9.5t68.5 -8t18.5 -28z" />
    <glyph glyph-name="ebreve" unicode="&#x115;" horiz-adv-x="1031" 
d="M523 805q-137 -1 -179 -139q-12 -42 -14 -88h376q3 106 -42.5 166.5t-140.5 60.5zM330 416q0 -249 244 -249q133 -1 263 51q24 10 36 10q21 0 28 -16t7 -52.5t-1 -52t-3 -26.5t-6 -18.5t-10 -14.5q-18 -19 -120 -45t-219 -26q-475 0 -475 493q0 240 121 376.5t334 136.5
t317 -119t104 -318v-40q0 -90 -77 -90h-543zM223 1363q1 37 71 37q62 0 79 -8.5t19 -33.5q12 -114 106 -114q74 0 105.5 29t35.5 88q4 39 79 39q74 0 84 -19q4 -7 4 -16q0 -279 -291.5 -279t-291.5 277z" />
    <glyph glyph-name="Edotaccent" unicode="&#x116;" horiz-adv-x="999" 
d="M869 206q39 0 39 -103t-39 -103h-650q-33 0 -55.5 19.5t-22.5 63.5v1128q0 44 22.5 63.5t55.5 19.5h646q38 0 38 -103t-38 -103h-462v-316h391q39 0 39 -100.5t-39 -100.5h-391v-365h466zM669 1533q0 -70 -29.5 -98.5t-109.5 -28.5t-109 27.5t-29 97.5t30 98t110 28
t108.5 -27t28.5 -97z" />
    <glyph glyph-name="edotaccent" unicode="&#x117;" horiz-adv-x="1031" 
d="M523 805q-137 -1 -179 -139q-12 -42 -14 -88h376q3 106 -42.5 166.5t-140.5 60.5zM330 416q0 -249 244 -249q133 -1 263 51q24 10 36 10q21 0 28 -16t7 -52.5t-1 -52t-3 -26.5t-6 -18.5t-10 -14.5q-18 -19 -120 -45t-219 -26q-475 0 -475 493q0 240 121 376.5t334 136.5
t317 -119t104 -318v-40q0 -90 -77 -90h-543zM661 1233.5q0 -69.5 -29.5 -98t-109.5 -28.5t-109 27.5t-29 97t30 98t110 28.5t108.5 -27.5t28.5 -97z" />
    <glyph glyph-name="Eogonek" unicode="&#x118;" horiz-adv-x="999" 
d="M751 -365q-246 0 -246 166q0 76 75 153l47 46h-408q-33 0 -55.5 19.5t-22.5 63.5v1128q0 44 22.5 63.5t55.5 19.5h646q38 0 38 -103t-38 -103h-462v-316h391q39 0 39 -100.5t-39 -100.5h-391v-365h466q39 0 39 -82.5t-13.5 -101.5t-28.5 -33l-76 -75q-34 -38 -34 -67
q0 -42 70 -42h79q20 0 27.5 -13t7.5 -43t-2 -44t-6 -23q-8 -17 -59.5 -32t-121.5 -15z" />
    <glyph glyph-name="eogonek" unicode="&#x119;" horiz-adv-x="1031" 
d="M523 805q-137 -1 -179 -139q-12 -42 -14 -88h376q3 106 -42.5 166.5t-140.5 60.5zM883 -196q35 0 35 -54q0 -51 -8 -67.5t-57.5 -32t-146 -15.5t-156 40t-59.5 118.5t70 148.5l46 47q-143 -25 -277 23q-256 92 -256 458q0 240 121 376.5t334 136.5t317 -119t104 -318v-40
q0 -90 -77 -90h-543q0 -249 244 -249q133 -1 263 51q24 10 36 10q21 0 28 -16t7 -56q0 -71 -5.5 -92.5t-31.5 -47.5l-101 -102q-37 -37 -37 -68q0 -42 64 -42h86z" />
    <glyph glyph-name="Ecaron" unicode="&#x11a;" horiz-adv-x="999" 
d="M869 206q39 0 39 -103t-39 -103h-650q-33 0 -55.5 19.5t-22.5 63.5v1128q0 44 22.5 63.5t55.5 19.5h646q38 0 38 -103t-38 -103h-462v-316h391q39 0 39 -100.5t-39 -100.5h-391v-365h466zM427 1392.5q-23 6.5 -51 34.5l-198 214q-26 30 -10 39t71 9q94 0 120.5 -6
t43.5 -25l118 -137l123 135q17 21 43 27t83 6q89 0 104.5 -10.5t-7.5 -37.5l-195 -214q-30 -35 -96 -39q-24 -2 -75 -2t-74 6.5z" />
    <glyph glyph-name="ecaron" unicode="&#x11b;" horiz-adv-x="1031" 
d="M523 805q-137 -1 -179 -139q-12 -42 -14 -88h376q3 106 -42.5 166.5t-140.5 60.5zM330 416q0 -249 244 -249q133 -1 263 51q24 10 36 10q21 0 28 -16t7 -52.5t-1 -52t-3 -26.5t-6 -18.5t-10 -14.5q-18 -19 -120 -45t-219 -26q-475 0 -475 493q0 240 121 376.5t334 136.5
t317 -119t104 -318v-40q0 -90 -77 -90h-543zM825 1390.5q12 -13.5 -17 -52.5l-157 -223q-21 -27 -61 -29.5t-71 -2.5q-108 0 -128 32l-159 223q-27 39 -15.5 52.5t66.5 13.5q83 0 100.5 -6t32.5 -28l103 -151l105 151q16 22 30 27q25 7 92 7t79 -13.5z" />
    <glyph glyph-name="Gcircumflex" unicode="&#x11c;" horiz-adv-x="1305" 
d="M669 537q-38 0 -38 99.5t38 99.5h437q49 0 65 -48q5 -16 5 -36v-515q0 -67 -54 -88q-178 -71 -360 -71q-339 0 -514 173.5t-175 485t182.5 495.5t491.5 184q225 0 359 -75q34 -19 53.5 -39t19.5 -117.5t-36 -97.5q-13 0 -42 18t-77 39q-130 57 -247 57
q-209 0 -321.5 -124t-112.5 -334.5t109.5 -328t294.5 -117.5q93 0 167 40v300h-245zM788 1681.5q25 -7.5 49 -33.5l198 -214q26 -28 10.5 -38t-71.5 -10q-95 0 -121 6t-43 25l-118 137l-122 -134q-24 -29 -65.5 -31.5t-79.5 -2.5q-70 0 -86 10.5t7 37.5l195 214q30 36 96 40
q24 2 75 1.5t76 -8z" />
    <glyph glyph-name="gcircumflex" unicode="&#x11d;" horiz-adv-x="971" 
d="M270 -91q0 -102 193 -102q157 1 193 85q10 24 10 59t-36 59t-99 26l-179 5q-82 -60 -82 -132zM344.5 760.5q-38.5 -44.5 -38.5 -112t40 -107t94 -39.5q89 0 128 44t39 111.5t-40 107.5t-112 40t-110.5 -44.5zM892 960q38 0 38 -95t-38 -95h-105q41 -45 41 -120
q0 -152 -99.5 -237.5t-270.5 -85.5q-90 0 -142 35q-31 -34 -31 -67q0 -68 97 -72l217 -8q231 -9 297 -154q22 -47 22 -110q0 -137 -120.5 -226.5t-345.5 -89.5q-326 1 -402 145q-24 44 -23 97q0 125 129 221q-90 48 -90 152t97 192q-77 77 -77 218t102.5 230t268.5 89
q82 0 152 -19h283zM181 1096.5q-13 13.5 17 52.5l158 223q16 26 58 29t74 3q100 0 128 -32l157 -223q29 -39 16 -52.5t-66 -13.5q-82 0 -100.5 6.5t-32.5 28.5l-104 150l-104 -150q-15 -23 -30 -28q-25 -7 -91.5 -7t-79.5 13.5z" />
    <glyph glyph-name="Gbreve" unicode="&#x11e;" horiz-adv-x="1305" 
d="M669 537q-38 0 -38 99.5t38 99.5h437q49 0 65 -48q5 -16 5 -36v-515q0 -67 -54 -88q-178 -71 -360 -71q-339 0 -514 173.5t-175 485t182.5 495.5t491.5 184q225 0 359 -75q34 -19 53.5 -39t19.5 -117.5t-36 -97.5q-13 0 -42 18t-77 39q-130 57 -247 57
q-209 0 -321.5 -124t-112.5 -334.5t109.5 -328t294.5 -117.5q93 0 167 40v300h-245zM991 1661q-1 -199 -171 -256q-56 -19 -132 -19q-148 0 -222.5 72.5t-74.5 202.5q0 20 17.5 28t65.5 8t68 -7q20 -6 22 -24q5 -55 35 -87.5t83 -32.5t80.5 16.5t40.5 41.5t15.5 49.5t19 34
t66.5 9.5t68.5 -8t18.5 -28z" />
    <glyph glyph-name="gbreve" unicode="&#x11f;" horiz-adv-x="971" 
d="M270 -91q0 -102 193 -102q157 1 193 85q10 24 10 59t-36 59t-99 26l-179 5q-82 -60 -82 -132zM344.5 760.5q-38.5 -44.5 -38.5 -112t40 -107t94 -39.5q89 0 128 44t39 111.5t-40 107.5t-112 40t-110.5 -44.5zM892 960q38 0 38 -95t-38 -95h-105q41 -45 41 -120
q0 -152 -99.5 -237.5t-270.5 -85.5q-90 0 -142 35q-31 -34 -31 -67q0 -68 97 -72l217 -8q231 -9 297 -154q22 -47 22 -110q0 -137 -120.5 -226.5t-345.5 -89.5q-326 1 -402 145q-24 44 -23 97q0 125 129 221q-90 48 -90 152t97 192q-77 77 -77 218t102.5 230t268.5 89
q82 0 152 -19h283zM194 1363q0 37 70 37q62 0 79.5 -8.5t19.5 -33.5q12 -114 106 -114q74 0 105.5 29t35.5 88q4 39 79 39t85 -19q4 -7 3 -16q0 -279 -291.5 -279t-291.5 277z" />
    <glyph glyph-name="Gdotaccent" unicode="&#x120;" horiz-adv-x="1305" 
d="M669 537q-38 0 -38 99.5t38 99.5h437q49 0 65 -48q5 -16 5 -36v-515q0 -67 -54 -88q-178 -71 -360 -71q-339 0 -514 173.5t-175 485t182.5 495.5t491.5 184q225 0 359 -75q34 -19 53.5 -39t19.5 -117.5t-36 -97.5q-13 0 -42 18t-77 39q-130 57 -247 57
q-209 0 -321.5 -124t-112.5 -334.5t109.5 -328t294.5 -117.5q93 0 167 40v300h-245zM867 1533q0 -70 -29.5 -98.5t-109.5 -28.5t-109 27.5t-29 97.5t30 98t110 28t108.5 -27t28.5 -97z" />
    <glyph glyph-name="gdotaccent" unicode="&#x121;" horiz-adv-x="971" 
d="M270 -91q0 -102 193 -102q157 1 193 85q10 24 10 59t-36 59t-99 26l-179 5q-82 -60 -82 -132zM344.5 760.5q-38.5 -44.5 -38.5 -112t40 -107t94 -39.5q89 0 128 44t39 111.5t-40 107.5t-112 40t-110.5 -44.5zM892 960q38 0 38 -95t-38 -95h-105q41 -45 41 -120
q0 -152 -99.5 -237.5t-270.5 -85.5q-90 0 -142 35q-31 -34 -31 -67q0 -68 97 -72l217 -8q231 -9 297 -154q22 -47 22 -110q0 -137 -120.5 -226.5t-345.5 -89.5q-326 1 -402 145q-24 44 -23 97q0 125 129 221q-90 48 -90 152t97 192q-77 77 -77 218t102.5 230t268.5 89
q82 0 152 -19h283zM626 1233.5q0 -69.5 -29.5 -98t-109.5 -28.5t-109 27.5t-29 97t30 98t110 28.5t108.5 -27.5t28.5 -97z" />
    <glyph glyph-name="uni0122" unicode="&#x122;" horiz-adv-x="1305" 
d="M669 537q-38 0 -38 99.5t38 99.5h437q49 0 65 -48q5 -16 5 -36v-515q0 -67 -54 -88q-178 -71 -360 -71q-339 0 -514 173.5t-175 485t182.5 495.5t491.5 184q225 0 359 -75q34 -19 53.5 -39t19.5 -117.5t-36 -97.5q-13 0 -42 18t-77 39q-130 57 -247 57
q-209 0 -321.5 -124t-112.5 -334.5t109.5 -328t294.5 -117.5q93 0 167 40v300h-245zM584 -365q-86 0 -86 28q0 10 4 24l57 190q7 24 34.5 33t121 9t91.5 -34q0 -11 -7 -25l-98 -190q-15 -30 -50 -32.5t-67 -2.5z" />
    <glyph glyph-name="uni0123" unicode="&#x123;" horiz-adv-x="971" 
d="M270 -91q0 -102 193 -102q157 1 193 85q10 24 10 59t-36 59t-99 26l-179 5q-82 -60 -82 -132zM344.5 760.5q-38.5 -44.5 -38.5 -112t40 -107t94 -39.5q89 0 128 44t39 111.5t-40 107.5t-112 40t-110.5 -44.5zM892 960q38 0 38 -95t-38 -95h-105q41 -45 41 -120
q0 -152 -99.5 -237.5t-270.5 -85.5q-90 0 -142 35q-31 -34 -31 -67q0 -68 97 -72l217 -8q231 -9 297 -154q22 -47 22 -110q0 -137 -120.5 -226.5t-345.5 -89.5q-326 1 -402 145q-24 44 -23 97q0 125 129 221q-90 48 -90 152t97 192q-77 77 -77 218t102.5 230t268.5 89
q82 0 152 -19h283zM459 1068q-117 0 -117 32q0 10 7 22l139 237q17 27 55 31q37 4 67 4q55 0 72 -12t6 -41l-96 -233q-12 -33 -72 -38q-24 -2 -61 -2z" />
    <glyph glyph-name="Hcircumflex" unicode="&#x124;" horiz-adv-x="1292" 
d="M888 1258q0 42 131.5 42t131.5 -42v-1222q0 -42 -131.5 -42t-131.5 42v523h-484v-523q0 -22 -21 -29q-39 -13 -110 -13q-132 0 -132 42v1222q0 42 119.5 42t137.5 -24q6 -8 6 -18v-475h484v475zM740 1681.5q25 -7.5 49 -33.5l198 -214q26 -28 10.5 -38t-71.5 -10
q-95 0 -121 6t-43 25l-118 137l-122 -134q-24 -29 -65.5 -31.5t-79.5 -2.5q-70 0 -86 10.5t7 37.5l195 214q30 36 96 40q24 2 75 1.5t76 -8z" />
    <glyph glyph-name="hcircumflex" unicode="&#x125;" horiz-adv-x="1099" 
d="M360.5 1681.5q25.5 -7.5 49.5 -33.5l198 -214q26 -28 10.5 -38t-71.5 -10q-95 0 -122.5 6t-41.5 25l-119 137l-121 -134q-24 -29 -65.5 -31.5t-79.5 -2.5q-70 0 -86 10.5t7 37.5l195 214q30 36 96 40q24 2 74.5 1.5t76 -8zM252 -6q-126 0 -126 40v1220q0 43 126 43
t126 -43v-398q129 127 273 127q327 0 327 -402v-547q0 -40 -113.5 -40t-131.5 22q-6 8 -6 18v509q0 221 -150 221q-91 0 -199 -137v-593q0 -21 -20 -28q-36 -12 -106 -12z" />
    <glyph glyph-name="Hbar" unicode="&#x126;" horiz-adv-x="1347" 
d="M169 1260q0 40 131.5 40t131.5 -40v-168h484v168q0 40 114 40q91 0 119.5 -9.5t28.5 -30.5v-168h115q21 0 27.5 -14t9 -31.5t2.5 -46.5q0 -54 -9 -73.5t-30 -19.5h-115v-873q0 -40 -113 -40q-90 0 -119.5 9.5t-29.5 30.5v490h-484v-490q0 -40 -131.5 -40t-131.5 40v873
h-114q-39 0 -39 79q0 66 9.5 86t29.5 20h114v168zM432 907v-177h484v177h-484z" />
    <glyph glyph-name="hbar" unicode="&#x127;" horiz-adv-x="1121" 
d="M673 965q327 0 327 -399v-532q0 -40 -113.5 -40t-131.5 22q-6 8 -6 18v490q0 222 -150 222q-88 0 -200 -137v-575q0 -21 -20 -28t-44 -9.5t-61 -2.5q-70 0 -97.5 9.5t-27.5 30.5v1037h-118q-20 0 -26.5 15.5t-9 33.5t-2.5 46q0 54 9.5 72.5t30.5 18.5h116v95q0 42 114 42
q115 0 131 -24q6 -8 5 -18v-95h199q20 0 29.5 -18.5t9.5 -72.5q0 -95 -39 -95h-200v-234q132 128 275 128z" />
    <glyph glyph-name="Itilde" unicode="&#x128;" horiz-adv-x="546" 
d="M273 1300q132 0 132 -42v-1222q0 -42 -132 -42t-132 42v1222q0 42 132 42zM415 1562q63 0 63 74q0 16 17 21t62 5t60.5 -7.5t15.5 -30.5q0 -115 -56.5 -175t-151.5 -60q-95 -1 -178 49q-31 18 -56.5 34t-55.5 16q-63 0 -63 -73q0 -17 -18.5 -21.5t-62 -4.5t-59 7.5
t-15.5 47.5q0 97 58.5 157.5t152.5 60.5t174 -50q30 -19 56.5 -34.5t56.5 -15.5z" />
    <glyph glyph-name="itilde" unicode="&#x129;" horiz-adv-x="503" 
d="M252 966q126 0 126 -40v-892q0 -21 -20 -28q-35 -12 -106 -12q-126 0 -126 40v892q0 21 20 28q36 12 106 12zM393 1263q62 0 62 85q0 17 15 22.5t60.5 5.5t62 -7.5t16.5 -32.5q0 -121 -57.5 -185.5t-143 -64.5t-124.5 21t-58.5 35.5t-49.5 35.5t-61 21q-61 0 -61 -85
q0 -18 -15 -23t-50 -5q-58 0 -73.5 8t-15.5 33q0 116 56 182.5t151 66.5t175 -56q30 -22 56.5 -39.5t54.5 -17.5z" />
    <glyph glyph-name="Imacron" unicode="&#x12a;" horiz-adv-x="546" 
d="M273 1300q132 0 132 -42v-1222q0 -42 -132 -42t-132 42v1222q0 42 132 42zM571 1616q40 0 40 -84q1 -84 -21 -96q-8 -4 -19 -5h-590q-44 -1 -44 79q0 62 10 84t34 22h590z" />
    <glyph glyph-name="imacron" unicode="&#x12b;" horiz-adv-x="503" 
d="M252 966q126 0 126 -40v-892q0 -21 -20 -28q-35 -12 -106 -12q-126 0 -126 40v892q0 21 20 28q36 12 106 12zM509 1323q23 0 29.5 -15.5t9 -33t2.5 -43.5q0 -48 -9 -69.5t-32 -21.5h-510q-44 0 -44 79q0 62 10 83t34 21h510z" />
    <glyph glyph-name="Ibreve" unicode="&#x12c;" horiz-adv-x="546" 
d="M273 1300q132 0 132 -42v-1222q0 -42 -132 -42t-132 42v1222q0 42 132 42zM574 1661q0 -199 -170 -256q-56 -19 -133 -19q-148 0 -222.5 72.5t-74.5 202.5q0 20 17.5 28t66 8t68.5 -7q18 -6 20 -24q5 -55 35.5 -87.5t83.5 -32.5t80.5 16.5t40.5 41.5t15.5 49.5t19 34
t66.5 9.5t68.5 -8t18.5 -28z" />
    <glyph glyph-name="ibreve" unicode="&#x12d;" horiz-adv-x="503" 
d="M252 966q126 0 126 -40v-892q0 -21 -20 -28q-35 -12 -106 -12q-126 0 -126 40v892q0 21 20 28q36 12 106 12zM-39 1363q1 37 71 37q62 0 79 -8.5t19 -33.5q12 -114 106 -114q74 0 105.5 29t35.5 88q4 39 79 39q74 0 84 -19q4 -7 4 -16q0 -279 -291.5 -279t-291.5 277z
" />
    <glyph glyph-name="Iogonek" unicode="&#x12e;" horiz-adv-x="546" 
d="M278 -153q0 -42 63 -42h87q20 0 27.5 -12.5t7.5 -42.5q0 -50 -11 -72.5t-80.5 -32.5t-115.5 -10q-226 0 -226 160q0 85 77 162l49 49q-15 12 -15 25v1229q0 40 132 40t132 -40v-1229q0 -26 -21 -47l-62 -62q-44 -42 -44 -75z" />
    <glyph glyph-name="iogonek" unicode="&#x12f;" horiz-adv-x="503" 
d="M397 1226.5q0 -74.5 -31 -103.5t-115.5 -29t-114 28t-29.5 102.5t30.5 104t115 29.5t114.5 -28.5t30 -103zM252 966q126 0 126 -42v-889q0 -34 -26 -60l-60 -59q-42 -42 -42 -75q0 -41 63 -41h82q21 0 28.5 -12t7.5 -41q0 -48 -8 -65t-56 -32t-121 -15q-238 0 -238 163
q0 68 39 118q15 20 37 41l42 43v924q0 42 126 42z" />
    <glyph glyph-name="Idotaccent" unicode="&#x130;" horiz-adv-x="546" 
d="M273 1300q132 0 132 -42v-1222q0 -42 -132 -42t-132 42v1222q0 42 132 42zM413 1533q0 -70 -29.5 -98.5t-109.5 -28.5t-109 27.5t-29 97.5t30 98t110 28t108.5 -27t28.5 -97z" />
    <glyph glyph-name="dotlessi" unicode="&#x131;" horiz-adv-x="503" 
d="M252 966q126 0 126 -40v-892q0 -21 -20 -28q-35 -12 -106 -12q-126 0 -126 40v892q0 21 20 28q36 12 106 12z" />
    <glyph glyph-name="IJ" unicode="&#x132;" horiz-adv-x="1225" 
d="M273 1300q132 0 132 -42v-1222q0 -42 -132 -42t-132 42v1222q0 42 132 42zM954 1300q132 0 132 -40v-900q0 -188 -76.5 -284t-257.5 -96q-86 0 -156 31q-42 19 -45 75q-1 17 -1 47q0 65 6.5 90t26.5 25q9 0 21 -6.5t27 -13.5t35 -13.5t47 -6.5q57 0 83 35.5t26 127.5v889
q0 40 132 40z" />
    <glyph glyph-name="ij" unicode="&#x133;" horiz-adv-x="1027" 
d="M397 1226.5q0 -74.5 -31 -103.5t-115.5 -29t-114 28t-29.5 102.5t30.5 104t115 29.5t114.5 -28.5t30 -103zM252 -6q-126 0 -126 40v890q0 42 126 42t126 -42v-890q0 -21 -20 -28q-36 -12 -106 -12zM919 1226.5q0 -74.5 -30.5 -103.5t-115 -29t-114.5 28t-30 102.5t31 104
t115.5 29.5t114 -28.5t29.5 -103zM649 924q0 42 125.5 42t125.5 -42v-920q0 -278 -164 -346q-55 -22 -112.5 -22.5t-86.5 5t-42 11.5q-20 9 -24.5 33.5t-4.5 65.5q0 97 29 97l54 -5q77 1 94 79q6 28 6 87v915z" />
    <glyph glyph-name="Jcircumflex" unicode="&#x134;" horiz-adv-x="678" 
d="M407 1300q132 0 132 -40v-900q0 -188 -76.5 -284t-257.5 -96q-86 0 -156 31q-42 19 -45 75q-1 17 -1 47q0 65 6.5 90t26.5 25q9 0 21 -6.5t27 -13.5t35 -13.5t47 -6.5q57 0 83 35.5t26 127.5v889q0 40 132 40zM477 1681.5q25 -7.5 49 -33.5l198 -214q26 -28 10.5 -38
t-71.5 -10q-95 0 -121 6t-43 25l-118 137l-122 -134q-24 -29 -65.5 -31.5t-79.5 -2.5q-70 0 -86 10.5t7 37.5l195 214q30 36 96 40q24 2 75 1.5t76 -8z" />
    <glyph glyph-name="jcircumflex" unicode="&#x135;" horiz-adv-x="523" 
d="M146 924q0 42 125.5 42t125.5 -42v-920q0 -278 -164 -346q-55 -22 -112.5 -22.5t-86.5 5t-42 11.5q-20 9 -24.5 33.5t-4.5 65.5q0 97 29 97l54 -5q77 1 94 79q6 28 6 87v915zM-41 1096.5q-13 13.5 17 52.5l158 223q16 26 58 29t74 3q100 0 128 -32l157 -223
q29 -39 16 -52.5t-66 -13.5q-82 0 -100.5 6.5t-32.5 28.5l-104 150l-104 -150q-15 -23 -30 -28q-25 -7 -91.5 -7t-79.5 13.5z" />
    <glyph glyph-name="uni0136" unicode="&#x136;" horiz-adv-x="1120" 
d="M931 1300q135 0 135 -43q0 -25 -43 -92l-355 -465l387 -585q31 -58 31 -72q0 -28 -29.5 -38.5t-101 -10.5t-108 6.5t-52.5 37.5l-391 614v-614q0 -44 -131.5 -44t-131.5 44v1219q-1 23 21 30q40 13 95 13q87 0 117 -10t30 -33v-551l379 550q14 26 43 35t105 9zM485 -365
q-86 0 -86 28q0 10 4 24l57 190q7 24 34.5 33t121.5 9t92 -34q0 -11 -8 -25l-98 -190q-15 -30 -50 -32.5t-67 -2.5z" />
    <glyph glyph-name="uni0137" unicode="&#x137;" horiz-adv-x="983" 
d="M252 -6q-126 0 -126 40v1315q0 43 126 43t126 -43v-783l264 355q18 27 47.5 36t83.5 9q89 0 118.5 -9.5t29.5 -35.5t-30 -64l-261 -296l302 -467q23 -38 23 -55q1 -27 -25 -35q-54 -17 -125.5 -11.5t-93.5 11.5t-36 32l-297 470v-472q0 -21 -20 -28q-36 -12 -106 -12z
M418 -365q-86 0 -86 28q0 10 4 24l57 190q7 24 34.5 33t121 9t91.5 -34q0 -11 -7 -25l-98 -190q-15 -30 -50 -32.5t-67 -2.5z" />
    <glyph glyph-name="kgreenlandic" unicode="&#x138;" horiz-adv-x="983" 
d="M252 966q126 0 126 -40v-396l278 393q15 26 34.5 32t42.5 8.5t61 2.5t63 -2.5t40.5 -7t21.5 -12t6 -16.5q0 -36 -39 -93l-256 -308l289 -414q32 -57 32 -74t-6.5 -24t-22 -12t-41.5 -7t-66 -2q-78 0 -105 9t-39 34l-293 434v-437q0 -21 -20 -28q-35 -12 -106 -12
q-126 0 -126 40v892q0 21 20 28q36 12 106 12z" />
    <glyph glyph-name="Lacute" unicode="&#x139;" horiz-adv-x="866" 
d="M812 217q40 0 40 -108.5t-40 -108.5h-593q-33 0 -55.5 19.5t-22.5 63.5v1175q0 42 132 42t132 -42v-1041h407zM675.5 1669.5q19.5 -19.5 -12.5 -48.5l-222 -200q-31 -28 -67 -31.5t-68 -3.5q-66 0 -82.5 12.5t7.5 40.5l180 204q26 29 49 36q34 10 115 10t100.5 -19.5z
" />
    <glyph glyph-name="lacute" unicode="&#x13a;" horiz-adv-x="503" 
d="M252 -6q-126 0 -126 40v1315q0 43 126 43t126 -43v-1315q0 -21 -20 -28q-36 -12 -106 -12zM611.5 1730.5q19.5 -19.5 -12.5 -48.5l-222 -200q-31 -28 -67 -31.5t-68 -3.5q-66 0 -82.5 12.5t7.5 40.5l180 204q26 29 49 36q34 10 115 10t100.5 -19.5z" />
    <glyph glyph-name="uni013B" unicode="&#x13b;" horiz-adv-x="866" 
d="M812 217q40 0 40 -108.5t-40 -108.5h-593q-33 0 -55.5 19.5t-22.5 63.5v1175q0 42 132 42t132 -42v-1041h407zM390 -365q-86 0 -86 28q0 10 4 24l57 190q7 24 34 33q28 9 121.5 9t91.5 -34q0 -11 -7 -25l-98 -190q-15 -30 -50 -32.5t-67 -2.5z" />
    <glyph glyph-name="uni013C" unicode="&#x13c;" horiz-adv-x="503" 
d="M252 -6q-126 0 -126 40v1315q0 43 126 43t126 -43v-1315q0 -21 -20 -28q-36 -12 -106 -12zM149 -365q-86 0 -86 28q0 10 4 24l57 190q7 24 34.5 33t121.5 9t92 -34q0 -11 -8 -25l-98 -190q-15 -30 -50 -32.5t-67 -2.5z" />
    <glyph glyph-name="Lcaron" unicode="&#x13d;" horiz-adv-x="881" 
d="M812 217q40 0 40 -108.5t-40 -108.5h-593q-33 0 -55.5 19.5t-22.5 63.5v1175q0 42 132 42t132 -42v-1041h407zM726 1374q66 0 84.5 -11.5t9.5 -38.5l-124 -314q-12 -34 -95 -34q-60 0 -72 9.5t-6 36.5l78 305q12 47 125 47z" />
    <glyph glyph-name="lcaron" unicode="&#x13e;" horiz-adv-x="627" 
d="M252 -6q-126 0 -126 40v1315q0 43 126 43t126 -43v-1315q0 -21 -20 -28q-36 -12 -106 -12zM634 1402q66 0 85 -11.5t10 -38.5l-124 -314q-12 -34 -95 -34q-60 0 -72 9.5t-6 36.5l78 305q11 47 124 47z" />
    <glyph glyph-name="Ldot" unicode="&#x13f;" horiz-adv-x="1150" 
d="M812 217q40 0 40 -108.5t-40 -108.5h-593q-33 0 -55.5 19.5t-22.5 63.5v1175q0 42 132 42t132 -42v-1041h407zM1044 667.5q0 -90.5 -32.5 -123t-116.5 -32.5t-116 32t-32 122.5t32.5 123t116.5 32.5t116 -32t32 -122.5z" />
    <glyph glyph-name="ldot" unicode="&#x140;" horiz-adv-x="865" 
d="M252 -6q-126 0 -126 40v1315q0 43 126 43t126 -43v-1315q0 -21 -20 -28q-36 -12 -106 -12zM824 595.5q0 -90.5 -32.5 -123t-116.5 -32.5t-116 32t-32 122.5t32.5 123t116.5 32.5t116 -32t32 -122.5z" />
    <glyph glyph-name="Lslash" unicode="&#x141;" horiz-adv-x="886" 
d="M830 217q41 0 41 -108.5t-41 -108.5h-593q-33 0 -55 19.5t-22 63.5v399l-98 -63q-41 -25 -41 73q0 73 7.5 96.5t29.5 37.5l102 65v569q0 40 132 40t132 -40v-404l191 120q22 14 31.5 -7t9.5 -65q0 -73 -7 -96.5t-30 -38.5l-195 -122v-430h406z" />
    <glyph glyph-name="lslash" unicode="&#x142;" horiz-adv-x="540" 
d="M396 34q0 -40 -109 -40q-88 0 -115 9.5t-27 30.5v596l-84 -54q-41 -25 -41 73q0 74 8 98t29 37l88 55v510q0 43 125.5 43t125.5 -43v-352l83 53q42 25 42 -73q0 -74 -8 -98t-30 -37l-87 -55v-753z" />
    <glyph glyph-name="Nacute" unicode="&#x143;" horiz-adv-x="1349" 
d="M971 1255q0 43 108 43t124 -25q5 -8 5 -18v-1163q0 -45 -27.5 -69.5t-71.5 -24.5h-112q-70 0 -107 32t-87 132l-322 605q-65 126 -109 238h-2q8 -144 8 -291v-677q0 -43 -108 -43t-124 25q-5 8 -5 18v1163q0 47 27.5 70.5t67.5 23.5h141q72 0 109.5 -27.5t76.5 -107.5
l252 -473q21 -42 43 -84q57 -110 118 -245h1q-6 140 -6 291v607zM1036.5 1669.5q19.5 -19.5 -12.5 -48.5l-222 -200q-31 -27 -67 -31q-37 -4 -69 -4q-66 0 -82 12.5t8 40.5l180 204q26 29 49 36q34 10 115 10t100.5 -19.5z" />
    <glyph glyph-name="nacute" unicode="&#x144;" horiz-adv-x="1099" 
d="M252 -6q-126 0 -126 40v892q0 40 94 40q76 0 98.5 -9.5t22.5 -30.5v-103q148 160 310 160q327 0 327 -398v-551q0 -40 -113.5 -40t-131.5 22q-6 8 -6 18v509q0 221 -150 221q-91 0 -199 -137v-593q0 -21 -20 -28q-36 -12 -106 -12zM743 1404q124 0 121 -33
q-1 -10 -10 -21l-194 -232q-23 -28 -55 -31.5t-64 -3.5q-66 0 -81 12.5t4 39.5l143 229q21 33 80 38q23 2 56 2z" />
    <glyph glyph-name="uni0145" unicode="&#x145;" horiz-adv-x="1349" 
d="M971 1255q0 43 108 43t124 -25q5 -8 5 -18v-1163q0 -45 -27.5 -69.5t-71.5 -24.5h-112q-70 0 -107 32t-87 132l-322 605q-65 126 -109 238h-2q8 -144 8 -291v-677q0 -43 -108 -43t-124 25q-5 8 -5 18v1163q0 47 27.5 70.5t67.5 23.5h141q72 0 109.5 -27.5t76.5 -107.5
l252 -473q21 -42 43 -84q57 -110 118 -245h1q-6 140 -6 291v607zM554 -365q-86 0 -86 28q0 10 4 24l57 190q7 24 34.5 33t121 9t91.5 -34q0 -11 -7 -25l-98 -190q-15 -30 -50 -32.5t-67 -2.5z" />
    <glyph glyph-name="uni0146" unicode="&#x146;" horiz-adv-x="1099" 
d="M252 -6q-126 0 -126 40v892q0 40 94 40q76 0 98.5 -9.5t22.5 -30.5v-103q148 160 310 160q327 0 327 -398v-551q0 -40 -113.5 -40t-131.5 22q-6 8 -6 18v509q0 221 -150 221q-91 0 -199 -137v-593q0 -21 -20 -28q-36 -12 -106 -12zM461 -365q-86 0 -86 28q0 10 4 24
l57 190q7 24 34.5 33t121.5 9t92 -34q0 -11 -8 -25l-98 -190q-15 -30 -50 -32.5t-67 -2.5z" />
    <glyph glyph-name="Ncaron" unicode="&#x147;" horiz-adv-x="1349" 
d="M971 1255q0 43 108 43t124 -25q5 -8 5 -18v-1163q0 -45 -27.5 -69.5t-71.5 -24.5h-112q-70 0 -107 32t-87 132l-322 605q-65 126 -109 238h-2q8 -144 8 -291v-677q0 -43 -108 -43t-124 25q-5 8 -5 18v1163q0 47 27.5 70.5t67.5 23.5h141q72 0 109.5 -27.5t76.5 -107.5
l252 -473q21 -42 43 -84q57 -110 118 -245h1q-6 140 -6 291v607zM586 1392.5q-23 6.5 -51 34.5l-198 214q-26 30 -10 39t71 9q94 0 120.5 -6t43.5 -25l118 -137l123 135q17 21 43 27t83 6q89 0 104.5 -10.5t-7.5 -37.5l-195 -214q-29 -35 -95 -39q-24 -2 -75.5 -2t-74.5 6.5
z" />
    <glyph glyph-name="ncaron" unicode="&#x148;" horiz-adv-x="1099" 
d="M252 -6q-126 0 -126 40v892q0 40 94 40q76 0 98.5 -9.5t22.5 -30.5v-103q148 160 310 160q327 0 327 -398v-551q0 -40 -113.5 -40t-131.5 22q-6 8 -6 18v509q0 221 -150 221q-91 0 -199 -137v-593q0 -21 -20 -28q-36 -12 -106 -12zM876 1390.5q12 -13.5 -17 -52.5
l-157 -223q-21 -27 -61 -29.5t-71 -2.5q-108 0 -128 32l-159 223q-27 39 -15.5 52.5t66.5 13.5q83 0 100.5 -6t32.5 -28l103 -151l105 151q16 22 30 27q25 7 92 7t79 -13.5z" />
    <glyph glyph-name="napostrophe" unicode="&#x149;" horiz-adv-x="1274" 
d="M427 -6q-126 0 -126 40v892q1 40 95 40q76 0 98 -9.5t22 -30.5v-103q148 160 310 160q327 0 327 -398v-551q0 -40 -113.5 -40t-131.5 22q-6 8 -6 18v509q0 221 -150 221q-91 0 -199 -137v-593q-1 -21 -21 -28q-36 -12 -105 -12zM293 1292q0 -140 -75 -244l-134 -192
q-21 -30 -51.5 -33.5t-58.5 -3.5q-57 0 -71.5 9t-3.5 33l122 276v157q0 65 30 85.5t87 20.5t82 -4q26 -2 42 -14q32 -22 31 -90z" />
    <glyph glyph-name="Eng" unicode="&#x14a;" horiz-adv-x="1313" 
d="M932 756v502q0 40 104 40q83 0 109.5 -9.5t26.5 -30.5v-1265q0 -358 -320 -358q-126 0 -158 35q-16 17 -15.5 67.5t2 68.5t5.5 28.5t9 14.5t13 4t15.5 -3t27 -9.5t51.5 -6.5q59 0 83.5 31.5t24.5 100.5v34l-403 703q-84 148 -132 249h-1q7 -152 7 -352v-566
q0 -21 -19 -28t-42 -9.5t-58 -2.5q-121 0 -121 40v1166q0 47 24.5 70.5t64.5 23.5h137q73 0 111 -48q14 -17 27 -41l277 -481q82 -144 156 -294h2q-8 128 -8 326z" />
    <glyph glyph-name="eng" unicode="&#x14b;" horiz-adv-x="1099" 
d="M252 -6q-126 0 -126 40v892q0 40 94 40q76 0 98.5 -9.5t22.5 -30.5v-103q148 160 310 160q327 0 327 -398v-565q0 -198 -76.5 -291.5t-236.5 -93.5q-108 0 -132.5 21.5t-24.5 106t29 84.5q7 0 15 -2q7 -3 25 -7q19 -4 43 -4q53 0 80 36t27 158v515q0 221 -150 221
q-91 0 -199 -137v-593q0 -21 -20 -28q-36 -12 -106 -12z" />
    <glyph glyph-name="Omacron" unicode="&#x14c;" horiz-adv-x="1385" 
d="M689 194q340 0 340 458q0 215 -75.5 332t-256 117t-268.5 -134q-73 -111 -73 -325t74 -331t259 -117zM1305 666q0 -329 -160.5 -509t-463.5 -180q-453 0 -563 366q-38 125 -38 289q0 326 161 505.5t464 179.5q600 1 600 -651zM992 1616q40 0 40 -84t-22 -96q-8 -4 -18 -5
h-590q-44 -1 -44 79q0 62 10 84t34 22h590z" />
    <glyph glyph-name="omacron" unicode="&#x14d;" horiz-adv-x="1101" 
d="M556 784q-224 0 -225 -302q0 -222 113 -282q42 -22 104 -22q221 0 221.5 303t-213.5 303zM561 983q467 0 467 -494q0 -235 -124 -373.5t-365 -138.5q-467 0 -467 494q0 236 125 374t364 138zM809 1323q23 0 29.5 -15.5t9 -33t2.5 -43.5q0 -48 -9 -69.5t-32 -21.5h-510
q-44 0 -44 79q0 62 10 83t34 21h510z" />
    <glyph glyph-name="Obreve" unicode="&#x14e;" horiz-adv-x="1385" 
d="M689 194q340 0 340 458q0 215 -75.5 332t-256 117t-268.5 -134q-73 -111 -73 -325t74 -331t259 -117zM1305 666q0 -329 -160.5 -509t-463.5 -180q-453 0 -563 366q-38 125 -38 289q0 326 161 505.5t464 179.5q600 1 600 -651zM994 1661q0 -199 -170 -256
q-56 -19 -133 -19q-148 0 -222.5 72.5t-74.5 202.5q0 20 17.5 28t66 8t68.5 -7q18 -6 20 -24q5 -55 35.5 -87.5t83.5 -32.5t80.5 16.5t40.5 41.5t15.5 49.5t19 34t66.5 9.5t68.5 -8t18.5 -28z" />
    <glyph glyph-name="obreve" unicode="&#x14f;" horiz-adv-x="1101" 
d="M556 784q-224 0 -225 -302q0 -222 113 -282q42 -22 104 -22q221 0 221.5 303t-213.5 303zM561 983q467 0 467 -494q0 -235 -124 -373.5t-365 -138.5q-467 0 -467 494q0 236 125 374t364 138zM258 1363q0 37 70 37q62 0 79.5 -8.5t19.5 -33.5q12 -114 106 -114
q74 0 105.5 29t35.5 88q4 39 79 39t85 -19q4 -7 3 -16q0 -279 -291.5 -279t-291.5 277z" />
    <glyph glyph-name="Ohungarumlaut" unicode="&#x150;" horiz-adv-x="1385" 
d="M689 194q340 0 340 458q0 215 -75.5 332t-256 117t-268.5 -134q-73 -111 -73 -325t74 -331t259 -117zM1305 666q0 -329 -160.5 -509t-463.5 -180q-453 0 -563 366q-38 125 -38 289q0 326 161 505.5t464 179.5q600 1 600 -651zM807.5 1396q-20.5 10 -5.5 29l183 236
q19 29 67.5 32.5t93.5 3.5q91 0 114 -14t-4 -39l-242 -233q-26 -23 -61 -24t-80 -1t-65.5 10zM449.5 1386q-40.5 0 -57 11t-1.5 32l163 232q20 28 66 32t90 4q92 0 115 -12.5t-6 -39.5l-238 -236q-21 -21 -56 -22t-75.5 -1z" />
    <glyph glyph-name="ohungarumlaut" unicode="&#x151;" horiz-adv-x="1101" 
d="M556 784q-224 0 -225 -302q0 -222 113 -282q42 -22 104 -22q221 0 221.5 303t-213.5 303zM561 983q467 0 467 -494q0 -235 -124 -373.5t-365 -138.5q-467 0 -467 494q0 236 125 374t364 138zM709 1068q-41 0 -61.5 8t-4.5 31l180 254q19 28 60.5 30.5t80.5 2.5
q75 0 94.5 -17.5t-8.5 -45.5l-219 -237q-20 -22 -50.5 -24t-71.5 -2zM365 1068q-89 0 -89 22q0 8 7 20l151 243q15 24 42 32.5t78 8.5q97 0 119.5 -15t-7.5 -49l-207 -237q-19 -21 -46 -23t-48 -2z" />
    <glyph glyph-name="OE" unicode="&#x152;" horiz-adv-x="1790" 
d="M712.5 1101q-113.5 0 -178.5 -36q-178 -99 -178 -411q0 -226 74 -343t259 -117q139 0 241 76v761q-104 70 -217.5 70zM1658 206q39 0 39 -103t-39 -103h-634q-49 0 -60 38q-114 -61 -274 -61q-314 0 -462 160t-148 491t161.5 510t463.5 179q147 0 258 -53q16 30 59 30
h632q38 0 38 -103t-38 -103h-462v-317h392q38 0 38 -101.5t-38 -101.5h-392v-362h466z" />
    <glyph glyph-name="oe" unicode="&#x153;" horiz-adv-x="1726" 
d="M556 785q-224 0 -224.5 -304t218.5 -304t219.5 304t-213.5 304zM1219.5 805q-93.5 0 -142 -62.5t-52.5 -164.5h376q3 106 -42.5 166.5t-139 60.5zM904 825q109 158 321 158t315.5 -118.5t103.5 -318.5v-40q0 -90 -76 -90h-543q0 -249 245 -249q132 -1 262 51q24 10 36 10
q21 0 28 -16t7 -52.5t-1 -51t-3 -25.5t-5.5 -19.5t-11.5 -15.5q-21 -19 -118.5 -45t-217.5 -26q-252 0 -361 158q-112 -158 -345 -158q-468 0 -468 495q0 234 125 372.5t359.5 138.5t347.5 -158z" />
    <glyph glyph-name="Racute" unicode="&#x154;" horiz-adv-x="1153" 
d="M762 923q0 53 -29 97q-48 73 -211 73h-118v-367h134q165 0 210 110q14 34 14 87zM1034 939q0 -258 -251 -337q60 -29 103 -83t81 -147l109 -255q25 -63 25 -79q0 -28 -25 -36t-94 -8q-108 0 -131.5 9t-32.5 35l-116 289q-48 111 -79 144q-56 58 -137 58h-82v-493
q0 -42 -119.5 -42t-137.5 24q-6 8 -6 18v1175q0 44 22.5 63.5t55.5 19.5h335q180 0 264 -36q82 -36 126 -80q90 -90 90 -239zM875.5 1669.5q19.5 -19.5 -12.5 -48.5l-222 -200q-31 -28 -67 -31.5t-68 -3.5q-66 0 -82.5 12.5t7.5 40.5l180 204q26 29 49 36q34 10 115 10
t100.5 -19.5z" />
    <glyph glyph-name="racute" unicode="&#x155;" horiz-adv-x="728" 
d="M341 815q117 168 229 168q104 0 120 -35q8 -20 9 -81q0 -93 -7.5 -117.5t-27.5 -24.5q-8 -1 -18 3q-53 18 -83 19q-85 0 -185 -157v-556q0 -21 -20 -28q-35 -12 -106 -12q-126 0 -126 40v892q0 40 94 40q76 0 98.5 -9.5t22.5 -30.5v-111zM577 1404q124 0 121 -33
q-1 -10 -10 -21l-194 -232q-23 -28 -55 -31.5t-64 -3.5q-66 0 -81 12.5t4 39.5l143 229q21 33 80 38q23 2 56 2z" />
    <glyph glyph-name="uni0156" unicode="&#x156;" horiz-adv-x="1153" 
d="M762 923q0 53 -29 97q-48 73 -211 73h-118v-367h134q165 0 210 110q14 34 14 87zM1034 939q0 -258 -251 -337q60 -29 103 -83t81 -147l109 -255q25 -63 25 -79q0 -28 -25 -36t-94 -8q-108 0 -131.5 9t-32.5 35l-116 289q-48 111 -79 144q-56 58 -137 58h-82v-493
q0 -42 -119.5 -42t-137.5 24q-6 8 -6 18v1175q0 44 22.5 63.5t55.5 19.5h335q180 0 264 -36q82 -36 126 -80q90 -90 90 -239zM496 -365q-86 0 -86 28q0 10 4 24l57 190q7 24 34.5 33t121 9t91.5 -34q0 -11 -7 -25l-98 -190q-15 -30 -50 -32.5t-67 -2.5z" />
    <glyph glyph-name="uni0157" unicode="&#x157;" horiz-adv-x="728" 
d="M341 815q117 168 229 168q104 0 120 -35q8 -20 9 -81q0 -93 -7.5 -117.5t-27.5 -24.5q-8 -1 -18 3q-53 18 -83 19q-85 0 -185 -157v-556q0 -21 -20 -28q-35 -12 -106 -12q-126 0 -126 40v892q0 40 94 40q76 0 98.5 -9.5t22.5 -30.5v-111zM173 -365q-86 0 -86 28
q0 10 4 24l57 190q7 24 34.5 33t121.5 9t92 -34q0 -11 -8 -25l-98 -190q-15 -30 -50 -32.5t-67 -2.5z" />
    <glyph glyph-name="Rcaron" unicode="&#x158;" horiz-adv-x="1153" 
d="M762 923q0 53 -29 97q-48 73 -211 73h-118v-367h134q165 0 210 110q14 34 14 87zM1034 939q0 -258 -251 -337q60 -29 103 -83t81 -147l109 -255q25 -63 25 -79q0 -28 -25 -36t-94 -8q-108 0 -131.5 9t-32.5 35l-116 289q-48 111 -79 144q-56 58 -137 58h-82v-493
q0 -42 -119.5 -42t-137.5 24q-6 8 -6 18v1175q0 44 22.5 63.5t55.5 19.5h335q180 0 264 -36q82 -36 126 -80q90 -90 90 -239zM473 1392.5q-23 6.5 -51 34.5l-198 214q-26 30 -10 39t71 9q94 0 120.5 -6t43.5 -25l118 -137l123 135q17 21 43 27t83 6q89 0 104.5 -10.5
t-7.5 -37.5l-195 -214q-30 -35 -96 -39q-24 -2 -75 -2t-74 6.5z" />
    <glyph glyph-name="rcaron" unicode="&#x159;" horiz-adv-x="728" 
d="M341 815q117 168 229 168q104 0 120 -35q8 -20 9 -81q0 -93 -7.5 -117.5t-27.5 -24.5q-8 -1 -18 3q-53 18 -83 19q-85 0 -185 -157v-556q0 -21 -20 -28q-35 -12 -106 -12q-126 0 -126 40v892q0 40 94 40q76 0 98.5 -9.5t22.5 -30.5v-111zM702 1390.5q12 -13.5 -17 -52.5
l-157 -223q-21 -27 -61 -29.5t-71 -2.5q-108 0 -128 32l-159 223q-27 39 -15.5 52.5t66.5 13.5q83 0 100.5 -6t32.5 -28l103 -151l105 151q16 22 30 27q25 7 92 7t79 -13.5z" />
    <glyph glyph-name="Sacute" unicode="&#x15a;" horiz-adv-x="968" 
d="M908 376q0 -90 -38 -167t-103 -129q-131 -104 -323 -104t-314 71q-30 17 -48 35t-19 76q0 88 8.5 112.5t26.5 24.5q16 -1 42 -17q138 -90 288 -89.5t193 96.5q14 31 14 72t-24 72.5t-62.5 56t-87.5 46t-101 45.5q-124 57 -188 127q-86 95 -87 240q0 179 122 276t312 97
q139 0 249 -53q44 -21 51 -35t10.5 -30t3.5 -56.5t-1.5 -60.5t-5 -33t-10 -19t-17.5 -6t-35 14t-87.5 44t-130.5 30q-106 0 -150 -38t-44 -91t23.5 -84.5t63 -56t89.5 -46t102 -45.5t102 -54.5t89 -73t63 -100t24 -147.5zM834.5 1669.5q19.5 -19.5 -12.5 -48.5l-222 -200
q-31 -27 -67 -31q-37 -4 -69 -4q-66 0 -82 12.5t8 40.5l180 204q26 29 49 36q34 10 115 10t100.5 -19.5z" />
    <glyph glyph-name="sacute" unicode="&#x15b;" horiz-adv-x="817" 
d="M678 739q-13 0 -32 10.5t-72.5 33t-106.5 22.5q-86 0 -119 -26.5t-33 -63t19 -57.5t50 -37t70.5 -30t80 -30.5t80 -38.5t70.5 -54t50 -76q19 -46 19 -114q0 -142 -106.5 -221.5t-261.5 -79.5t-255 50q-24 12 -41 28t-17 70q0 78 7.5 97t22 19t36 -12.5t81 -40.5
t118.5 -28q91 0 131 26.5t40 68t-18.5 63t-49 37.5t-69 30t-78.5 31q-99 42 -157.5 103t-58.5 183.5t98 201.5t242 79q144 -1 230 -41q37 -18 43 -29q13 -25 13 -99.5t-26 -74.5zM599 1404q124 0 121 -33q-1 -10 -10 -21l-194 -232q-23 -28 -55 -31.5t-64 -3.5
q-66 0 -81 12.5t4 39.5l143 229q21 33 80 38q23 2 56 2z" />
    <glyph glyph-name="Scircumflex" unicode="&#x15c;" horiz-adv-x="968" 
d="M908 376q0 -90 -38 -167t-103 -129q-131 -104 -323 -104t-314 71q-30 17 -48 35t-19 76q0 88 8.5 112.5t26.5 24.5q16 -1 42 -17q138 -90 288 -89.5t193 96.5q14 31 14 72t-24 72.5t-62.5 56t-87.5 46t-101 45.5q-124 57 -188 127q-86 95 -87 240q0 179 122 276t312 97
q139 0 249 -53q44 -21 51 -35t10.5 -30t3.5 -56.5t-1.5 -60.5t-5 -33t-10 -19t-17.5 -6t-35 14t-87.5 44t-130.5 30q-106 0 -150 -38t-44 -91t23.5 -84.5t63 -56t89.5 -46t102 -45.5t102 -54.5t89 -73t63 -100t24 -147.5zM589 1681.5q25 -7.5 49 -33.5l198 -214
q26 -28 10.5 -38t-71.5 -10q-95 0 -121 6t-43 25l-118 137l-122 -134q-24 -29 -65.5 -31.5t-79.5 -2.5q-70 0 -86 10.5t7 37.5l195 214q30 36 96 40q24 2 75 1.5t76 -8z" />
    <glyph glyph-name="scircumflex" unicode="&#x15d;" horiz-adv-x="817" 
d="M678 739q-13 0 -32 10.5t-72.5 33t-106.5 22.5q-86 0 -119 -26.5t-33 -63t19 -57.5t50 -37t70.5 -30t80 -30.5t80 -38.5t70.5 -54t50 -76q19 -46 19 -114q0 -142 -106.5 -221.5t-261.5 -79.5t-255 50q-24 12 -41 28t-17 70q0 78 7.5 97t22 19t36 -12.5t81 -40.5
t118.5 -28q91 0 131 26.5t40 68t-18.5 63t-49 37.5t-69 30t-78.5 31q-99 42 -157.5 103t-58.5 183.5t98 201.5t242 79q144 -1 230 -41q37 -18 43 -29q13 -25 13 -99.5t-26 -74.5zM105 1096.5q-13 13.5 17 52.5l158 223q16 26 58 29t74 3q100 0 128 -32l157 -223
q29 -39 16 -52.5t-66 -13.5q-82 0 -100.5 6.5t-32.5 28.5l-104 150l-104 -150q-15 -23 -30 -28q-25 -7 -91.5 -7t-79.5 13.5z" />
    <glyph glyph-name="Scedilla" unicode="&#x15e;" horiz-adv-x="968" 
d="M349 -195q58 0 58 47q0 19 -17 58l-32 71q-132 11 -230 67q-28 16 -46 34t-19 76q0 88 8.5 112.5t26.5 24.5q16 -1 42 -17q138 -90 288 -89.5t193 96.5q14 31 14 72t-24 72.5t-62.5 56t-87.5 46t-101 45.5q-124 57 -188 127q-86 95 -87 240q0 179 122 276t312 97
q139 0 249 -53q44 -21 51 -35t10.5 -30t3.5 -56.5t-1.5 -60.5t-5 -33t-10 -19t-17.5 -6t-35 14t-87.5 44t-130.5 30q-106 0 -150 -38t-44 -91t23.5 -84.5t63 -56t89.5 -46t102 -45.5q128 -59 191 -127q87 -95 87 -236q0 -207 -156 -320q-78 -56 -197 -79l25 -55
q35 -76 35 -123q0 -88 -60.5 -132t-164.5 -44q-102 0 -168 31q-17 8 -20.5 27t-3.5 50q0 62 35 62h116z" />
    <glyph glyph-name="scedilla" unicode="&#x15f;" horiz-adv-x="817" 
d="M754 304q0 -247 -235 -308l28 -62q35 -76 35 -123q0 -88 -60.5 -132t-164 -44t-169.5 31q-17 8 -20 27t-3 50q0 62 35 62h116q58 0 58 47q0 19 -17 58l-31 69q-110 9 -164 34t-71.5 41.5t-17.5 70.5q0 78 7.5 97t22 19t36 -12.5t81 -40.5t118.5 -28q91 0 131 26.5t40 68
t-18.5 63t-49 37.5t-69 30t-78.5 31q-99 42 -157.5 103t-58.5 183.5t98 201.5t242 79q144 -1 230 -41q37 -18 43 -29q13 -25 13 -99.5t-26 -74.5q-13 0 -32 10.5t-72.5 33t-106.5 22.5q-86 0 -119 -26.5t-33 -63t19 -57.5t50 -37q30 -16 70 -30q40 -15 80 -31
q220 -90 220 -256z" />
    <glyph glyph-name="Scaron" unicode="&#x160;" horiz-adv-x="968" 
d="M908 376q0 -90 -38 -167t-103 -129q-131 -104 -323 -104t-314 71q-30 17 -48 35t-19 76q0 88 8.5 112.5t26.5 24.5q16 -1 42 -17q138 -90 288 -89.5t193 96.5q14 31 14 72t-24 72.5t-62.5 56t-87.5 46t-101 45.5q-124 57 -188 127q-86 95 -87 240q0 179 122 276t312 97
q139 0 249 -53q44 -21 51 -35t10.5 -30t3.5 -56.5t-1.5 -60.5t-5 -33t-10 -19t-17.5 -6t-35 14t-87.5 44t-130.5 30q-106 0 -150 -38t-44 -91t23.5 -84.5t63 -56t89.5 -46t102 -45.5t102 -54.5t89 -73t63 -100t24 -147.5zM402 1392.5q-23 6.5 -51 34.5l-198 214
q-26 30 -10 39t71 9q94 0 120.5 -6t43.5 -25l118 -137l123 135q17 21 43 27t83 6q89 0 104.5 -10.5t-7.5 -37.5l-195 -214q-29 -35 -95 -39q-24 -2 -75.5 -2t-74.5 6.5z" />
    <glyph glyph-name="scaron" unicode="&#x161;" horiz-adv-x="817" 
d="M678 739q-13 0 -32 10.5t-72.5 33t-106.5 22.5q-86 0 -119 -26.5t-33 -63t19 -57.5t50 -37t70.5 -30t80 -30.5t80 -38.5t70.5 -54t50 -76q19 -46 19 -114q0 -142 -106.5 -221.5t-261.5 -79.5t-255 50q-24 12 -41 28t-17 70q0 78 7.5 97t22 19t36 -12.5t81 -40.5
t118.5 -28q91 0 131 26.5t40 68t-18.5 63t-49 37.5t-69 30t-78.5 31q-99 42 -157.5 103t-58.5 183.5t98 201.5t242 79q144 -1 230 -41q37 -18 43 -29q13 -25 13 -99.5t-26 -74.5zM716 1390.5q12 -13.5 -17 -52.5l-157 -223q-21 -27 -61 -29.5t-71 -2.5q-108 0 -128 32
l-159 223q-27 39 -15.5 52.5t66.5 13.5q83 0 100.5 -6t32.5 -28l103 -151l105 151q16 22 30 27q25 7 92 7t79 -13.5z" />
    <glyph glyph-name="uni0162" unicode="&#x162;" horiz-adv-x="1014" 
d="M963 1294q39 0 39 -108t-39 -107h-324v-1043q0 -22 -30 -32l28 -62q34 -78 34 -124q-1 -87 -61 -131t-164 -44t-168 31q-17 8 -21 27q-3 19 -3 50q0 62 35 62h116q58 0 58 47q0 19 -17 58l-39 86q-32 9 -32 32v1043h-324q-39 -1 -39 107t39 108h912z" />
    <glyph glyph-name="uni0163" unicode="&#x163;" horiz-adv-x="710" 
d="M626 214q28 0 28 -86t-14 -101q-29 -30 -104 -41l24 -52q34 -78 34 -124q0 -87 -60 -131t-165 -44t-169 31q-17 8 -20 27t-3 50q0 62 35 62h116q58 0 58 47q0 19 -17 58l-41 90q-159 56 -159 299v457h-107q-39 0 -39 102t40 102h106v199q-1 42 125 42t126 -42v-199h194
q40 0 40 -102t-39 -102h-195v-419q0 -73 23 -109t72 -37t76 11q28 12 35 12z" />
    <glyph glyph-name="Tcaron" unicode="&#x164;" horiz-adv-x="1014" 
d="M963 1294q39 0 39 -107.5t-39 -107.5h-324v-1043q0 -42 -132 -42t-132 42v1043h-324q-39 0 -39 107.5t39 107.5h912zM412 1392.5q-23 6.5 -51 34.5l-198 214q-26 30 -10 39t71 9q94 0 120.5 -6t43.5 -25l118 -137l123 135q17 21 43 27t83 6q89 0 104.5 -10.5t-7.5 -37.5
l-195 -214q-29 -35 -95 -39q-24 -2 -75.5 -2t-74.5 6.5z" />
    <glyph glyph-name="tcaron" unicode="&#x165;" horiz-adv-x="744" 
d="M626 214q28 0 28 -85.5t-14 -101.5q-45 -47 -189 -47q-142 0 -212 77t-70 242v457h-107q-39 0 -39 102t40 102h106v199q0 42 125.5 42t125.5 -42v-199h194q40 0 40 -102t-39 -102h-195v-419q0 -73 23 -109.5t71.5 -36.5t76.5 11.5t35 11.5zM722 1522q66 0 85 -11.5
t10 -38.5l-124 -314q-12 -34 -95 -34q-60 0 -72 9.5t-6 36.5l78 305q11 47 124 47z" />
    <glyph glyph-name="Tbar" unicode="&#x166;" horiz-adv-x="1014" 
d="M963 1294q39 0 39 -107.5t-39 -107.5h-324v-335h222q39 0 39 -101t-39 -101h-222v-508q0 -40 -132 -40t-132 40v508h-222q-39 0 -39 101t39 101h222v335h-324q-39 0 -39 107.5t39 107.5h912z" />
    <glyph glyph-name="tbar" unicode="&#x167;" horiz-adv-x="726" 
d="M608 501q0 -90 -38 -90h-147v-95q0 -66 23 -101t73 -35t76.5 11t33.5 11q28 0 28 -83t-21 -101q-20 -16 -70 -28t-114 -12q-278 0 -278 319v114h-108q-39 0 -39 82q1 83 23 93q8 4 17 3h107v182h-108q-39 1 -39 87q1 86 23 98q8 4 17 4h107v199q0 42 124.5 42t124.5 -42
v-199h194q21 0 30.5 -20.5t9.5 -73.5q0 -95 -39 -95h-195v-182h146q20 0 27 -13q12 -23 12 -75z" />
    <glyph glyph-name="Utilde" unicode="&#x168;" horiz-adv-x="1337" 
d="M1068 1300q129 0 129 -42v-776q0 -240 -138.5 -372.5t-397.5 -132.5q-379 -1 -485 277q-36 92 -36 217v787q0 22 22 29q40 13 110 13q131 0 131 -42v-764q1 -222 159 -282q50 -18 110 -19q124 0 194.5 75.5t70.5 210.5v779q0 22 21 29q39 13 110 13zM808 1562q63 0 63 74
q0 16 17 21t62 5t60.5 -7.5t15.5 -30.5q0 -115 -56.5 -175t-151.5 -60q-95 -1 -178 49q-31 18 -56.5 34t-55.5 16q-63 0 -63 -73q0 -17 -18.5 -21.5t-62 -4.5t-59 7.5t-15.5 47.5q0 97 58.5 157.5t152.5 60.5q95 0 175 -50q30 -19 56 -34.5t56 -15.5z" />
    <glyph glyph-name="utilde" unicode="&#x169;" horiz-adv-x="1099" 
d="M448 -23q-327 0 -327 403v546q0 40 108 40q87 0 115 -9.5t28 -30.5v-504q0 -226 150 -226q88 0 200 137v593q0 21 20 28q34 12 105 12q125 0 125 -40v-892q0 -40 -94 -40q-75 0 -98 9.5t-23 30.5v103q-148 -160 -309 -160zM688 1263q62 0 62 85q0 17 15 22.5t60.5 5.5
t62 -7.5t16.5 -32.5q0 -121 -57.5 -185.5t-143 -64.5t-124.5 21t-58.5 35.5t-49.5 35.5t-61 21q-61 0 -61 -85q0 -18 -15 -23t-50 -5q-58 0 -73.5 8t-15.5 33q0 116 56 182.5t151 66.5q96 0 176 -56q30 -22 56 -39.5t54 -17.5z" />
    <glyph glyph-name="Umacron" unicode="&#x16a;" horiz-adv-x="1337" 
d="M1068 1300q129 0 129 -42v-776q0 -240 -138.5 -372.5t-397.5 -132.5q-379 -1 -485 277q-36 92 -36 217v787q0 22 22 29q40 13 110 13q131 0 131 -42v-764q1 -222 159 -282q50 -18 110 -19q124 0 194.5 75.5t70.5 210.5v779q0 22 21 29q39 13 110 13zM964 1616
q40 0 40 -84t-22 -96q-8 -4 -18 -5h-590q-44 -1 -44 79q0 62 10 84t34 22h590z" />
    <glyph glyph-name="umacron" unicode="&#x16b;" horiz-adv-x="1099" 
d="M448 -23q-327 0 -327 403v546q0 40 108 40q87 0 115 -9.5t28 -30.5v-504q0 -226 150 -226q88 0 200 137v593q0 21 20 28q34 12 105 12q125 0 125 -40v-892q0 -40 -94 -40q-75 0 -98 9.5t-23 30.5v103q-148 -160 -309 -160zM806 1323q23 0 29.5 -15.5t9 -33t2.5 -43.5
q0 -48 -9 -69.5t-32 -21.5h-510q-44 0 -44 79q0 62 10 83t34 21h510z" />
    <glyph glyph-name="Ubreve" unicode="&#x16c;" horiz-adv-x="1337" 
d="M1068 1300q129 0 129 -42v-776q0 -240 -138.5 -372.5t-397.5 -132.5q-379 -1 -485 277q-36 92 -36 217v787q0 22 22 29q40 13 110 13q131 0 131 -42v-764q1 -222 159 -282q50 -18 110 -19q124 0 194.5 75.5t70.5 210.5v779q0 22 21 29q39 13 110 13zM967 1661
q-1 -199 -171 -256q-56 -19 -132 -19q-148 0 -222.5 72.5t-74.5 202.5q0 20 17.5 28t65.5 8t68 -7q20 -6 22 -24q5 -55 35 -87.5t83 -32.5t80.5 16.5t40.5 41.5t15.5 49.5t19 34t66.5 9.5t68.5 -8t18.5 -28z" />
    <glyph glyph-name="ubreve" unicode="&#x16d;" horiz-adv-x="1099" 
d="M448 -23q-327 0 -327 403v546q0 40 108 40q87 0 115 -9.5t28 -30.5v-504q0 -226 150 -226q88 0 200 137v593q0 21 20 28q34 12 105 12q125 0 125 -40v-892q0 -40 -94 -40q-75 0 -98 9.5t-23 30.5v103q-148 -160 -309 -160zM258 1363q0 37 70 37q62 0 79.5 -8.5
t19.5 -33.5q12 -114 106 -114q74 0 105.5 29t35.5 88q4 39 79 39t85 -19q4 -7 3 -16q0 -279 -291.5 -279t-291.5 277z" />
    <glyph glyph-name="Uring" unicode="&#x16e;" horiz-adv-x="1337" 
d="M1068 1300q129 0 129 -42v-776q0 -240 -138.5 -372.5t-397.5 -132.5q-379 -1 -485 277q-36 92 -36 217v787q0 22 22 29q40 13 110 13q131 0 131 -42v-764q1 -222 159 -282q50 -18 110 -19q124 0 194.5 75.5t70.5 210.5v779q0 22 21 29q39 13 110 13zM667 1468q85 0 85 86
t-85 86t-85 -86t85 -86zM670 1753q235 0 235 -195q1 -146 -139 -189q-46 -14 -104 -14q-115 0 -174 50.5t-59 145.5q1 147 139 189q44 14 102 13z" />
    <glyph glyph-name="uring" unicode="&#x16f;" horiz-adv-x="1099" 
d="M448 -23q-327 0 -327 403v546q0 40 108 40q87 0 115 -9.5t28 -30.5v-504q0 -226 150 -226q88 0 200 137v593q0 21 20 28q34 12 105 12q125 0 125 -40v-892q0 -40 -94 -40q-75 0 -98 9.5t-23 30.5v103q-148 -160 -309 -160zM547 1347q-81 0 -81 -85t83.5 -85t83.5 85
t-86 85zM545 1067q-229 0 -229 192q0 145 136 185q44 13 101 13q113 0 171.5 -49t58.5 -142q0 -144 -137 -186q-44 -14 -101 -13z" />
    <glyph glyph-name="Uhungarumlaut" unicode="&#x170;" horiz-adv-x="1337" 
d="M1068 1300q129 0 129 -42v-776q0 -240 -138.5 -372.5t-397.5 -132.5q-379 -1 -485 277q-36 92 -36 217v787q0 22 22 29q40 13 110 13q131 0 131 -42v-764q1 -222 159 -282q50 -18 110 -19q124 0 194.5 75.5t70.5 210.5v779q0 22 21 29q39 13 110 13zM773.5 1396
q-20.5 10 -5.5 29l183 236q19 29 67.5 32.5t93.5 3.5q91 0 114 -14t-4 -39l-242 -233q-26 -23 -61 -24t-80 -1t-65.5 10zM415.5 1386q-40.5 0 -57 11t-1.5 32l163 232q20 28 66 32t90 4q92 0 115 -12.5t-6 -39.5l-238 -236q-21 -21 -56 -22t-75.5 -1z" />
    <glyph glyph-name="uhungarumlaut" unicode="&#x171;" horiz-adv-x="1099" 
d="M448 -23q-327 0 -327 403v546q0 40 108 40q87 0 115 -9.5t28 -30.5v-504q0 -226 150 -226q88 0 200 137v593q0 21 20 28q34 12 105 12q125 0 125 -40v-892q0 -40 -94 -40q-75 0 -98 9.5t-23 30.5v103q-148 -160 -309 -160zM702 1068q-41 0 -61.5 8t-4.5 31l180 254
q19 28 60.5 30.5t80.5 2.5q75 0 94.5 -17.5t-8.5 -45.5l-219 -237q-20 -22 -50.5 -24t-71.5 -2zM358 1068q-89 0 -89 22q0 8 7 20l151 243q15 24 42 32.5t78 8.5q97 0 119.5 -15t-7.5 -49l-207 -237q-19 -21 -46 -23t-48 -2z" />
    <glyph glyph-name="Uogonek" unicode="&#x172;" horiz-adv-x="1337" 
d="M403 1260v-770q1 -218 159 -278q50 -18 110 -19q124 0 194.5 75.5t70.5 210.5v781q-1 40 113 40q91 0 119 -9.5t28 -30.5v-778q0 -271 -179 -405q-76 -57 -147 -128l-37 -36q-33 -33 -33 -65q0 -43 62 -43h98q18 0 25 -12t7 -43q0 -51 -8 -67t-55.5 -32t-153.5 -16
q-226 0 -226 166q0 77 71 148l36 36q-18 -3 -58 -3t-101 12t-115 37q-113 52 -178 162.5t-65 277.5v789q0 40 131.5 40t131.5 -40z" />
    <glyph glyph-name="uogonek" unicode="&#x173;" horiz-adv-x="1099" 
d="M448 -23q-327 0 -327 403v546q0 40 108 40q87 0 115 -9.5t28 -30.5v-504q0 -226 150 -226q90 0 200 137v593q0 40 108 40q88 0 115 -9.5t27 -30.5v-883q0 -41 -12 -59t-24 -30l-51 -51q-29 -31 -29 -62q0 -41 60 -41h75q19 0 27 -12q8 -10 8 -40q0 -52 -8 -67
q-23 -46 -182 -46q-160 1 -202 93q-14 30 -13 58q0 54 20.5 91.5t70.5 87.5l49 50v122h-3q-146 -160 -310 -160z" />
    <glyph glyph-name="Wcircumflex" unicode="&#x174;" horiz-adv-x="1856" 
d="M291.5 1291.5q21.5 -8.5 27.5 -45.5l227 -991h1l236 984q8 39 34 50t93 11q115 0 140.5 -10.5t33.5 -50.5l244 -984h2l227 988q7 36 29.5 46.5t88.5 10.5t90.5 -2.5t38.5 -16.5t-4 -88l-297 -1126q-12 -49 -48 -61q-61 -22 -229 -10q-34 2 -61 12.5t-37 58.5l-207 820h-2
l-196 -820q-10 -47 -36 -57q-63 -26 -241 -14q-67 5 -79.5 26t-18.5 45l-294 1129q-18 71 -2 85t44.5 16.5t101 2.5t94 -8.5zM1044 1681.5q25 -7.5 49 -33.5l198 -214q26 -28 10.5 -38t-71.5 -10q-95 0 -121 6t-43 25l-118 137l-122 -134q-24 -29 -65.5 -31.5t-79.5 -2.5
q-70 0 -86 10.5t7 37.5l195 214q30 36 96 40q24 2 75 1.5t76 -8z" />
    <glyph glyph-name="wcircumflex" unicode="&#x175;" horiz-adv-x="1526" 
d="M948 4.5q-31 10.5 -39 43.5l-150 542l-2 9l-140 -551q-8 -34 -32 -42q-65 -22 -169 -13.5t-115.5 24t-15.5 31.5l-236 807q-14 45 -14 64q0 31 26.5 39t82.5 8q95 0 118.5 -8.5t30.5 -34.5l177 -655l2 -12l168 667q6 25 24 32t41.5 9t60.5 2q68 0 92.5 -8t31.5 -31
l181 -671l172 667q4 26 23 32.5t43 8.5t61 2q72 0 96.5 -8t24.5 -29t-14 -74l-238 -807q-10 -34 -32 -42q-33 -12 -130.5 -12t-128.5 10.5zM464 1096.5q-13 13.5 17 52.5l158 223q16 26 58 29q41 3 73 3q100 0 129 -32l157 -223q29 -39 16 -52.5t-66 -13.5q-82 0 -100.5 6.5
t-32.5 28.5l-104 150l-104 -150q-15 -23 -30 -28q-25 -7 -91.5 -7t-79.5 13.5z" />
    <glyph glyph-name="Ycircumflex" unicode="&#x176;" horiz-adv-x="1064" 
d="M664 36q0 -42 -120 -42t-138 24q-6 8 -6 18v455l-354 705q-37 72 -22 86t46 16q32 2 82 2q94 0 119 -8.5t40 -38.5l144 -318q36 -80 83 -204h2q31 89 78 202l142 316q10 31 35 41t96 10q129 0 146 -16t-19 -88l-354 -705v-455zM625 1681.5q25 -7.5 49 -33.5l198 -214
q26 -28 10.5 -38t-71.5 -10q-95 0 -121 6t-43 25l-118 137l-122 -134q-24 -29 -65.5 -31.5t-79.5 -2.5q-70 0 -86 10.5t7 37.5l195 214q30 36 96 40q24 2 75 1.5t76 -8z" />
    <glyph glyph-name="ycircumflex" unicode="&#x177;" horiz-adv-x="970" 
d="M22 918q0 48 102 48q112 0 133 -9t35 -54l210 -597h3l192 609q6 26 20 38.5t80.5 12.5t95 -4t42 -15t13.5 -29.5t-8 -43.5l-405 -1190q-17 -47 -130.5 -47t-135 14.5t-7.5 49.5l119 299q-27 13 -39 45l-307 820q-13 35 -13 53zM176 1096.5q-13 13.5 17 52.5l158 223
q16 26 58 29q41 3 73 3q100 0 129 -32l157 -223q29 -39 16 -52.5t-66 -13.5q-82 0 -100.5 6.5t-32.5 28.5l-104 150l-104 -150q-15 -23 -30 -28q-25 -7 -91.5 -7t-79.5 13.5z" />
    <glyph glyph-name="Ydieresis" unicode="&#x178;" horiz-adv-x="1064" 
d="M664 36q0 -42 -120 -42t-138 24q-6 8 -6 18v455l-354 705q-37 72 -22 86t46 16q32 2 82 2q94 0 119 -8.5t40 -38.5l144 -318q36 -80 83 -204h2q31 89 78 202l142 316q10 31 35 41t96 10q129 0 146 -16t-19 -88l-354 -705v-455zM887 1533.5q0 -69.5 -28 -97.5t-105 -28
t-103.5 27t-26.5 96.5t27.5 97t104.5 27.5t104 -26.5t27 -96zM450 1533.5q0 -69.5 -27.5 -97.5t-104.5 -28t-104 27t-27 96.5t28 97t105 27.5t103.5 -26.5t26.5 -96z" />
    <glyph glyph-name="Zacute" unicode="&#x179;" horiz-adv-x="979" 
d="M897 211q39 0 39 -105.5t-39 -105.5h-763q-83 0 -83 90v44q0 57 20 92t37 63l502 796h-498q-45 0 -45 89q0 73 10 96.5t35 23.5h715q80 0 80 -80v-49q0 -71 -20 -106.5t-37 -62.5l-494 -785h541zM824.5 1669.5q19.5 -19.5 -12.5 -48.5l-222 -200q-31 -27 -67 -31
q-37 -4 -69 -4q-66 0 -82 12.5t8 40.5l180 204q26 29 49 36q34 10 115 10t100.5 -19.5z" />
    <glyph glyph-name="zacute" unicode="&#x17a;" horiz-adv-x="814" 
d="M708 202q42 0 42 -85q0 -70 -10 -93.5t-32 -23.5h-583q-56 0 -56 77v46q0 52 13.5 77t25.5 42l334 516h-316q-42 0 -42 91.5t23 105.5q8 5 19 5h545q29 0 41.5 -15.5t12.5 -55.5v-49q0 -57 -13.5 -82t-23.5 -41l-332 -515h352zM579 1404q124 0 121 -33q-1 -10 -10 -21
l-194 -232q-23 -28 -55 -31.5t-64 -3.5q-66 0 -81 12.5t4 39.5l143 229q21 33 80 38q23 2 56 2z" />
    <glyph glyph-name="Zdotaccent" unicode="&#x17b;" horiz-adv-x="979" 
d="M897 211q39 0 39 -105.5t-39 -105.5h-763q-83 0 -83 90v44q0 57 20 92t37 63l502 796h-498q-45 0 -45 89q0 73 10 96.5t35 23.5h715q80 0 80 -80v-49q0 -71 -20 -106.5t-37 -62.5l-494 -785h541zM633 1533q0 -70 -29.5 -98.5t-109.5 -28.5t-109 27.5t-29 97.5t30 98
t110 28t108.5 -27t28.5 -97z" />
    <glyph glyph-name="zdotaccent" unicode="&#x17c;" horiz-adv-x="814" 
d="M708 202q42 0 42 -85q0 -70 -10 -93.5t-32 -23.5h-583q-56 0 -56 77v46q0 52 13.5 77t25.5 42l334 516h-316q-42 0 -42 91.5t23 105.5q8 5 19 5h545q29 0 41.5 -15.5t12.5 -55.5v-49q0 -57 -13.5 -82t-23.5 -41l-332 -515h352zM561 1233.5q0 -69.5 -29.5 -98
t-109.5 -28.5t-109 27.5t-29 97t30 98t110 28.5t108.5 -27.5t28.5 -97z" />
    <glyph glyph-name="Zcaron" unicode="&#x17d;" horiz-adv-x="979" 
d="M897 211q39 0 39 -105.5t-39 -105.5h-763q-83 0 -83 90v44q0 57 20 92t37 63l502 796h-498q-45 0 -45 89q0 73 10 96.5t35 23.5h715q80 0 80 -80v-49q0 -71 -20 -106.5t-37 -62.5l-494 -785h541zM397 1392.5q-23 6.5 -51 34.5l-198 214q-26 30 -10 39t71 9q94 0 120.5 -6
t43.5 -25l118 -137l123 135q17 21 43 27t83 6q89 0 104.5 -10.5t-7.5 -37.5l-195 -214q-30 -35 -96 -39q-24 -2 -75 -2t-74 6.5z" />
    <glyph glyph-name="zcaron" unicode="&#x17e;" horiz-adv-x="814" 
d="M708 202q42 0 42 -85q0 -70 -10 -93.5t-32 -23.5h-583q-56 0 -56 77v46q0 52 13.5 77t25.5 42l334 516h-316q-42 0 -42 91.5t23 105.5q8 5 19 5h545q29 0 41.5 -15.5t12.5 -55.5v-49q0 -57 -13.5 -82t-23.5 -41l-332 -515h352zM719 1390.5q12 -13.5 -17 -52.5l-157 -223
q-21 -27 -61 -29.5t-71 -2.5q-108 0 -128 32l-159 223q-27 39 -15.5 52.5t66.5 13.5q83 0 100.5 -6t32.5 -28l103 -151l105 151q16 22 30 27q25 7 92 7t79 -13.5z" />
    <glyph glyph-name="longs" unicode="&#x17f;" horiz-adv-x="529" 
d="M252 -6q-126 0 -126 40v1001q0 274 171 342q58 23 109 23t73.5 -2.5t42 -7t34 -9.5t20.5 -11q18 -19 18 -104.5t-28 -85.5q-5 0 -12.5 2.5t-26.5 8.5t-49 6q-57 0 -78.5 -35.5t-21.5 -123.5v-1004q0 -21 -20 -28q-36 -12 -106 -12z" />
    <glyph glyph-name="uni0180" unicode="&#x180;" horiz-adv-x="1170" 
d="M834 444q0 160 -42 242t-139.5 82t-203.5 -142v-296q108 -139 200 -139t138.5 83t46.5 170zM731 983q186 0 275 -137.5t89 -364.5t-101.5 -365.5t-282.5 -138.5q-91 0 -159.5 36.5t-139.5 117.5v-97q0 -40 -98 -40t-112 22q-5 8 -5 18v1037h-118q-20 0 -26.5 15.5
t-9 33.5t-2.5 46q0 54 9.5 72.5t30.5 18.5h116v92q0 43 126 43t126 -43v-92h197q20 0 29.5 -18.5t9.5 -72.5q0 -95 -39 -95h-197v-215q127 127 282 127z" />
    <glyph glyph-name="uni0181" unicode="&#x181;" horiz-adv-x="1368" 
d="M958 933q0 164 -206 164h-133v-336h147q144 -1 181 105q11 32 11 67zM1025 379q0 190 -250 190h-156v-368h190q155 -1 201 101q16 34 15 77zM764 1294q457 0 457 -329q1 -144 -103 -224q-34 -26 -77 -42q177 -32 237 -192q20 -53 20 -120.5t-19 -123.5t-53 -99
q-128 -164 -443 -164h-344q-33 0 -55.5 19.5t-22.5 63.5v1014q-74 -3 -104.5 -22.5t-30.5 -65.5l5 -79q0 -41 -97 -41q-61 0 -79 20q-30 35 -30 111q0 146 84.5 210t275.5 64h379z" />
    <glyph glyph-name="uni0182" unicode="&#x182;" horiz-adv-x="1138" 
d="M812 384q0 188 -238 187h-169v-373h172q170 0 219 107q16 35 16 79zM952 1294q41 0 41 -103.5t-40 -103.5h-548v-322h215q336 0 429 -210q30 -68 30 -155q0 -180 -124.5 -290t-390.5 -110h-341q-81 0 -81 86v1125q0 44 22.5 63.5t55.5 19.5h732z" />
    <glyph glyph-name="uni0183" unicode="&#x183;" horiz-adv-x="1099" 
d="M763 444q0 160 -42 242t-139.5 82t-203.5 -142v-296q108 -139 200 -139t138.5 83t46.5 170zM126 1333q0 59 51 59h715q40 0 40 -102t-39 -102h-515v-332q127 127 282 127q186 0 275 -137.5t89 -364.5t-101.5 -365.5t-282.5 -138.5q-91 0 -159.5 36.5t-139.5 117.5v-97
q0 -40 -98 -40t-112 22q-5 8 -5 18v1299z" />
    <glyph glyph-name="uni0184" unicode="&#x184;" horiz-adv-x="1171" 
d="M175 956q-155 68 -155 138q0 24 30 59q28 35 78 67q121 80 247 80q64 0 64 -58l-1 -437h215q319 0 423 -208q36 -73 36 -164.5t-20 -153.5t-56 -109q-128 -170 -439 -170h-341q-81 0 -81 86v870zM845 386q0 127 -67.5 176t-170.5 49h-169v-413h172q123 -1 179 54.5
t56 133.5z" />
    <glyph glyph-name="uni0185" unicode="&#x185;" horiz-adv-x="1119" 
d="M-5 1186q0 24 29.5 59t77.5 68q115 79 232 79q64 0 64 -58v-478q127 127 282 127q186 0 275 -137.5t89 -364.5t-101.5 -365.5t-282.5 -138.5q-91 0 -159.5 36.5t-139.5 117.5v-97q0 -22 -23.5 -31t-85 -9t-84 9t-22.5 31v1013q-151 67 -151 139zM398 330
q109 -139 200 -139q92 0 142 90q43 78 43 196q0 126 -41.5 208.5t-139.5 82.5t-204 -142v-296z" />
    <glyph glyph-name="uni0186" unicode="&#x186;" horiz-adv-x="1075" 
d="M90 991q-37 0 -37 97q0 96 10 112q11 16 29 31q42 34 135.5 59t197.5 25t214.5 -40.5t189.5 -124.5q167 -177 167 -503.5t-153 -497t-424 -170.5q-119 0 -224 33.5t-132 78.5q-14 23 -14 77q0 85 7.5 107t23.5 22t38 -16q117 -85 226.5 -85t171.5 27q196 85 196 417
t-185 428q-61 32 -136.5 32t-124.5 -17t-83.5 -37.5t-56 -37.5t-36.5 -17z" />
    <glyph glyph-name="uni0187" unicode="&#x187;" horiz-adv-x="1243" 
d="M1032 1205v-114q0 -110 -37 -110q-15 -1 -38 17q-126 96 -235 96q-110 0 -170 -32t-102 -90q-87 -121 -87 -328q-1 -332 195 -416q62 -26 135 -26t124.5 16.5t88 36t59.5 36t35 16.5q22 0 29 -22q7 -23 7 -69q0 -72 -5 -92q-15 -60 -135.5 -102.5t-247.5 -42.5
q-264 0 -416.5 166t-152.5 487.5t164 502t436 180.5q71 0 142 -23q19 254 279 254q86 0 117 -24.5t31 -84.5q0 -97 -41 -97l-78 5q-47 0 -64 -21q-33 -39 -33 -119z" />
    <glyph glyph-name="uni0188" unicode="&#x188;" horiz-adv-x="950" 
d="M797 861v-68q0 -105 -36 -105q-17 0 -36 14t-45 31q-69 45 -148 45q-202 0 -202 -295t205 -295q98 0 202 84q19 16 32 16q32 0 32 -90t-7.5 -106t-19.5 -28q-33 -31 -111.5 -58.5t-173.5 -27.5q-197 0 -307 126t-110 371.5t122.5 376t326.5 130.5q41 0 89 -13
q35 206 254 206q84 0 117 -24.5t33 -79.5q0 -92 -39 -92l-84 5q-94 0 -94 -123z" />
    <glyph glyph-name="uni0189" unicode="&#x189;" horiz-adv-x="1309" 
d="M619 771q39 0 39 -101.5t-39 -101.5h-197v-360h137q403 0 403 449q0 307 -212 399q-75 32 -193 32h-135v-317h197zM54 771h106v440q0 44 22 63.5t55 19.5h333q491 0 622 -357q43 -117 43 -283q0 -334 -175 -494t-514 -160h-309q-33 0 -55 19.5t-22 63.5v485h-106
q-39 0 -39 101.5t39 101.5z" />
    <glyph glyph-name="uni018A" unicode="&#x18a;" horiz-adv-x="1511" 
d="M760 208q404 0 404 440t-408 440h-133v-880h137zM134 889q-61 0 -79 20q-30 35 -30 111q0 146 84.5 210t275.5 64h386q491 0 622 -357q43 -117 43 -283q0 -333 -174.5 -493.5t-513.5 -160.5h-309q-33 0 -55.5 19.5t-22.5 63.5v1014q-74 -3 -104.5 -22.5t-30.5 -65.5
l5 -79q0 -41 -97 -41z" />
    <glyph glyph-name="uni018B" unicode="&#x18b;" horiz-adv-x="1138" 
d="M326 384q0 -86 58 -136t177 -50h172v373h-169q-238 1 -238 -187zM996 86q0 -86 -81 -86h-341q-386 0 -485 240q-30 73 -30 160q0 173 114.5 269t344.5 96h215v322h-548q-40 0 -40 103.5t41 103.5h732q33 0 55.5 -19.5t22.5 -63.5v-1125z" />
    <glyph glyph-name="uni018C" unicode="&#x18c;" horiz-adv-x="1099" 
d="M331 485q-1 -202 93 -270q34 -25 74 -25q65 0 112 31.5t112 112.5v296q-110 140 -204 140t-140.5 -83t-46.5 -202zM465 983q137 0 257 -120v325h-517q-39 0 -39 102t40 102h715q51 0 51 -59v-1299q0 -22 -22 -31t-83.5 -9t-84.5 9t-23 31v99q-144 -156 -323.5 -156
t-275.5 146q-84 127 -84.5 356t101 366.5t288.5 137.5z" />
    <glyph glyph-name="uni018D" unicode="&#x18d;" horiz-adv-x="1091" 
d="M755 937q0 187 -113 243q-42 20 -94 20q-98 0 -156.5 -67t-58.5 -177t35 -165.5t78.5 -94t110.5 -82.5q198 109 198 323zM184 229q9 0 34.5 -11t94 -35t123.5 -24q86 0 117 21.5t31 47t-4 39t-13 27t-24 28.5t-38.5 33.5t-57 41t-93.5 61.5q-133 87 -206.5 199t-73.5 237
q0 236 127.5 371t355.5 135t342.5 -119.5t114.5 -329.5q0 -156 -77.5 -283.5t-219.5 -202.5q127 -85 127 -214t-93 -201.5t-258 -72.5t-279 49q-39 17 -45.5 28t-10 26.5t-3.5 82t29 66.5z" />
    <glyph glyph-name="uni018E" unicode="&#x18e;" horiz-adv-x="999" 
d="M130 0q-39 0 -39 103t39 103h466v365h-391q-39 0 -39 100.5t39 100.5h391v316h-462q-38 0 -38 103t38 103h646q33 0 55.5 -19.5t22.5 -63.5v-1128q0 -44 -22.5 -63.5t-55.5 -19.5h-650z" />
    <glyph glyph-name="uni018F" unicode="&#x18f;" horiz-adv-x="1347" 
d="M871.5 279.5q84.5 88.5 109.5 237.5h-618q6 -141 82 -233.5t209 -92.5t217.5 88.5zM613 1099q-159 0 -373 -108q-40 -20 -59 -20q-29 0 -29 101.5t24 121.5q57 45 176 83t263 38q325 0 488.5 -168t163.5 -483.5t-162.5 -502t-448.5 -186.5t-431 178.5t-145 506.5
q0 71 62 71h845q-35 368 -374 368z" />
    <glyph glyph-name="uni0190" unicode="&#x190;" horiz-adv-x="1009" 
d="M912 263q32 0 32 -71q0 -72 -6 -98q-4 -26 -18 -38q-31 -27 -124 -53t-207 -26q-229 0 -366.5 106t-137.5 296q0 118 79 201t212 99v3q-125 29 -185.5 110.5t-60.5 177.5q0 174 111 260.5t303 86.5t314 -62q56 -27 62 -61q4 -21 5 -60q0 -67 -7.5 -85.5t-22 -18.5t-42 12
t-97 39t-133.5 27q-112 0 -159.5 -44.5t-47.5 -101.5q0 -101 69.5 -151t185.5 -50h124q25 0 35 -19.5t10 -62.5q0 -73 -10.5 -92t-37.5 -19h-141q-262 0 -262 -200q0 -82 58.5 -131.5t145.5 -49.5t137.5 12t87.5 26t60 26t34 12z" />
    <glyph glyph-name="uni0191" unicode="&#x191;" horiz-adv-x="940" 
d="M802 731q39 0 39 -105.5t-39 -105.5h-397v-516q0 -180 -77.5 -274.5t-228.5 -94.5q-113 0 -130 32q-11 19 -11 100t29 81l54 -5q91 0 99 115q2 21 1 51v1202q0 45 22.5 64t55.5 19h609q39 0 39 -107.5t-39 -107.5h-423v-348h397z" />
    <glyph glyph-name="florin" unicode="&#x192;" horiz-adv-x="648" 
d="M628 858q0 -102 -39 -102h-163v-752q0 -279 -109 -324t-167 -45t-87 5.5t-45.5 13t-21 32t-4.5 65.5q0 97 29 97l54 -5q77 0 88.5 53t11.5 113v747h-112q-38 0 -38 92t14.5 102t24.5 10h111v75q0 275 116 320t176 45t95 -6.5t60.5 -16t33.5 -32t8 -96t-28 -73.5
q-7 0 -15.5 3.5t-32 11t-54.5 7.5q-58 0 -83 -35.5t-25 -120.5v-82h163q39 0 39 -102z" />
    <glyph glyph-name="uni0193" unicode="&#x193;" horiz-adv-x="1395" 
d="M1179 1205v-112q0 -106 -36 -106q-13 0 -42 18t-77 39q-130 57 -247 57q-209 0 -321.5 -124t-112.5 -334.5t109.5 -328t294.5 -117.5q93 0 167 40v300h-245q-38 0 -38 99.5t38 99.5h437q32 0 51 -22t19 -62v-515q2 -48 -26.5 -71t-145.5 -55.5t-272 -32.5
q-310 0 -484.5 173.5t-174.5 485t182.5 495.5t491.5 184q118 0 220 -31q15 261 280 261q86 0 117 -24.5t31 -84.5q0 -97 -41 -97l-78 5q-47 0 -64 -21q-33 -39 -33 -119z" />
    <glyph glyph-name="uni0194" unicode="&#x194;" horiz-adv-x="1210" 
d="M1071 52q0 -52 -93 -52h-748q-93 0 -93 52q0 30 33 80l293 447l-413 616q-33 50 -33 71t32.5 27.5t92.5 6.5q100 0 121 -7.5t38 -33.5l304 -475l304 475q15 25 37 33t102 8t112.5 -6.5t32.5 -28.5t-33 -70l-414 -617l292 -446q33 -50 33 -80zM605 379l-117 -175h234z" />
    <glyph glyph-name="uni0195" unicode="&#x195;" horiz-adv-x="1646" 
d="M252 -6q-126 0 -126 40v1315q0 43 126 43t126 -43v-493q130 127 273 127q327 0 327 -402v-220q0 -88 32.5 -135.5t115.5 -47.5t116.5 54t33.5 149v543q0 42 125.5 42t125.5 -42v-531q0 -416 -400 -416q-303 1 -377 209q-22 64 -23 137v220q0 221 -150 221
q-89 0 -199 -137v-593q0 -21 -20 -28q-36 -12 -106 -12z" />
    <glyph glyph-name="uni0196" unicode="&#x196;" horiz-adv-x="614" 
d="M592 208q27 0 27 -90q1 -90 -25 -108q-49 -32 -183.5 -31.5t-202 79.5t-67.5 251v949q0 42 132 42t132 -42v-915q0 -75 20 -113q21 -38 67 -38t70 8t30 8z" />
    <glyph glyph-name="uni0197" unicode="&#x197;" horiz-adv-x="616" 
d="M562 756q39 0 39 -79q0 -68 -9.5 -88t-29.5 -20h-122v-533q0 -42 -132 -42t-132 42v533h-120q-39 0 -39 80q0 68 9 87.5t30 19.5h120v502q0 42 132 42t132 -42v-502h122z" />
    <glyph glyph-name="uni0198" unicode="&#x198;" horiz-adv-x="1124" 
d="M141 1257q0 43 120 43t137 -24q6 -8 6 -19v-551l252 421q65 109 128 140.5t146.5 31.5t109 -7.5t43 -27.5t17.5 -87q0 -116 -36 -116l-92 6q-41 0 -66 -18t-63 -76l-175 -273l387 -585q31 -48 31 -60v-16q0 -24 -21 -31q-67 -24 -155 -14.5t-98 21.5t-17 23l-391 614
v-614q0 -44 -131.5 -44t-131.5 44v1219z" />
    <glyph glyph-name="uni0199" unicode="&#x199;" horiz-adv-x="983" 
d="M252 -6q-126 0 -126 40v992q0 191 72.5 280t203 89t147.5 -32q11 -19 11 -100t-29 -81l-54 5q-79 0 -93 -79q-6 -33 -6 -87v-455l264 355q27 37 68.5 41t79.5 4q131 0 131 -41q0 -34 -30 -68l-261 -296l302 -467q23 -35 23 -53q1 -29 -25 -37q-54 -17 -125.5 -11.5
t-91.5 11t-38 32.5l-297 470v-472q0 -21 -20 -28q-36 -12 -106 -12z" />
    <glyph glyph-name="uni019A" unicode="&#x19a;" horiz-adv-x="641" 
d="M321 -6q-126 0 -126 40v592h-129q-21 0 -30 17t-9 70q0 86 39 86h129v550q0 43 126 43t126 -43v-550h125q39 1 39 -79q-1 -80 -23 -90q-8 -4 -16 -4h-125v-592q-1 -21 -21 -28q-34 -12 -105 -12z" />
    <glyph glyph-name="uni019B" unicode="&#x19b;" horiz-adv-x="996" 
d="M278 1176q-33 46 -72.5 46t-73.5 -8t-44 -8q-20 0 -21 61q0 92 12 119q19 43 178 43t245 -120l130 77q23 13 48 -20q80 -104 39 -127l-141 -84q12 -30 22 -64l246 -804q24 -81 56 -91q12 -4 26 -4l37 2q17 0 23.5 -17.5t6.5 -84t-25 -89.5t-94 -23t-109 10.5t-71 39.5
q-57 54 -102 209l-122 427l-191 -611q-14 -43 -38 -52t-91 -9q-115 0 -135 18t4 81l337 891l-13 33l-129 -76q-29 -17 -73 56.5t-14 90.5z" />
    <glyph glyph-name="uni019C" unicode="&#x19c;" horiz-adv-x="1820" 
d="M1415 1258q0 42 132 42t132 -42v-1222q0 -23 -18 -29.5t-42 -9.5t-62 -3q-69 0 -95.5 10t-26.5 32v49q-78 -108 -216 -108q-215 0 -321 169q-103 -169 -327 -169q-431 0 -431 494v787q0 22 21 29q39 13 111 13q131 0 131 -42v-764q0 -154 50.5 -227.5t139 -73.5
t136.5 74.5t48 211.5v779q0 42 132 42t132 -42v-764q0 -154 50.5 -227.5t139 -73.5t136.5 74.5t48 211.5v779z" />
    <glyph glyph-name="uni019D" unicode="&#x19d;" horiz-adv-x="1349" 
d="M378 714v-710q0 -197 -70.5 -283t-196 -86t-142.5 32q-11 19 -11 100t29 81l54 -5q91 0 99 115q2 21 1 51v1191q0 48 27.5 71t67.5 23h141q72 0 109.5 -27.5t76.5 -107.5l252 -473q108 -210 161 -329h1q-6 140 -6 291v607q0 43 108 43t124 -25q5 -8 5 -18v-1163
q0 -48 -29.5 -71t-69.5 -23h-112q-70 0 -107 32t-87 132l-322 605q-68 131 -109 238h-2q8 -144 8 -291z" />
    <glyph glyph-name="uni019E" unicode="&#x19e;" horiz-adv-x="1099" 
d="M252 -6q-126 0 -126 40v892q0 40 98 40t112 -22q4 -8 5 -18v-103q148 160 310 160q327 0 327 -398v-911q0 -40 -113.5 -40t-131.5 22q-6 8 -6 18v869q0 221 -150 221q-89 0 -199 -137v-593q0 -21 -20 -28q-36 -12 -106 -12z" />
    </font>
</defs>
</svg>
